<?xml version="1.0" encoding="iso-8859-1"?>
<!-- Generator: Adobe Illustrator 19.0.0, SVG Export Plug-In . SVG Version: 6.00 Build 0)  -->
<svg version="1.1" id="Layer_1" xmlns="http://www.w3.org/2000/svg" xmlns:xlink="http://www.w3.org/1999/xlink" x="0px" y="0px"
	 viewBox="0 0 512.001 512.001" style="enable-background:new 0 0 512.001 512.001;" xml:space="preserve">
<path style="fill:#D68231;" d="M171.752,191.19c0,6.119-5.007,11.126-11.126,11.126h-79.55c-6.119,0-11.126-5.007-11.126-11.126
	V76.224c0-6.119,5.007-11.126,11.126-11.126h79.55c6.119,0,11.126,5.007,11.126,11.126V191.19z"/>
<rect x="69.951" y="84.212" style="opacity:0.1;enable-background:new    ;" width="58.712" height="28.254"/>
<rect x="113.039" y="127.803" style="opacity:0.1;enable-background:new    ;" width="58.712" height="28.254"/>
<polygon style="fill:#D1D3D3;" points="49.533,198.775 49.533,429.268 462.474,429.268 462.474,198.775 256.002,69.92 "/>
<polygon style="opacity:0.1;enable-background:new    ;" points="256.002,69.92 49.533,198.775 49.533,245.504 256.002,116.649 
	462.474,245.504 462.474,198.775 "/>
<rect x="403.758" y="243.457" style="opacity:0.1;enable-background:new    ;" width="58.713" height="28.254"/>
<rect x="323.429" y="371.682" style="opacity:0.1;enable-background:new    ;" width="58.713" height="28.254"/>
<rect x="250.977" y="243.001" style="opacity:0.1;enable-background:new    ;" width="58.713" height="28.254"/>
<rect x="49.533" y="311.948" style="opacity:0.1;enable-background:new    ;" width="58.712" height="28.254"/>
<rect x="95.647" y="210.769" style="opacity:0.1;enable-background:new    ;" width="58.713" height="28.254"/>
<rect x="205.573" y="290.541" style="fill:#D68231;" width="100.845" height="138.728"/>
<g>
	<circle style="fill:#FFFFFF;" cx="255.995" cy="340.274" r="19.753"/>
	<circle style="fill:#FFFFFF;" cx="255.995" cy="173.186" r="42.005"/>
</g>
<path style="opacity:0.2;enable-background:new    ;" d="M255.997,131.181c-23.2,0-42.006,18.805-42.006,42.005
	c0,2.533,0.237,5.009,0.666,7.416c3.505-19.659,20.673-34.586,41.339-34.586c20.667,0,37.835,14.926,41.338,34.586
	c0.429-2.408,0.666-4.883,0.666-7.416C298.002,149.987,279.197,131.181,255.997,131.181z"/>
<rect x="205.573" y="290.541" style="opacity:0.1;enable-background:new    ;" width="100.845" height="17.534"/>
<rect x="85.914" y="257.42" style="fill:#FFFFFF;" width="72.16" height="81.553"/>
<rect x="85.914" y="257.42" style="opacity:0.2;enable-background:new    ;" width="72.16" height="17.979"/>
<rect x="353.936" y="257.42" style="fill:#FFFFFF;" width="72.16" height="81.553"/>
<rect x="353.936" y="257.42" style="opacity:0.2;enable-background:new    ;" width="72.16" height="17.979"/>
<path style="fill:#00AD68;" d="M503.656,454.394c0,3.021-2.47,5.489-5.488,5.489H13.833c-3.018,0-5.488-2.469-5.488-5.489v-19.639
	c0-3.018,2.47-5.487,5.488-5.487h484.336c3.018,0,5.488,2.469,5.488,5.487v19.639H503.656z"/>
<rect x="173.808" y="429.27" style="fill:#333E48;" width="164.362" height="30.616"/>
<path style="fill:#FFB819;" d="M482.088,228.571c-3.214,0-6.466-0.869-9.396-2.695L256.002,90.892L39.31,225.878
	c-8.344,5.201-19.323,2.648-24.523-5.696c-5.198-8.344-2.647-19.323,5.698-24.523L246.589,54.811c5.762-3.59,13.063-3.59,18.825,0
	l226.104,140.848c8.344,5.199,10.896,16.178,5.698,24.523C493.841,225.596,488.03,228.571,482.088,228.571z"/>
<g>
	<path style="fill:#218649;" d="M486.555,429.268c0-36.51-29.597-66.105-66.105-66.105s-66.107,29.596-66.107,66.105H486.555z"/>
	<path style="fill:#218649;" d="M25.438,429.268c0-36.51,29.597-66.105,66.107-66.105s66.105,29.596,66.105,66.105H25.438z"/>
</g>
<path style="fill:#1E252B;" d="M498.168,420.923h-3.748c-2.05-18.289-10.744-34.594-23.616-46.434v-140.16
	c3.518,1.689,7.364,2.587,11.284,2.587c9.099,0,17.402-4.607,22.208-12.323c7.623-12.236,3.87-28.393-8.368-36.018L269.826,47.728
	c-4.152-2.587-8.933-3.955-13.825-3.955s-9.673,1.367-13.824,3.954L180.097,86.4V76.224c0-10.735-8.734-19.47-19.47-19.47h-79.55
	c-10.735,0-19.47,8.735-19.47,19.47v83.988l-45.534,28.364c-12.236,7.623-15.99,23.78-8.367,36.017
	c4.809,7.718,13.111,12.324,22.209,12.324c3.916,0,7.76-0.897,11.274-2.582v140.155c-12.872,11.841-21.565,28.146-23.616,46.434
	h-3.741C6.206,420.923,0,427.128,0,434.755v19.639c0,7.627,6.206,13.834,13.833,13.834h484.336c7.627,0,13.833-6.206,13.833-13.834
	v-19.639C512,427.128,505.795,420.923,498.168,420.923z M477.6,420.923H363.298c4.056-27.909,28.135-49.417,57.151-49.417
	C449.465,371.507,473.543,393.014,477.6,420.923z M78.295,76.224c0-1.508,1.274-2.781,2.781-2.781h79.55
	c1.508,0,2.781,1.274,2.781,2.781v20.572l-85.113,53.02C78.295,149.816,78.295,76.224,78.295,76.224z M34.896,218.795
	c-1.504,0.938-3.226,1.433-4.982,1.433c-3.297,0-6.304-1.668-8.044-4.46c-2.757-4.426-1.399-10.269,3.026-13.027L251.002,61.893
	c1.502-0.936,3.231-1.43,5-1.43c1.769,0,3.498,0.494,5,1.431l226.104,140.847c4.426,2.759,5.784,8.603,3.027,13.028
	c-1.739,2.793-4.746,4.459-8.044,4.459c-1.757,0-3.479-0.495-4.983-1.433L260.413,83.809c-2.7-1.682-6.124-1.682-8.824,0
	L34.896,218.795z M91.545,371.507c29.016,0,53.094,21.507,57.151,49.417H34.393C38.45,393.014,62.528,371.507,91.545,371.507z
	 M165.469,451.539H16.689v-13.927h148.781V451.539z M329.835,451.539H182.158v-13.927h147.677V451.539z M213.92,420.923V298.887
	h84.16v122.037h-84.16V420.923z M314.77,420.923V290.542c0-4.609-3.736-8.344-8.344-8.344H205.576c-4.608,0-8.344,3.735-8.344,8.344
	v130.382h-31.717c-4.163-37.136-35.741-66.105-73.97-66.105c-12.113,0-23.548,2.926-33.667,8.081V224.142l198.124-123.419
	l198.115,123.413v138.763c-10.119-5.155-21.554-8.081-33.667-8.081c-38.231,0-69.808,28.97-73.97,66.105H314.77z M495.311,451.539
	H346.524v-13.927h148.787L495.311,451.539L495.311,451.539z M255.997,122.837c-27.763,0-50.35,22.587-50.35,50.349
	s22.587,50.349,50.35,50.349c27.762,0,50.349-22.587,50.349-50.349S283.76,122.837,255.997,122.837z M247.652,205.798
	c-11.867-3.037-21.229-12.401-24.267-24.268h24.267V205.798z M247.652,164.841h-24.267c3.037-11.867,12.4-21.229,24.267-24.268
	V164.841z M264.341,205.798V181.53h24.269C285.571,193.398,276.208,202.759,264.341,205.798z M264.341,164.841v-24.268
	c11.868,3.038,21.23,12.399,24.269,24.268H264.341z M434.427,338.973V257.42c0-4.609-3.736-8.344-8.344-8.344h-72.16
	c-4.608,0-8.344,3.735-8.344,8.344v81.554c0,4.609,3.736,8.344,8.344,8.344h72.16C430.691,347.318,434.427,343.583,434.427,338.973z
	 M417.738,330.629h-55.471v-24.087h55.471V330.629z M417.738,289.853h-55.471v-24.087h55.471V289.853z M158.071,249.075h-72.16
	c-4.608,0-8.344,3.735-8.344,8.344v81.554c0,4.609,3.736,8.344,8.344,8.344h72.16c4.608,0,8.344-3.735,8.344-8.344V257.42
	C166.415,252.81,162.679,249.075,158.071,249.075z M149.726,330.629H94.255v-24.087h55.471L149.726,330.629L149.726,330.629z
	 M149.726,289.853H94.255v-24.087h55.471L149.726,289.853L149.726,289.853z"/>
<g>
</g>
<g>
</g>
<g>
</g>
<g>
</g>
<g>
</g>
<g>
</g>
<g>
</g>
<g>
</g>
<g>
</g>
<g>
</g>
<g>
</g>
<g>
</g>
<g>
</g>
<g>
</g>
<g>
</g>
</svg>
