<?xml version="1.0" encoding="iso-8859-1"?>
<!-- Generator: Adobe Illustrator 16.0.0, SVG Export Plug-In . SVG Version: 6.00 Build 0)  -->
<!DOCTYPE svg PUBLIC "-//W3C//DTD SVG 1.1//EN" "http://www.w3.org/Graphics/SVG/1.1/DTD/svg11.dtd">
<svg version="1.1" id="Capa_1" xmlns="http://www.w3.org/2000/svg" xmlns:xlink="http://www.w3.org/1999/xlink" x="0px" y="0px"
	 width="32px" height="32px" viewBox="0 0 32 32" style="enable-background:new 0 0 32 32;" xml:space="preserve">
<g>
	<g>
		<polygon points="12.974,10.732 16.98,5.994 22.093,12.225 25.12,12.581 27.855,8.512 31.135,14.032 32,14.032 28.193,7.617 
			20.367,8.912 17.143,5.079 3.051,9.098 0,12.587 0,13.311 		"/>
		<path d="M27.839,9.104l-2.563,3.815l-3.348-0.395L16.977,6.49l-3.833,4.532l-11.99,2.383v12.133l11.905,1.383l7.863-0.803v0.002
			l1.325-0.096v-6.871l3.194,0.096v6.546l1.834-0.132l0,0l3.584-0.404V14.193L27.839,9.104z M9.035,13.195l2.292-0.375v1.702
			l-2.292,0.295V13.195z M9.035,16.104l2.292-0.232v1.702l-2.292,0.151V16.104z M5.546,13.773L7.5,13.454v1.569l-1.954,0.251V13.773
			z M5.546,16.466L7.5,16.267v1.569l-1.954,0.13V16.466z M2.545,14.27l1.688-0.275v1.455l-1.688,0.217V14.27z M2.545,16.774
			l1.688-0.17v1.455l-1.688,0.111V16.774z M2.53,19.247l1.686-0.066v1.455L2.53,20.644V19.247z M4.248,23.263L2.56,23.164v-1.397
			l1.688,0.039V23.263z M5.528,19.122l1.953-0.078v1.568l-1.953,0.01V19.122z M7.519,23.443l-1.956-0.112v-1.502l1.956,0.045V23.443
			z M9.016,18.976l2.289-0.092v1.7l-2.289,0.013V18.976z M11.349,23.656l-2.293-0.132v-1.623l2.293,0.053V23.656z M19,13.402
			l2.046,0.339v1.587L19,15.064V13.402z M15.21,12.799l2.396,0.396v1.713l-2.396-0.307V12.799z M15.181,15.81l2.399,0.248v1.714
			l-2.399-0.158V15.81z M17.602,23.552l-2.397,0.141V21.89l2.397-0.053V23.552z M17.627,20.683l-2.395-0.008v-1.802l2.395,0.097
			V20.683z M18.145,11.178l-1.735-0.371V8.618l1.735,0.45V11.178z M18.977,16.181l2.047,0.213v1.586l-2.047-0.137V16.181z
			 M21.041,23.327l-2.046,0.119v-1.663l2.046-0.043V23.327z M21.062,20.674l-2.043-0.008v-1.662l2.043,0.084V20.674z M28.611,14.984
			l1.275,0.212v1.259l-1.275-0.165V14.984z M26.312,14.621l1.443,0.239v1.338l-1.443-0.186V14.621z M26.296,16.946l1.444,0.15v1.338
			l-1.444-0.098V16.946z M27.753,22.943l-1.444,0.084v-1.392l1.444-0.031V22.943z M27.77,20.706L26.327,20.7V19.31l1.442,0.059
			V20.706z M28.339,13.073l-1.021-0.224v-1.671l1.021,0.27V13.073z M28.596,17.167l1.276,0.133v1.26l-1.276-0.086V17.167z
			 M29.884,22.802l-1.276,0.074v-1.307l1.276-0.026V22.802z M29.896,20.696l-1.273-0.006v-1.305l1.273,0.051V20.696z"/>
	</g>
</g>
<g>
</g>
<g>
</g>
<g>
</g>
<g>
</g>
<g>
</g>
<g>
</g>
<g>
</g>
<g>
</g>
<g>
</g>
<g>
</g>
<g>
</g>
<g>
</g>
<g>
</g>
<g>
</g>
<g>
</g>
</svg>
