<?xml version="1.0" encoding="iso-8859-1"?>
<!-- Generator: Adobe Illustrator 19.0.0, SVG Export Plug-In . SVG Version: 6.00 Build 0)  -->
<svg version="1.1" id="Layer_1" xmlns="http://www.w3.org/2000/svg" xmlns:xlink="http://www.w3.org/1999/xlink" x="0px" y="0px"
	 viewBox="0 0 512 512" style="enable-background:new 0 0 512 512;" xml:space="preserve">
<g>
	<polygon style="fill:#DBB5AC;" points="335.448,105.931 248.647,158.014 353.103,220.69 353.103,264.828 326.621,248.938 
		326.621,397.241 485.517,397.241 485.517,195.972 	"/>
	<polygon style="fill:#BF7460;" points="176.552,158.897 26.483,248.938 26.483,450.207 326.621,450.207 326.621,248.938 	"/>
	<polygon style="fill:#366A7D;" points="220.69,450.207 291.31,450.207 291.31,308.966 220.69,308.966 	"/>
	<path style="fill:#235360;" d="M264.828,388.414H256c-4.873,0-8.828-3.955-8.828-8.828s3.955-8.828,8.828-8.828h8.828
		c4.873,0,8.828,3.955,8.828,8.828S269.7,388.414,264.828,388.414"/>
	<polygon style="fill:#A05748;" points="176.552,114.759 0,220.69 0,264.828 176.552,158.897 353.103,264.828 353.103,220.69 	"/>
	<polygon style="fill:#366A7D;" points="61.793,361.931 185.379,361.931 185.379,273.655 61.793,273.655 	"/>
	<polygon style="fill:#A05748;" points="26.483,423.724 220.69,423.724 220.69,406.069 26.483,406.069 	"/>
	<polygon style="fill:#366A7D;" points="379.586,397.241 450.207,397.241 450.207,256 379.586,256 	"/>
	<path style="fill:#235360;" d="M423.724,335.448h-8.828c-4.873,0-8.828-3.955-8.828-8.828s3.955-8.828,8.828-8.828h8.828
		c4.873,0,8.828,3.955,8.828,8.828S428.597,335.448,423.724,335.448"/>
	<polygon style="fill:#BF7460;" points="335.448,61.793 211.862,135.945 248.647,158.014 335.448,105.931 512,211.862 512,167.724 	
		"/>
	<g>
		<polygon style="fill:#A05748;" points="291.31,423.724 326.621,423.724 326.621,406.069 291.31,406.069 		"/>
		<polygon style="fill:#A05748;" points="326.621,370.759 379.586,370.759 379.586,353.103 326.621,353.103 		"/>
		<polygon style="fill:#A05748;" points="450.207,370.759 485.517,370.759 485.517,353.103 450.207,353.103 		"/>
	</g>
	<g>
		<polygon style="fill:#235360;" points="114.759,361.931 132.414,361.931 132.414,273.655 114.759,273.655 		"/>
		<polygon style="fill:#235360;" points="61.793,326.621 185.379,326.621 185.379,308.966 61.793,308.966 		"/>
	</g>
	<path style="fill:#A05748;" d="M194.207,370.759H52.966c-4.873,0-8.828-3.955-8.828-8.828s3.955-8.828,8.828-8.828h141.241
		c4.873,0,8.828,3.955,8.828,8.828S199.08,370.759,194.207,370.759"/>
</g>
<g>
</g>
<g>
</g>
<g>
</g>
<g>
</g>
<g>
</g>
<g>
</g>
<g>
</g>
<g>
</g>
<g>
</g>
<g>
</g>
<g>
</g>
<g>
</g>
<g>
</g>
<g>
</g>
<g>
</g>
</svg>
