<?xml version="1.0" encoding="iso-8859-1"?>
<!-- Generator: Adobe Illustrator 19.0.0, SVG Export Plug-In . SVG Version: 6.00 Build 0)  -->
<svg version="1.1" id="Layer_1" xmlns="http://www.w3.org/2000/svg" xmlns:xlink="http://www.w3.org/1999/xlink" x="0px" y="0px"
	 viewBox="0 0 511.999 511.999" style="enable-background:new 0 0 511.999 511.999;" xml:space="preserve">
<path style="fill:#F3437F;" d="M488.072,334.525l-42.067,107.826c-8.444,21.644-35.415,39.352-59.934,39.352H125.93
	c-24.521,0-51.49-17.708-59.934-39.352L23.928,334.525H488.072z"/>
<path style="fill:#10BAFC;" d="M501.551,324.076c0,5.77-4.679,10.449-10.449,10.449H20.898c-5.771,0-10.449-4.679-10.449-10.449
	V304.32c0-5.771,4.678-10.449,10.449-10.449h470.204c5.77,0,10.449,4.678,10.449,10.449V324.076z"/>
<g>
	<path style="fill:#BDEFFF;" d="M42.583,293.871h432.815c0.013-0.481,0.037-0.959,0.037-1.443c0-31.073-25.189-56.265-56.265-56.265
		c-9.899,0-19.195,2.565-27.276,7.053c0.003-0.234,0.018-0.464,0.018-0.699c0-31.195-25.288-56.484-56.484-56.484
		c-26.908,0-49.405,18.822-55.085,44.014c-7.373-11.426-20.205-18.997-34.814-18.997c-5.544,0-10.829,1.098-15.662,3.073
		c-10.761-26.324-36.612-44.88-66.809-44.88c-39.853,0-72.162,32.308-72.162,72.161c0,5.374,0.606,10.603,1.72,15.641
		c-0.223-0.002-0.443-0.017-0.667-0.017C68.603,257.029,48.896,272.572,42.583,293.871z"/>
	<circle style="fill:#BDEFFF;" cx="259.009" cy="126.411" r="25.078"/>
	<circle style="fill:#BDEFFF;" cx="420.007" cy="136.912" r="25.078"/>
	<circle style="fill:#BDEFFF;" cx="343.782" cy="60.598" r="30.302"/>
</g>
<path d="M239.245,401.225h-0.244c-5.771,0-10.449-4.679-10.449-10.449c0-5.771,4.678-10.449,10.449-10.449h0.244
	c5.771,0,10.449,4.678,10.449,10.449C249.694,396.546,245.016,401.225,239.245,401.225z"/>
<path d="M205.196,401.225H103.704c-5.771,0-10.449-4.679-10.449-10.449c0-5.771,4.678-10.449,10.449-10.449h101.492
	c5.771,0,10.449,4.678,10.449,10.449C215.645,396.546,210.967,401.225,205.196,401.225z"/>
<path d="M491.102,283.422h-5.843c-4.414-32.54-32.358-57.708-66.089-57.708c-6.214,0-12.391,0.874-18.333,2.57
	c-6.543-30.092-33.387-52.7-65.41-52.7c-15.281,0-30.225,5.288-42.079,14.889c-6.94,5.622-12.666,12.582-16.86,20.366
	c-8.81-6.57-19.597-10.238-30.959-10.238c-3.411,0-6.778,0.33-10.081,0.983c-14.403-26.273-41.888-42.79-72.389-42.79
	c-45.551,0-82.611,37.058-82.611,82.61c0,2.071,0.079,4.149,0.238,6.224c-19.914,3.739-37.064,17.194-45.352,35.793H20.898
	C9.375,283.422,0,292.797,0,304.32v19.756c0,10.055,7.14,18.472,16.615,20.453l39.644,101.62
	c10.064,25.796,40.666,46.003,69.67,46.003H386.07c29.003,0,59.605-20.207,69.669-46.003l39.646-101.62
	c9.475-1.981,16.615-10.398,16.615-20.453V304.32C512,292.796,502.625,283.422,491.102,283.422z M91.943,267.48
	c0.001,0,0.003,0,0.004,0c0.19,0.006,0.38,0.013,0.572,0.015c3.194,0.031,6.209-1.394,8.214-3.867
	c2.006-2.473,2.774-5.726,2.087-8.837c-0.978-4.423-1.473-8.927-1.473-13.386c0-34.028,27.685-61.712,61.713-61.712
	c25.177,0,47.603,15.067,57.136,38.385c2.184,5.342,8.285,7.9,13.625,5.719c3.728-1.525,7.667-2.297,11.709-2.297
	c10.559,0,20.292,5.313,26.034,14.214c2.282,3.537,6.461,5.362,10.606,4.623c4.143-0.735,7.442-3.885,8.368-7.989
	c4.684-20.781,23.565-35.863,44.891-35.863c25.384,0,46.035,20.651,46.035,45.962l-0.004,0.107
	c-0.005,0.176-0.011,0.352-0.014,0.529c-0.049,3.726,1.89,7.196,5.09,9.107c3.199,1.911,7.172,1.975,10.431,0.164
	c6.759-3.754,14.437-5.739,22.202-5.739c22.18,0,40.73,15.845,44.926,36.81H59.515C67.152,273.624,79.075,267.48,91.943,267.48z
	 M20.898,304.32h470.204l0.013,19.756c0,0-0.004,0-0.013,0H20.898V304.32z M436.271,438.553
	c-6.915,17.726-29.905,32.701-50.2,32.701H125.93c-20.296,0-43.285-14.975-50.201-32.701l-36.508-93.58H472.78L436.271,438.553z"/>
<path d="M259.008,161.943c19.59,0,35.527-15.937,35.527-35.527S278.598,90.89,259.008,90.89c-19.59,0-35.527,15.937-35.527,35.527
	S239.419,161.943,259.008,161.943z M259.008,111.788c8.067,0,14.629,6.562,14.629,14.629s-6.562,14.629-14.629,14.629
	c-8.067,0-14.629-6.562-14.629-14.629S250.942,111.788,259.008,111.788z"/>
<path d="M420.006,172.436c19.589,0,35.527-15.937,35.527-35.527s-15.938-35.527-35.527-35.527c-19.59,0-35.527,15.937-35.527,35.527
	S400.416,172.436,420.006,172.436z M420.006,122.281c8.067,0,14.629,6.562,14.629,14.629s-6.562,14.629-14.629,14.629
	s-14.629-6.562-14.629-14.629C405.378,128.843,411.94,122.281,420.006,122.281z"/>
<path d="M343.784,101.349c22.471,0,40.751-18.28,40.751-40.751s-18.28-40.751-40.751-40.751c-22.471,0-40.751,18.28-40.751,40.751
	C303.033,83.068,321.313,101.349,343.784,101.349z M343.784,40.745c10.947,0,19.853,8.906,19.853,19.853
	s-8.906,19.853-19.853,19.853s-19.853-8.906-19.853-19.853S332.837,40.745,343.784,40.745z"/>
<g>
</g>
<g>
</g>
<g>
</g>
<g>
</g>
<g>
</g>
<g>
</g>
<g>
</g>
<g>
</g>
<g>
</g>
<g>
</g>
<g>
</g>
<g>
</g>
<g>
</g>
<g>
</g>
<g>
</g>
</svg>
