<?xml version="1.0" encoding="iso-8859-1"?>
<!-- Generator: Adobe Illustrator 19.0.0, SVG Export Plug-In . SVG Version: 6.00 Build 0)  -->
<svg version="1.1" id="Layer_1" xmlns="http://www.w3.org/2000/svg" xmlns:xlink="http://www.w3.org/1999/xlink" x="0px" y="0px"
	 viewBox="0 0 353.975 353.975" style="enable-background:new 0 0 353.975 353.975;" xml:space="preserve">
<path style="fill:#FFDD09;" d="M120.731,18.963c-14.538,0-26.548,13.906-26.548,31.605l0.632,208.593h111.249v44.247
	c0,18.331,5.057,30.341,19.595,31.605c17.699,0,33.501-17.067,33.501-37.926V50.568c0-18.331,10.114-29.709,25.284-31.605l0,0
	H120.731z"/>
<g>
	<path style="fill:#54C9FD;" d="M221.235,189.63c-20.859,0-37.926,17.067-37.926,37.926c0,13.274,6.953,24.652,17.067,31.605h8.217
		v4.425c3.793,1.264,8.217,1.896,12.642,1.896c20.859,0,37.926-17.067,37.926-37.926S242.094,189.63,221.235,189.63"/>
	<path style="fill:#54C9FD;" d="M221.235,265.481c-4.425,0-8.849-0.632-12.642-2.528v30.973l12.642-9.481l25.284,18.963V256
		C239.565,261.689,230.716,265.481,221.235,265.481"/>
</g>
<path style="fill:#FD9808;" d="M347.654,50.568c0-18.963-15.802-31.605-34.765-31.605c-18.963,0-34.765,12.642-34.765,31.605v56.889
	h69.531V50.568z"/>
<path style="fill:#FCC309;" d="M328.691,50.568c0-18.963-15.802-31.605-34.765-31.605c-18.963,0-34.765,12.642-34.765,31.605v56.889
	h69.531V50.568z"/>
<path style="fill:#FFFFFF;" d="M208.593,303.407V259.16H75.852H37.926H6.321v44.247c0,18.331,13.906,30.341,31.605,31.605h202.272
	C222.499,333.748,208.593,321.738,208.593,303.407"/>
<path style="fill:#FCC309;" d="M205.432,303.407V259.16H87.23H53.728H25.284v44.247c0,18.331,12.642,30.341,28.444,31.605h180.148
	C218.074,333.748,205.432,321.738,205.432,303.407"/>
<path style="fill:#FD9808;" d="M284.444,18.963L284.444,18.963c-14.538,1.896-25.284,13.274-25.284,31.605v246.519
	c0,17.699-11.378,32.869-25.916,36.662c1.896,0.632,4.425,0.632,6.953,1.264c20.859,0,37.926-17.067,37.926-37.926V50.568
	c0-18.331,13.906-29.709,31.605-31.605l0,0H284.444z"/>
<path style="fill:#FFFFFF;" d="M120.731,18.963h-13.274c-17.699,0-31.605,13.906-31.605,31.605V259.16h18.963L94.183,50.568
	C94.183,32.869,106.193,18.963,120.731,18.963"/>
<path d="M353.975,113.778h-82.173v-63.21c0-21.491,17.699-37.926,41.086-37.926s41.086,16.435,41.086,37.926V113.778z
	 M284.444,101.136h56.889V50.568c0-16.435-14.538-25.284-28.444-25.284c-13.906,0-28.444,8.849-28.444,25.284V101.136z"/>
<path d="M240.198,341.333H37.926C15.17,339.437,0,324.267,0,303.407V252.84h214.914v50.568c0,13.906,10.746,24.02,25.916,25.284
	L240.198,341.333z M12.642,265.481v37.926c0,13.906,10.746,24.02,25.916,25.284h173.827c-6.321-6.321-9.481-15.17-9.481-25.284
	v-37.926H12.642z"/>
<path d="M240.198,341.333c-22.756-1.896-37.926-17.067-37.926-37.926v-37.926H69.531V50.568c0-20.859,17.067-37.926,37.926-37.926
	h208.593v12.01l-5.689,0.632c-12.642,1.264-25.916,9.481-25.916,25.284v246.519C284.444,321.738,264.849,341.333,240.198,341.333z
	 M82.173,252.84h132.741v50.568c0,13.906,10.746,24.02,25.916,25.284c17.067,0,30.973-13.906,30.973-31.605V50.568
	c0-10.114,3.793-18.963,10.114-25.284H107.457c-13.906,0-25.284,11.378-25.284,25.284V252.84z"/>
<path d="M176.988,88.494h-63.21c-3.793,0-6.321-2.528-6.321-6.321c0-3.793,2.528-6.321,6.321-6.321h63.21
	c3.793,0,6.321,2.528,6.321,6.321C183.309,85.965,180.78,88.494,176.988,88.494z"/>
<path d="M240.198,120.099h-126.42c-3.793,0-6.321-2.528-6.321-6.321s2.528-6.321,6.321-6.321h126.42
	c3.793,0,6.321,2.528,6.321,6.321S243.99,120.099,240.198,120.099z"/>
<path d="M221.235,151.704H113.778c-3.793,0-6.321-2.528-6.321-6.321c0-3.793,2.528-6.321,6.321-6.321h107.457
	c3.793,0,6.321,2.528,6.321,6.321C227.556,149.175,225.027,151.704,221.235,151.704z"/>
<path d="M183.309,183.309h-69.531c-3.793,0-6.321-2.528-6.321-6.321s2.528-6.321,6.321-6.321h69.531
	c3.793,0,6.321,2.528,6.321,6.321S187.101,183.309,183.309,183.309z"/>
<path d="M158.025,214.914h-44.247c-3.793,0-6.321-2.528-6.321-6.321c0-3.793,2.528-6.321,6.321-6.321h44.247
	c3.793,0,6.321,2.528,6.321,6.321C164.346,212.385,161.817,214.914,158.025,214.914z"/>
<path d="M221.235,271.802c-5.057,0-10.114-0.632-14.538-2.528c-1.896-0.632-3.16-1.896-3.793-3.793h-2.528
	c-1.264,0-2.528-0.632-3.793-1.264c-12.642-8.217-19.595-22.123-19.595-36.662c0-24.652,19.595-44.247,44.247-44.247
	s44.247,19.595,44.247,44.247S245.886,271.802,221.235,271.802z M214.914,258.528c1.896,0.632,4.425,0.632,6.321,0.632
	c17.699,0,31.605-13.906,31.605-31.605s-13.906-31.605-31.605-31.605s-31.605,13.906-31.605,31.605
	c0,10.114,4.425,19.595,12.642,25.284h6.321C211.753,252.84,214.281,255.368,214.914,258.528z"/>
<path d="M246.519,309.728c-1.264,0-2.528-0.632-3.793-1.264l-21.491-15.802l-8.849,6.321c-1.896,1.264-4.425,1.896-6.321,0.632
	c-1.896-1.264-3.793-3.16-3.793-5.689v-30.973c0-1.896,1.264-3.793,2.528-5.057c1.896-1.264,3.793-1.264,5.689-0.632
	c11.378,3.793,23.388,1.264,31.605-6.321c1.896-1.896,4.425-1.896,6.953-1.264c2.528,1.264,3.793,3.16,3.793,5.689v48.039
	c0,2.528-1.264,4.425-3.793,5.689C248.415,309.728,247.783,309.728,246.519,309.728z M221.235,278.123
	c1.264,0,2.528,0.632,3.793,1.264l15.17,11.378v-23.388c-7.585,3.793-16.435,5.057-25.284,3.793v10.114l2.528-1.896
	C218.706,278.756,219.97,278.123,221.235,278.123z"/>
<g>
</g>
<g>
</g>
<g>
</g>
<g>
</g>
<g>
</g>
<g>
</g>
<g>
</g>
<g>
</g>
<g>
</g>
<g>
</g>
<g>
</g>
<g>
</g>
<g>
</g>
<g>
</g>
<g>
</g>
</svg>
