<?xml version="1.0" encoding="iso-8859-1"?>
<!-- Generator: Adobe Illustrator 19.0.0, SVG Export Plug-In . SVG Version: 6.00 Build 0)  -->
<svg version="1.1" id="Layer_1" xmlns="http://www.w3.org/2000/svg" xmlns:xlink="http://www.w3.org/1999/xlink" x="0px" y="0px"
	 viewBox="0 0 512 512" style="enable-background:new 0 0 512 512;" xml:space="preserve">
<polygon style="fill:#FF9811;" points="384.83,436.224 309.055,360.449 283.796,385.707 132.245,234.157 157.504,208.897 
	81.728,133.122 5.953,208.897 14.372,250.995 266.958,503.582 309.055,512 "/>
<polygon style="fill:#78B9EB;" points="506.047,0 220.279,0 220.279,190.512 270.288,190.512 256,261.953 356.019,190.512 
	506.047,190.512 "/>
<rect x="363.163" style="fill:#3C5D76;" width="142.884" height="190.512"/>
<rect x="256" y="71.442" style="fill:#FFFFFF;" width="47.628" height="47.628"/>
<rect x="422.698" y="71.442" style="fill:#C9E3F7;" width="47.628" height="47.628"/>
<polygon style="fill:#FFFFFF;" points="363.163,119.07 339.349,119.07 339.349,71.442 363.163,71.442 375.07,95.256 "/>
<rect x="363.163" y="71.442" style="fill:#C9E3F7;" width="23.814" height="47.628"/>
<polygon style="fill:#FF5023;" points="309.055,360.449 283.796,385.707 256,357.912 256,492.624 266.958,503.582 309.055,512 
	384.83,436.224 "/>
<g>
</g>
<g>
</g>
<g>
</g>
<g>
</g>
<g>
</g>
<g>
</g>
<g>
</g>
<g>
</g>
<g>
</g>
<g>
</g>
<g>
</g>
<g>
</g>
<g>
</g>
<g>
</g>
<g>
</g>
</svg>
