<?xml version="1.0" encoding="iso-8859-1"?>
<!-- Generator: Adobe Illustrator 19.0.0, SVG Export Plug-In . SVG Version: 6.00 Build 0)  -->
<svg version="1.1" id="Layer_1" xmlns="http://www.w3.org/2000/svg" xmlns:xlink="http://www.w3.org/1999/xlink" x="0px" y="0px"
	 viewBox="0 0 511.997 511.997" style="enable-background:new 0 0 511.997 511.997;" xml:space="preserve">
<path style="fill:#FBB049;" d="M231.915,207.984V35.931c0-15.469,12.54-28.009,28.009-28.009l0,0
	c15.469,0,28.009,12.54,28.009,28.009v172.053"/>
<g>
	<path style="fill:#FA9C1C;" d="M231.915,207.984V35.931c0-15.469,12.54-28.009,28.009-28.009l0,0v200.061
		C259.923,207.984,231.915,209.361,231.915,207.984z"/>
	<path style="fill:#FA9C1C;" d="M381.858,296.011c67.456,0,122.14,54.684,122.14,122.14v61.916H399.966v-40.012
		c0-22.099-17.914-40.012-40.012-40.012H63.863V296.011L381.858,296.011"/>
</g>
<path style="fill:#FBB049;" d="M343.949,296.011c0,0,160.049,24.007,120.037,184.056h40.012
	C503.997,480.067,544.01,282.006,343.949,296.011z"/>
<circle style="fill:#7B7B53;" cx="255.92" cy="344.022" r="80.027"/>
<circle style="fill:#FFFFFF;" cx="255.92" cy="344.022" r="56.016"/>
<rect x="7.847" y="264.005" style="fill:#5A5A28;" width="32.01" height="168.047"/>
<g>
	<path style="fill:#1D1D1B;" d="M47.703,439.899H0V258.14h47.703V439.899z M15.694,424.205H32.01V273.834H15.694V424.205z"/>
	<path style="fill:#1D1D1B;" d="M255.922,407.889c-35.214,0-63.864-28.649-63.864-63.864s28.649-63.863,63.864-63.863
		s63.863,28.649,63.863,63.863S291.137,407.889,255.922,407.889z M255.922,295.855c-26.561,0-48.171,21.609-48.171,48.17
		c0,26.561,21.609,48.171,48.171,48.171c26.561,0,48.17-21.609,48.17-48.171C304.093,317.464,282.483,295.855,255.922,295.855z"/>
	<rect x="391.962" y="496.228" style="fill:#1D1D1B;" width="120.035" height="15.694"/>
	<path style="fill:#1D1D1B;" d="M381.858,288.164h-58.155c-14.564-17.641-35.873-29.501-59.935-31.641v-16.685h32.166v-15.694
		h-72.022v15.694h24.163v16.685c-24.061,2.141-45.37,14.001-59.935,31.641H71.71v-8.158H56.017v136.041H71.71v-8.159h123.951
		c15.745,14.865,36.949,24.007,60.261,24.007c23.311,0,44.515-9.142,60.261-24.007h43.77c17.736,0,32.165,14.43,32.165,32.165
		v47.859h119.726v-69.763C511.845,346.475,453.533,288.164,381.858,288.164z M71.71,303.858h106.099
		c-6.221,12.048-9.758,25.699-9.758,40.168c0,17.777,5.322,34.326,14.434,48.171H71.71V303.858z M255.922,416.202
		c-39.799,0-72.178-32.379-72.178-72.178s32.379-72.178,72.178-72.178s72.178,32.379,72.178,72.178S295.721,416.202,255.922,416.202
		z M496.152,472.22h-88.339v-32.165c0-26.39-21.469-47.859-47.859-47.859H329.36c9.112-13.844,14.434-30.393,14.434-48.171
		c0-14.468-3.537-28.119-9.758-40.168h47.822c63.021,0,114.293,51.271,114.293,114.293v54.071H496.152z"/>
	<path style="fill:#1D1D1B;" d="M303.937,200.137h-8.159V35.931c0-19.771-16.085-35.856-35.856-35.856s-35.856,16.085-35.856,35.856
		v164.206h-8.158v15.694h88.027V200.137z M239.761,35.931c0-11.117,9.045-20.162,20.162-20.162c11.117,0,20.162,9.045,20.162,20.162
		v164.206h-40.324L239.761,35.931L239.761,35.931z"/>
	<polygon style="fill:#1D1D1B;" points="267.349,321.5 255.922,332.928 244.495,321.5 233.398,332.598 244.826,344.025 
		233.398,355.453 244.495,366.549 255.922,355.122 267.349,366.549 278.446,355.453 267.018,344.025 278.446,332.598 	"/>
</g>
<g>
</g>
<g>
</g>
<g>
</g>
<g>
</g>
<g>
</g>
<g>
</g>
<g>
</g>
<g>
</g>
<g>
</g>
<g>
</g>
<g>
</g>
<g>
</g>
<g>
</g>
<g>
</g>
<g>
</g>
</svg>
