<?xml version="1.0" encoding="iso-8859-1"?>
<!-- Generator: Adobe Illustrator 19.0.0, SVG Export Plug-In . SVG Version: 6.00 Build 0)  -->
<svg version="1.1" id="Layer_1" xmlns="http://www.w3.org/2000/svg" xmlns:xlink="http://www.w3.org/1999/xlink" x="0px" y="0px"
	 viewBox="0 0 480.38 480.38" style="enable-background:new 0 0 480.38 480.38;" xml:space="preserve">
<g id="XMLID_1_">
	<path style="fill:#FFCD00;" d="M389.48,256.54c18.74,0,33.98,15.24,33.98,33.97c0,18.74-15.24,33.98-33.98,33.98h-77.31v-67.95
		H389.48z"/>
	<path style="fill:#FFCD00;" d="M352.58,178.59c18.73,0,33.97,15.24,33.97,33.98c0,18.73-15.24,33.97-33.97,33.97h-40.41v-67.95
		H352.58z"/>
	<path style="fill:#FFCD00;" d="M352.58,334.49c18.73,0,33.97,15.24,33.97,33.97c0,18.73-15.24,33.98-33.97,33.98h-40.41v-67.95
		H352.58z"/>
	<path style="fill:#FFCD00;" d="M312.17,412.44c18.74,0,33.98,15.24,33.98,33.97s-15.24,33.97-33.98,33.97V412.44z"/>
	<path style="fill:#FFDA44;" d="M204.32,178.59v-8.04l1.29-1.43c33.66-37.13,52.2-85.13,52.2-135.15C257.81,15.24,242.57,0,223.83,0
		c-18.73,0-33.97,15.24-33.97,33.97c0,48.69-27.2,93.8-70.98,117.74c-38.22,20.89-61.96,62-61.96,107.29v97.21
		c0,68.47,55.71,124.17,124.17,124.17h131.08V178.59H204.32z"/>
</g>
<g>
</g>
<g>
</g>
<g>
</g>
<g>
</g>
<g>
</g>
<g>
</g>
<g>
</g>
<g>
</g>
<g>
</g>
<g>
</g>
<g>
</g>
<g>
</g>
<g>
</g>
<g>
</g>
<g>
</g>
</svg>
