<?xml version="1.0" encoding="iso-8859-1"?>
<!-- Generator: Adobe Illustrator 19.0.0, SVG Export Plug-In . SVG Version: 6.00 Build 0)  -->
<svg xmlns="http://www.w3.org/2000/svg" xmlns:xlink="http://www.w3.org/1999/xlink" version="1.1" id="Layer_1" x="0px" y="0px" viewBox="0 0 400.877 400.877" style="enable-background:new 0 0 400.877 400.877;" xml:space="preserve" width="512" height="512">
<g>
	<path style="fill:#E6E6E6;" d="M313.693,172.667c-0.03,4.23-0.29,8.4-0.78,12.5c-3.05,26.08-14.96,49.46-32.66,67.02   c-8.5,8.45-18.33,15.55-29.16,20.97c-15.24,7.64-32.45,11.94-50.65,11.94c-18.21,0-35.41-4.3-50.65-11.94v-0.01   c-33.35-16.69-57.3-49.37-61.83-87.98c-0.49-4.1-0.75-8.27-0.78-12.5H313.693z"/>
	<path style="fill:#E6E6E6;" d="M263.863,400.877h-126.85l11.58-115.69l1.2-12.03c10.52,5.27,21.96,8.95,34.03,10.73   c5.43,0.8,10.98,1.21,16.62,1.21c18.2,0,35.41-4.3,50.65-11.94l1.2,12.05L263.863,400.877z"/>
	<path style="fill:#F24125;" d="M219.744,19.953h-38.597V5.79c0-3.198,2.592-5.79,5.79-5.79h27.017c3.198,0,5.79,2.592,5.79,5.79   V19.953z"/>
	<path style="fill:#DD3B2A;" d="M190.411,0v19.953h-9.264V5.79c0-3.198,2.592-5.79,5.79-5.79H190.411"/>
	<path style="fill:#E6E6E6;" d="M280.022,36.758l21.144,116.315H99.725L120.87,36.758c2.137-11.757,12.373-20.305,24.321-20.305   h35.956h38.597H255.7C267.649,16.453,277.885,25,280.022,36.758"/>
	<path style="fill:#CCCCCC;" d="M173.858,16.453h-28.667c-11.949,0-22.185,8.548-24.321,20.305L99.725,153.073h28.667   l21.144-116.315C151.673,25,161.91,16.453,173.858,16.453z"/>
	<path style="fill:#CCCCCC;" d="M313.693,172.667H87.183c0.009,1.274,0.046,2.541,0.097,3.804c0.012,0.291,0.028,0.581,0.042,0.872   c0.047,0.98,0.106,1.957,0.179,2.931c0.025,0.337,0.049,0.675,0.077,1.011c0.076,0.915,0.166,1.826,0.265,2.735   c0.04,0.369,0.073,0.741,0.117,1.109c0.001,0.012,0.002,0.025,0.004,0.038h0.001c4.534,38.615,28.482,71.291,61.824,87.977v0.012   c0.001,0.001,0.003,0.001,0.004,0.002l-12.78,127.719h35.1l10.463-104.531c5.821,0.922,11.786,1.411,17.867,1.411   c18.2,0,35.41-4.29,50.65-11.93c0.4-0.2,0.8-0.4,1.2-0.62l-1.2-12.05c-0.277,0.139-0.566,0.279-0.865,0.421   c-14.717,6.965-31.879,6.964-46.592-0.009c-0.293-0.139-0.576-0.276-0.848-0.413v-0.012   c-33.342-16.686-57.291-49.362-61.824-87.977h171.949C313.403,181.067,313.663,176.897,313.693,172.667z"/>
	<path style="fill:#F24125;" d="M328.393,163.067v0.95c0,1.09-0.14,2.14-0.4,3.15c-1.39,5.47-6.35,9.5-12.24,9.5H87.183   c-4.06,0-7.74-1.64-10.4-4.3c-1.46-1.46-2.61-3.23-3.35-5.2c-0.62-1.62-0.95-3.37-0.95-5.2v-0.95c0-6.98,5.66-12.64,12.65-12.64   h228.57C321.823,148.377,328.393,154.957,328.393,163.067z"/>
	<path style="fill:#DD3B2A;" d="M107.793,167.167c-2.867,0-5.298-2.274-5.309-5.141c0-0.018,0-0.037,0-0.055v-0.951   c0-6.981,5.661-12.642,12.653-12.642h-30c-6.993,0-12.653,5.661-12.653,12.642v0.951c0,7.821,6.112,14.197,13.818,14.655   c0.202,0.024,0.462,0.037,0.784,0.04c0.033,0,0.065,0.005,0.099,0.005h30c-0.024,0-0.048-0.004-0.073-0.004h198.642   c5.89,0,10.85-4.03,12.24-9.5H107.793z"/>
</g>















</svg>
