<?xml version="1.0" encoding="iso-8859-1"?>
<!-- Generator: Adobe Illustrator 19.0.0, SVG Export Plug-In . SVG Version: 6.00 Build 0)  -->
<svg version="1.1" id="Layer_1" xmlns="http://www.w3.org/2000/svg" xmlns:xlink="http://www.w3.org/1999/xlink" x="0px" y="0px"
	 viewBox="0 0 490 490" style="enable-background:new 0 0 490 490;" xml:space="preserve">
<g>
	<g id="XMLID_18_">
		<g>
			<path style="fill:#F4661E;" d="M335,322.5c-5.498,0-10-4.502-10-10v-20h50v20c0,5.498-4.502,10-10,10H335z"/>
			<rect x="325" y="262.5" style="fill:#F4661E;" width="50" height="30"/>
			<path style="fill:#F4661E;" d="M335,232.5h30c5.498,0,10,4.502,10,10v20h-50v-20C325,237.002,329.502,232.5,335,232.5z"/>
			<rect x="325" y="162.5" style="fill:#E6E7E8;" width="50" height="30"/>
			<path style="fill:#6D6E71;" d="M200,207.5c24.902,0,45,20.098,45,45s-20.098,45-45,45s-45-20.098-45-45S175.098,207.5,200,207.5z
				"/>
			<path style="fill:#F1F2F2;" d="M200,172.5c44.199,0,80,35.801,80,80s-35.801,80-80,80s-80-35.801-80-80S155.801,172.5,200,172.5z
				 M245,252.5c0-24.902-20.098-45-45-45s-45,20.098-45,45s20.098,45,45,45S245,277.402,245,252.5z"/>
			<path style="fill:#BCBEC0;" d="M325,312.5c0,5.498,4.502,10,10,10h30c5.498,0,10-4.502,10-10v-20v-30v-20c0-5.498-4.502-10-10-10
				h-30c-5.498,0-10,4.502-10,10v20v30V312.5z M75,337.5H20c-5.498,0-10-4.502-10-10v-170c0-5.498,4.502-10,10-10h55v-10
				c0-11.001,9.004-20,20-20h80v-30c0-5.498,4.502-10,10-10h120c5.498,0,10,4.502,10,10v30h80c10.996,0,20,8.999,20,20v10h55
				c5.498,0,10,4.502,10,10v170c0,5.498-4.502,10-10,10h-55v10v35h-20v20c0,5.498-4.502,10-10,10H105c-5.498,0-10-4.502-10-10v-20
				H75v-35V337.5z M375,192.5v-30h-50v30H375z M280,252.5c0-44.199-35.801-80-80-80s-80,35.801-80,80s35.801,80,80,80
				S280,296.699,280,252.5z"/>
		</g>
		<g>
			<path style="fill:#231F20;" d="M200,162.5c-49.626,0-90,40.374-90,90s40.374,90,90,90s90-40.374,90-90S249.626,162.5,200,162.5z
				 M200,322.5c-38.598,0-70-31.402-70-70s31.402-70,70-70s70,31.402,70,70S238.598,322.5,200,322.5z"/>
			<path style="fill:#231F20;" d="M200,197.5c-30.327,0-55,24.673-55,55s24.673,55,55,55s55-24.673,55-55S230.327,197.5,200,197.5z
				 M200,287.5c-19.299,0-35-15.701-35-35s15.701-35,35-35s35,15.701,35,35S219.299,287.5,200,287.5z"/>
			<path style="fill:#231F20;" d="M365,222.5h-30c-11.028,0-20,8.972-20,20v70c0,11.028,8.972,20,20,20h30c11.028,0,20-8.972,20-20
				v-70C385,231.472,376.028,222.5,365,222.5z M365,242.5v10h-30v-10H365z M365,272.5v10h-30v-10H365z M335,312.5v-10h30.001v10H335
				z"/>
			<path style="fill:#231F20;" d="M375,152.5h-50c-5.522,0-10,4.477-10,10v30c0,5.523,4.478,10,10,10h50c5.522,0,10-4.477,10-10v-30
				C385,156.977,380.522,152.5,375,152.5z M365,182.5h-30v-10h30V182.5z"/>
			<path style="fill:#231F20;" d="M470,137.5h-45c0-16.542-13.458-30-30-30h-70v-20c0-11.028-8.972-20-20-20H185
				c-11.028,0-20,8.972-20,20v20H95c-16.542,0-30,13.458-30,30H20c-11.028,0-20,8.972-20,20v170c0,11.028,8.972,20,20,20h45v35
				c0,5.523,4.477,10,10,10h10v10c0,11.028,8.972,20,20,20h280c11.028,0,20-8.972,20-20v-10h10c5.522,0,10-4.477,10-10v-35h45
				c11.028,0,20-8.972,20-20v-170C490,146.472,481.028,137.5,470,137.5z M470,327.5h-45v-15h20c5.522,0,10-4.477,10-10v-125
				c0-5.523-4.478-10-10-10h-30v20h20v105h-10v-85h-20v130v35h-10c-5.522,0-10,4.477-10,10l0.002,20H105v-10h260v-20H95H85v-35
				c0-5.523-4.477-10-10-10H20v-170h45v15H45c-5.523,0-10,4.477-10,10v125c0,5.523,4.477,10,10,10h30v-20H55v-105h10v85h20v-130v-10
				c0-5.514,4.486-10,10-10h80h110v-20H185v-20h120v30c0,5.523,4.478,10,10,10h80c5.514,0,10,4.486,10,10v10c0,5.523,4.478,10,10,10
				h55V327.5z"/>
		</g>
	</g>
</g>
<g>
</g>
<g>
</g>
<g>
</g>
<g>
</g>
<g>
</g>
<g>
</g>
<g>
</g>
<g>
</g>
<g>
</g>
<g>
</g>
<g>
</g>
<g>
</g>
<g>
</g>
<g>
</g>
<g>
</g>
</svg>
