<?xml version="1.0" encoding="iso-8859-1"?>
<!-- Generator: Adobe Illustrator 19.0.0, SVG Export Plug-In . SVG Version: 6.00 Build 0)  -->
<svg version="1.1" id="Layer_1" xmlns="http://www.w3.org/2000/svg" xmlns:xlink="http://www.w3.org/1999/xlink" x="0px" y="0px"
	 viewBox="0 0 511.999 511.999" style="enable-background:new 0 0 511.999 511.999;" xml:space="preserve">
<path style="fill:#E6E6E6;" d="M234.109,249.082V74.272c0-35.858,29.172-65.016,65.016-65.016s65.016,29.158,65.016,65.016v39.575
	h-45.229V74.272c0-10.912-8.876-19.788-19.788-19.788s-19.788,8.876-19.788,19.788v174.81"/>
<path style="fill:#47A7DD;" d="M368.203,182.652h-34.519c-8.812,0-15.955,7.143-15.955,15.955v50.474h66.431v-50.474
	C384.158,189.795,377.014,182.652,368.203,182.652z"/>
<path style="fill:#3D9EC9;" d="M357.931,182.652h-24.248c-8.812,0-15.955,7.143-15.955,15.955v50.476h24.248v-50.476
	C341.976,189.795,349.119,182.652,357.931,182.652z"/>
<path style="fill:#FC583D;" d="M178.34,182.652h-34.519c-8.812,0-15.955,7.143-15.955,15.955v50.474h66.431v-50.474
	C194.296,189.795,187.152,182.652,178.34,182.652z"/>
<path style="fill:#DB4531;" d="M168.069,182.652h-24.248c-8.812,0-15.955,7.143-15.955,15.955v50.476h24.248v-50.476
	C152.114,189.795,159.257,182.652,168.069,182.652z"/>
<path style="fill:#ABDAEF;" d="M491.661,245.876c11.972,0,21.285,10.283,20.262,22.211c-1.089,12.691-3.101,25.118-5.97,37.215
	c-1.537,6.508-3.318,12.913-5.342,19.215c-33.217,103.39-130.163,178.227-244.596,178.227S44.623,427.907,11.408,324.517
	c-2.024-6.303-3.805-12.708-5.342-19.215c-2.868-12.097-4.881-24.524-5.97-37.215c-1.024-11.929,8.289-22.211,20.262-22.211H491.661
	z"/>
<g>
	<path style="fill:#95C7D8;" d="M104.195,245.88H20.357c-11.843,0-21.281,10.085-20.285,21.887
		C11.179,399.382,121.526,502.74,256.013,502.74c18.001,0,35.566-1.86,52.521-5.383C191.865,473.114,104.195,369.739,104.195,245.88
		z"/>
	<path style="fill:#95C7D8;" d="M505.953,305.302c-1.537,6.508-3.318,12.913-5.342,19.215H11.408
		c-2.024-6.303-3.805-12.708-5.342-19.215H505.953z"/>
</g>
<g>
</g>
<g>
</g>
<g>
</g>
<g>
</g>
<g>
</g>
<g>
</g>
<g>
</g>
<g>
</g>
<g>
</g>
<g>
</g>
<g>
</g>
<g>
</g>
<g>
</g>
<g>
</g>
<g>
</g>
</svg>
