<?xml version="1.0" encoding="iso-8859-1"?>
<!-- Generator: Adobe Illustrator 19.0.0, SVG Export Plug-In . SVG Version: 6.00 Build 0)  -->
<svg version="1.1" id="Layer_1" xmlns="http://www.w3.org/2000/svg" xmlns:xlink="http://www.w3.org/1999/xlink" x="0px" y="0px"
	 viewBox="0 0 512 512" style="enable-background:new 0 0 512 512;" xml:space="preserve">
<path style="fill:#8CE16E;" d="M247.449,149.111v102.614c70.84,0,128.267,57.427,128.267,128.267H478.33
	C478.33,252.48,374.96,149.111,247.449,149.111z"/>
<path style="fill:#7DC86E;" d="M375.284,371.441h60.074c-4.473-99.927-86.878-179.574-187.909-179.574v59.858
	C315.403,251.724,370.864,304.606,375.284,371.441z"/>
<path style="fill:#FF6464;" d="M238.898,132.008h-34.205c-4.722,0-8.551,3.829-8.551,8.551v8.551H8.017v102.614h188.125v8.551
	c0,4.722,3.829,8.551,8.551,8.551h34.205c4.722,0,8.551-3.829,8.551-8.551V140.56C247.449,135.837,243.62,132.008,238.898,132.008z"
	/>
<path style="fill:#FF5050;" d="M238.898,226.071h-34.205c-4.722,0-8.551-3.829-8.551-8.551v-68.409h-25.653v51.307
	c0,4.722-3.829,8.551-8.551,8.551H8.017v42.756h188.125v8.551c0,4.722,3.829,8.551,8.551,8.551h34.205
	c4.722,0,8.551-3.829,8.551-8.551V217.52C247.449,222.242,243.62,226.071,238.898,226.071z"/>
<path d="M503.983,371.975h-17.784c-1.992-60.806-26.597-117.683-69.823-160.91c-43.227-43.226-100.104-67.832-160.91-69.823v-0.682
	c0-9.136-7.432-16.568-16.568-16.568h-34.205c-9.136,0-16.568,7.432-16.568,16.568v0.534H16.033v-0.534
	c0-4.427-3.589-8.017-8.017-8.017S0,136.132,0,140.56v119.716c0,4.427,3.589,8.017,8.017,8.017s8.017-3.589,8.017-8.017v-0.534
	h172.092v0.534c0,9.136,7.432,16.568,16.568,16.568h34.205c9.136,0,16.568-7.432,16.568-16.568v-0.261
	c59.932,3.965,107.996,52.028,111.96,111.96h-25.914c-4.427,0-8.017,3.589-8.017,8.017c0,4.427,3.589,8.017,8.017,8.017h162.472
	c4.427,0,8.017-3.589,8.017-8.017C512,375.564,508.411,371.975,503.983,371.975z M16.033,243.708v-86.58h172.092v86.58H16.033z
	 M239.432,260.276c0,0.295-0.239,0.534-0.534,0.534h-34.205c-0.295,0-0.534-0.239-0.534-0.534V140.56
	c0-0.295,0.239-0.534,0.534-0.534h34.205c0.295,0,0.534,0.239,0.534,0.534V260.276z M255.466,243.95v-86.663
	c116.525,4.142,210.545,98.162,214.688,214.687h-86.663C379.481,303.199,324.241,247.96,255.466,243.95z"/>
<path d="M431.833,290.998c-4.47-9.246-9.691-18.237-15.517-26.723c-2.504-3.649-7.495-4.579-11.146-2.072
	c-3.65,2.505-4.578,7.496-2.072,11.146c5.369,7.822,10.181,16.108,14.301,24.628c1.383,2.861,4.245,4.529,7.223,4.529
	c1.17,0,2.36-0.258,3.484-0.802C432.092,299.778,433.761,294.984,431.833,290.998z"/>
<path d="M389.845,232.945c-29.552-28.623-66.483-47.49-106.802-54.562c-4.361-0.765-8.516,2.151-9.281,6.511
	c-0.765,4.361,2.151,8.517,6.511,9.281c37.146,6.515,71.179,23.904,98.417,50.286c1.557,1.508,3.567,2.259,5.576,2.259
	c2.095,0,4.187-0.816,5.759-2.439C393.107,241.101,393.026,236.026,389.845,232.945z"/>
<path d="M405.987,317.169c-1.631-4.116-6.293-6.128-10.407-4.497c-4.116,1.632-6.129,6.291-4.497,10.407
	c3.126,7.885,5.614,16.089,7.391,24.383c0.806,3.764,4.131,6.339,7.831,6.339c0.557,0,1.121-0.059,1.688-0.18
	c4.329-0.928,7.087-5.19,6.159-9.519C412.188,334.94,409.441,325.879,405.987,317.169z"/>
<path d="M319.262,225.323c-4.014-1.865-8.782-0.125-10.649,3.889c-1.867,4.015-0.126,8.782,3.889,10.649
	c24.276,11.29,45.336,28.826,60.903,50.713c1.564,2.199,4.033,3.37,6.539,3.37c1.607,0,3.23-0.482,4.64-1.485
	c3.608-2.566,4.453-7.571,1.887-11.18C369.295,257.133,346.054,237.783,319.262,225.323z"/>
<g>
</g>
<g>
</g>
<g>
</g>
<g>
</g>
<g>
</g>
<g>
</g>
<g>
</g>
<g>
</g>
<g>
</g>
<g>
</g>
<g>
</g>
<g>
</g>
<g>
</g>
<g>
</g>
<g>
</g>
</svg>
