<svg xmlns="http://www.w3.org/2000/svg" xmlns:xlink="http://www.w3.org/1999/xlink" width="316.646" height="30.5" viewBox="0 0 316.646 30.5">
  <defs>
    <clipPath id="clip-path">
      <rect id="Rectangle_7" data-name="Rectangle 7" width="22.086" height="24.103" transform="translate(0 0)" fill="#cbcbcb"/>
    </clipPath>
  </defs>
  <g id="Group_151" data-name="Group 151" transform="translate(-137 -14.82)">
    <text id="Brain_behind_the_design:_Ccube_Communications" data-name="Brain behind the design: Ccube Communications" transform="translate(154.646 41.319)" fill="#cbcbcb" font-size="12" font-family="Poppins-Regular, Poppins"><tspan x="0" y="0">Brain behind the design: </tspan><tspan y="0" font-family="Poppins-Bold, Poppins" font-weight="700">Ccube Communications</tspan></text>
    <g id="Group_16" data-name="Group 16" transform="translate(137 14.82)">
      <g id="Group_15" data-name="Group 15" clip-path="url(#clip-path)">
        <path id="Path_20" data-name="Path 20" d="M22.061,9.517A9.84,9.84,0,0,0,21.845,8a9.869,9.869,0,0,0-1.432-3.373,10.444,10.444,0,0,0-1.348-1.652,9.156,9.156,0,0,0-.929-.813A10.271,10.271,0,0,0,16.249,1a10.582,10.582,0,0,0-1.99-.7,9.162,9.162,0,0,0-1.648-.25c-.077,0-.154-.011-.232-.017.078-.027.159,0,.233-.034H11.155c.051.029.111,0,.177.03-.024,0-.035.007-.046.008-.3.019-.607.042-.908.09A10.307,10.307,0,0,0,6.522,1.553,10.626,10.626,0,0,0,4.3,3.431,10.93,10.93,0,0,0,3,5.262,9.716,9.716,0,0,0,2,7.8a9.435,9.435,0,0,0-.278,2.232c0,.236,0,.471-.008.707a6,6,0,0,1-.184,1.218,9.578,9.578,0,0,1-.512,1.377C.709,14.059.4,14.784.1,15.512a1.225,1.225,0,0,0,.028,1.026,1.2,1.2,0,0,0,.826.657c.407.107.812.224,1.219.333a.22.22,0,0,1,.181.193c.036.233.074.465.111.7.1.648.208,1.3.309,1.945.055.353.124.7.163,1.058a1.924,1.924,0,0,0,.719,1.312,2,2,0,0,0,1.307.461c1.024,0,2.048,0,3.072,0a4.219,4.219,0,0,0,.739-.054,3.375,3.375,0,0,0,2.754-2.709,1.991,1.991,0,0,0,.05-.68.516.516,0,0,0-.511-.45.528.528,0,0,0-.527.443c-.021.143-.015.29-.036.433a2.228,2.228,0,0,1-.785,1.409,2.122,2.122,0,0,1-1.375.539c-1.148.011-2.3.005-3.443,0a.936.936,0,0,1-.883-.657,2.451,2.451,0,0,1-.061-.387c-.062-.409-.127-.818-.193-1.226-.124-.772-.243-1.546-.377-2.317a1.22,1.22,0,0,0-.951-1.033q-.6-.163-1.2-.33c-.167-.046-.208-.129-.141-.288.24-.571.482-1.14.722-1.71a16.5,16.5,0,0,0,.672-1.745,6.563,6.563,0,0,0,.287-1.648c.013-.414.008-.828.034-1.242.016-.261.038-.522.078-.781a8.316,8.316,0,0,1,.394-1.561,9.528,9.528,0,0,1,.839-1.772A9.2,9.2,0,0,1,6.829,2.609,9.534,9.534,0,0,1,8.358,1.78a8.58,8.58,0,0,1,1.367-.455,8.854,8.854,0,0,1,1.785-.246,8.766,8.766,0,0,1,1.027.021,10,10,0,0,1,1.1.14,8.876,8.876,0,0,1,2.255.754,9,9,0,0,1,2.376,1.677,8.581,8.581,0,0,1,1.454,1.837,10.09,10.09,0,0,1,.828,1.784,8.643,8.643,0,0,1,.437,2.061,8.737,8.737,0,0,1,.024,1.27,11.676,11.676,0,0,1-.132,1.2,8.19,8.19,0,0,1-.244,1A8.914,8.914,0,0,1,19.59,15.1a8.727,8.727,0,0,0-.63,1.1,5,5,0,0,0-.448,2.049c-.006,1.607,0,3.215,0,4.823,0,.171,0,.343,0,.514a.544.544,0,0,0,.422.5.525.525,0,0,0,.594-.325.7.7,0,0,0,.035-.26q0-2.547,0-5.094a4.949,4.949,0,0,1,.11-1.027,4.145,4.145,0,0,1,.67-1.511,9.344,9.344,0,0,0,1-1.859,10.415,10.415,0,0,0,.718-3.031,9.985,9.985,0,0,0,.006-1.47" transform="translate(0 0)" fill="#cbcbcb"/>
        <path id="Path_21" data-name="Path 21" d="M29.609,16.773a2.729,2.729,0,0,0-1.084-1.878.161.161,0,0,1-.067-.159,3.111,3.111,0,0,0-.072-1.055,3.225,3.225,0,0,0-1.029-1.687,3.187,3.187,0,0,0-2.129-.788.124.124,0,0,1-.119-.07,3.694,3.694,0,0,0-1.346-1.31,3.656,3.656,0,0,0-1.6-.462,3.424,3.424,0,0,0-1.306.189,3.612,3.612,0,0,0-1.6,1.106,3.317,3.317,0,0,0-.686,1.225.091.091,0,0,1-.107.078,1.492,1.492,0,0,0-.306.017,3.212,3.212,0,0,0-2.228,1.358,3.067,3.067,0,0,0-.548,2.29,3.163,3.163,0,0,0,1.475,2.26,3.038,3.038,0,0,0,1.5.484.111.111,0,0,1,.122.1,2.283,2.283,0,0,0,2.244,1.665c.352-.007.7,0,1.057,0a1.208,1.208,0,0,1,.507.107,1.235,1.235,0,0,1,.764,1.173c.007.457,0,.914,0,1.372a1.627,1.627,0,0,0,.014.2.528.528,0,0,0,1.049-.1c0-.262,0-.524,0-.786h0c0-.233,0-.467,0-.7a1.812,1.812,0,0,0-.033-.369,2.313,2.313,0,0,0-1.152-1.639,2.2,2.2,0,0,0-1.158-.309c-.331.008-.662,0-.993,0a1.822,1.822,0,0,1-.419-.035,1.206,1.206,0,0,1-.137-2.293,2.224,2.224,0,0,1,.5-.091.521.521,0,0,0-.059-1.038,1.875,1.875,0,0,0-.509.056,2.252,2.252,0,0,0-1.617,1.43c-.028.072-.021.173-.088.209s-.159,0-.238-.011a2.157,2.157,0,0,1-1.789-2.425,2.1,2.1,0,0,1,.769-1.376,2.05,2.05,0,0,1,1.114-.474c.065-.007.092.006.1.08a2.7,2.7,0,0,0,.038.376.534.534,0,0,0,.7.392.55.55,0,0,0,.337-.6,2.857,2.857,0,0,1,0-.57,2.548,2.548,0,0,1,2.273-2.259,2.5,2.5,0,0,1,.725.019,2.58,2.58,0,0,1,1.838,1.386c.038.071.07.147.114.214a.485.485,0,0,0,.49.228,2.77,2.77,0,0,1,.676,0A2.045,2.045,0,0,1,27,13.142a2.121,2.121,0,0,1,.246,2.122c-.053.139-.14.26-.193.4a.521.521,0,0,0,.786.613.846.846,0,0,0,.233-.3c.022-.039.036-.041.066-.008a1.7,1.7,0,0,1-.386,2.6,1.659,1.659,0,0,1-1.347.174,1.712,1.712,0,0,1-1.2-1.365.153.153,0,0,1,.073-.167,1.927,1.927,0,0,0,.719-.857,2.1,2.1,0,0,0,.15-1.187.537.537,0,0,0-.583-.452.517.517,0,0,0-.457.6,1.21,1.21,0,0,1-.031.487,1.006,1.006,0,0,1-1.558.524c-.1-.082-.182-.188-.278-.277a.524.524,0,0,0-.814.109.513.513,0,0,0,.064.617,2.063,2.063,0,0,0,1.579.8c.078,0,.11.025.127.1a2.721,2.721,0,0,0,1.373,1.843,2.607,2.607,0,0,0,1.54.337,2.771,2.771,0,0,0,2.5-3.078" transform="translate(-10.525 -6.42)" fill="#cbcbcb"/>
        <path id="Path_22" data-name="Path 22" d="M34.182,21.378a.528.528,0,0,0,1.026.009,1.205,1.205,0,0,0,.03-.347,1.723,1.723,0,0,0-.027-.341,2.059,2.059,0,0,0-3.13-1.42,1.706,1.706,0,0,0-.632.655.519.519,0,0,0,.832.6,1.7,1.7,0,0,0,.11-.131.973.973,0,0,1,.967-.363,1,1,0,0,1,.822,1.121.617.617,0,0,0,0,.22" transform="translate(-21.534 -13.008)" fill="#cbcbcb"/>
      </g>
    </g>
  </g>
</svg>
