<svg xmlns="http://www.w3.org/2000/svg" xmlns:xlink="http://www.w3.org/1999/xlink" width="564.49" height="255.158" viewBox="0 0 564.49 255.158">
  <defs>
    <clipPath id="clip-path">
      <rect id="Rectangle_42" data-name="Rectangle 42" width="564.49" height="255.158" fill="none"/>
    </clipPath>
    <clipPath id="clip-path-2">
      <rect id="Rectangle_5" data-name="Rectangle 5" width="65.198" height="13.333" fill="#fff"/>
    </clipPath>
  </defs>
  <g id="Group_16" data-name="Group 16" transform="translate(-160 -383.842)">
    <g id="Group_6" data-name="Group 6" transform="translate(160 383.842)">
      <g id="Group_5" data-name="Group 5" clip-path="url(#clip-path)">
        <path id="Path_43" data-name="Path 43" d="M405.162,129.526a.518.518,0,0,1-.519-.519V.52A.518.518,0,0,1,405.162,0h83.225a.519.519,0,1,1,0,1.037H405.68V129.007a.518.518,0,0,1-.519.519" transform="translate(-83.271 0)" fill="#fff"/>
        <path id="Path_44" data-name="Path 44" d="M418.021,29.768a.518.518,0,0,1-.519-.519V9.159a.518.518,0,0,1,.519-.519h13.054a.519.519,0,0,1,0,1.037H418.539V29.25a.518.518,0,0,1-.519.519" transform="translate(-85.917 -1.778)" fill="#fff"/>
        <path id="Path_45" data-name="Path 45" d="M447.194,29.768a.518.518,0,0,1-.519-.519V9.159a.518.518,0,0,1,.519-.519h13.054a.519.519,0,0,1,0,1.037H447.712V29.25a.518.518,0,0,1-.519.519" transform="translate(-91.921 -1.778)" fill="#fff"/>
        <path id="Path_46" data-name="Path 46" d="M476.366,29.768a.518.518,0,0,1-.519-.519V9.159a.518.518,0,0,1,.519-.519h13.054a.519.519,0,0,1,0,1.037H476.884V29.25a.518.518,0,0,1-.519.519" transform="translate(-97.924 -1.778)" fill="#fff"/>
        <path id="Path_47" data-name="Path 47" d="M418.021,70.474a.518.518,0,0,1-.519-.519V49.865a.518.518,0,0,1,.519-.519h13.054a.519.519,0,0,1,0,1.037H418.539V69.956a.518.518,0,0,1-.519.519" transform="translate(-85.917 -10.155)" fill="#fff"/>
        <path id="Path_48" data-name="Path 48" d="M275.442,256.2a.515.515,0,0,1-.141-.02.507.507,0,0,1-.345-.627c.057-.2,5.792-20.31,7.134-49.3,1.238-26.736-1.113-66.711-19.352-105.316a.506.506,0,0,1,.916-.433,204.447,204.447,0,0,1,16.891,55.966,249.7,249.7,0,0,1,2.556,49.86c-1.351,29.1-7.114,49.3-7.173,49.5a.505.505,0,0,1-.486.366" transform="translate(-54.058 -20.624)" fill="#fff"/>
        <path id="Path_49" data-name="Path 49" d="M288.028,132.614a2.113,2.113,0,0,1-.52-.066c-4.247-1.062-9.7-15.535-15.391-31.562-1.449-4.083-2.7-7.609-3.5-9.415a.507.507,0,0,1,.926-.411c.816,1.841,2.074,5.384,3.529,9.487,3.969,11.182,10.611,29.9,14.681,30.917a1.055,1.055,0,0,0,1.032-.295c4.25-3.879,8.558-41.021,10.244-60.119a.507.507,0,1,1,1.009.089c-.2,2.271-4.969,55.667-10.57,60.779a2.11,2.11,0,0,1-1.441.595" transform="translate(-55.269 -14.547)" fill="#fff"/>
        <path id="Path_50" data-name="Path 50" d="M308.224,250.682a.507.507,0,0,1-.506-.488c-.014-.38-1.44-38.532-1.66-79.447-.3-54.976,1.608-88.482,5.657-99.587a.507.507,0,1,1,.952.347c-9.569,26.243-3.994,177.127-3.937,178.648a.508.508,0,0,1-.487.526h-.02" transform="translate(-62.977 -14.576)" fill="#fff"/>
        <path id="Path_51" data-name="Path 51" d="M254.19,126.607l-.052,0c-20.348-2.1-27.263-10.565-29.48-17.292-3.421-10.38,2.069-22.652,7.423-27.7-.09-1.907-.339-14.29,7.575-22.667,5.2-5.5,12.774-8.18,22.527-7.964a.508.508,0,0,1,.5.519.5.5,0,0,1-.519.495c-9.451-.208-16.77,2.362-21.762,7.641-8.242,8.717-7.3,22.013-7.292,22.147a.508.508,0,0,1-.164.414c-5.075,4.632-10.6,16.84-7.322,26.794,3.045,9.239,12.942,14.98,28.621,16.6a.507.507,0,0,1-.052,1.011" transform="translate(-46.014 -10.49)" fill="#fff"/>
        <path id="Path_52" data-name="Path 52" d="M321.988,59.378a.558.558,0,0,1-.082-.006.507.507,0,0,1-.42-.581,23.007,23.007,0,0,0-5.738-19c-3.893-4.265-11.394-9.152-25-8.216a.507.507,0,1,1-.07-1.011c14.018-.964,21.779,4.114,25.822,8.544a24.032,24.032,0,0,1,5.991,19.843.507.507,0,0,1-.5.426" transform="translate(-59.72 -6.265)" fill="#fff"/>
        <path id="Path_53" data-name="Path 53" d="M332.329,121.657a.507.507,0,0,1-.334-.888c8.216-7.205,2.954-18.6,2.9-18.718a.506.506,0,0,1,.237-.673c.066-.033,6.587-3.267,8.44-9.688,1.172-4.059.259-8.539-2.711-13.314a.507.507,0,1,1,.86-.535c3.131,5.034,4.081,9.79,2.823,14.14-1.72,5.943-6.984,9.226-8.54,10.084.917,2.265,4.494,12.6-3.339,19.466a.508.508,0,0,1-.334.125" transform="translate(-68.285 -15.97)" fill="#fff"/>
        <path id="Path_54" data-name="Path 54" d="M174.77,144.35a.518.518,0,0,1-.519-.519V83.407L129.3,25.128H82.793a.519.519,0,0,1-.519-.519V16.831H54.932a.519.519,0,1,1,0-1.037H82.793a.519.519,0,0,1,.519.519v7.776h46.245a.523.523,0,0,1,.411.2l45.213,58.624a.518.518,0,0,1,.108.316v60.6a.518.518,0,0,1-.519.519" transform="translate(-11.198 -3.25)" fill="#fff"/>
        <path id="Path_55" data-name="Path 55" d="M153.78,47.88h-6.065a.519.519,0,0,1,0-1.037h4.961l-8.613-10.391a.519.519,0,0,1,.8-.662l9.318,11.24a.519.519,0,0,1-.4.85" transform="translate(-29.622 -7.326)" fill="#fff"/>
        <path id="Path_56" data-name="Path 56" d="M177.942,79.016h-6.065a.519.519,0,1,1,0-1.037h4.961l-8.612-10.391a.519.519,0,1,1,.8-.662l9.318,11.24a.519.519,0,0,1-.4.85" transform="translate(-34.594 -13.734)" fill="#fff"/>
        <path id="Path_57" data-name="Path 57" d="M191.244,123.04a.518.518,0,0,1-.519-.519v-16.86H180.357a.519.519,0,1,1,0-1.037h10.887a.518.518,0,0,1,.519.519v17.379a.518.518,0,0,1-.519.519" transform="translate(-37.009 -21.53)" fill="#fff"/>
        <path id="Path_58" data-name="Path 58" d="M164.6,123.04a.518.518,0,0,1-.519-.519v-16.86H153.709a.519.519,0,1,1,0-1.037H164.6a.518.518,0,0,1,.519.519v17.379a.518.518,0,0,1-.519.519" transform="translate(-31.525 -21.53)" fill="#fff"/>
        <path id="Path_59" data-name="Path 59" d="M99.51,170.978a.518.518,0,0,1-.519-.519V153.6H88.623a.519.519,0,0,1,0-1.038H99.51a.519.519,0,0,1,.519.519v17.379a.518.518,0,0,1-.519.519" transform="translate(-18.131 -31.395)" fill="#fff"/>
        <path id="Path_60" data-name="Path 60" d="M178.131,101.088H71.262a.519.519,0,1,1,0-1.037H178.131a.519.519,0,0,1,0,1.037" transform="translate(-14.558 -20.589)" fill="#fff"/>
        <path id="Path_61" data-name="Path 61" d="M192.1,155.11a.519.519,0,0,1-.513-.448c-.585-4.243-2.314-7.385-5.142-9.335-5.21-3.594-12.467-1.979-12.54-1.963a.518.518,0,0,1-.6-.322,12.678,12.678,0,0,0-10.661-7.99c-2.9-.234-8.388.452-12.575,7.7a.519.519,0,0,1-.9-.519c3.267-5.659,8.207-8.659,13.558-8.219a13.752,13.752,0,0,1,11.383,8.246c1.72-.313,8.041-1.16,12.924,2.208,3.078,2.123,4.955,5.5,5.58,10.048a.519.519,0,0,1-.443.585.541.541,0,0,1-.071,0" transform="translate(-30.683 -27.571)" fill="#fff"/>
        <path id="Path_62" data-name="Path 62" d="M116.628,205.928a.518.518,0,0,1-.407-.2c-.061-.078-6.05-7.84-.906-16.749a16.4,16.4,0,0,1,13.5-8.531,10.733,10.733,0,0,1,4.449-6.614c3.162-2.068,7.5-2.328,12.9-.77a.519.519,0,1,1-.288,1c-5.089-1.468-9.137-1.254-12.034.635a9.877,9.877,0,0,0-4.082,6.338.518.518,0,0,1-.541.45,15.239,15.239,0,0,0-13.012,8.015,14.215,14.215,0,0,0,.823,15.588.519.519,0,0,1-.407.839" transform="translate(-23.301 -35.409)" fill="#fff"/>
        <path id="Path_63" data-name="Path 63" d="M205.822,283.286a.518.518,0,0,1-.519-.519V239.44a.519.519,0,1,1,1.037,0v43.327a.518.518,0,0,1-.519.519" transform="translate(-42.249 -49.167)" fill="#fff"/>
        <path id="Path_64" data-name="Path 64" d="M29.194,120.255a.519.519,0,0,1-.517-.48c-.492-6.515,1.9-11.776,6.563-14.432a13.752,13.752,0,0,1,14.051.392c1.239-1.225,5.954-5.464,11.858-5.464h.06c3.738.018,7.2,1.751,10.274,5.152a.519.519,0,0,1-.769.7c-2.876-3.176-6.075-4.794-9.51-4.811h-.053c-6.305,0-11.36,5.4-11.41,5.451a.52.52,0,0,1-.679.073,12.681,12.681,0,0,0-13.309-.587c-2.527,1.44-6.673,5.1-6.042,13.453a.518.518,0,0,1-.478.556.331.331,0,0,1-.04,0" transform="translate(-5.888 -20.634)" fill="#fff"/>
        <path id="Path_65" data-name="Path 65" d="M3.483,175.149a.519.519,0,0,1-.434-.234c-3.58-5.465-4.029-11.226-1.232-15.806a13.762,13.762,0,0,1,12.49-6.45c.495-1.677,2.586-7.7,7.792-10.545,3.282-1.791,7.146-1.945,11.484-.456a.519.519,0,1,1-.337.981c-4.051-1.39-7.635-1.26-10.65.386-5.557,3.033-7.383,10.24-7.4,10.313a.521.521,0,0,1-.559.392A12.682,12.682,0,0,0,2.7,159.649c-1.516,2.482-3.375,7.692,1.214,14.7a.519.519,0,0,1-.15.718.51.51,0,0,1-.284.085" transform="translate(0 -28.943)" fill="#fff"/>
        <path id="Path_66" data-name="Path 66" d="M54.825,275.042a.535.535,0,0,1-.061,0,.519.519,0,0,1-.455-.576,344.523,344.523,0,0,0,1.819-41.737c-.608-29-5.641-49.046-14.556-57.96a.519.519,0,1,1,.733-.734c5.1,5.1,8.952,13.579,11.453,25.2a180.344,180.344,0,0,1,3.408,33.483,345.76,345.76,0,0,1-1.826,41.868.519.519,0,0,1-.515.458" transform="translate(-8.524 -35.783)" fill="#fff"/>
        <path id="Path_67" data-name="Path 67" d="M56.726,181.172a2.852,2.852,0,0,1-1.093-.239c-4.534-1.878-11.557-15.3-11.557-20.616a.519.519,0,0,1,1.037,0c0,5.375,7.039,18.052,10.916,19.658a1.159,1.159,0,0,0,1.427-.156c2.756-2.756,4.9-24.065,5.5-32.043a.519.519,0,1,1,1.035.077c-.088,1.187-2.208,29.109-5.8,32.7a2.03,2.03,0,0,1-1.465.619" transform="translate(-9.071 -30.312)" fill="#fff"/>
        <path id="Path_68" data-name="Path 68" d="M71.709,263.468a.518.518,0,0,1-.517-.487c-.241-3.962-5.837-97.244.024-115.327a.519.519,0,0,1,.987.32c-5.8,17.9-.034,113.976.025,114.944a.52.52,0,0,1-.487.55h-.032" transform="translate(-14.107 -30.312)" fill="#fff"/>
        <path id="Path_69" data-name="Path 69" d="M147.927,304.477a8.146,8.146,0,1,1,8.145-8.146,8.155,8.155,0,0,1-8.145,8.146m0-13.094a4.948,4.948,0,1,0,4.949,4.948,4.954,4.954,0,0,0-4.949-4.948" transform="translate(-28.765 -59.305)" fill="#420cc6"/>
        <path id="Path_70" data-name="Path 70" d="M151.7,297.86a2.243,2.243,0,1,1-2.244-2.243,2.243,2.243,0,0,1,2.244,2.243" transform="translate(-30.295 -60.835)" fill="#420cc6"/>
        <path id="Path_71" data-name="Path 71" d="M90.588,296.088l.349,4.525,6.585-.914.609-4.185Z" transform="translate(-18.642 -60.813)" fill="#ad6120"/>
        <path id="Path_72" data-name="Path 72" d="M60.541,289.183c-1.142,2.626,1.746,12.369-.473,13.132s-4.665-.292-5.979-3.169-5.538-12.468-4.225-13.782a25.712,25.712,0,0,1,4.911-3.083Z" transform="translate(-10.21 -58.09)" fill="#94b0d4"/>
        <path id="Path_73" data-name="Path 73" d="M56.248,299.8c-.467.269-5.071-10.26-5.22-14.81a8.534,8.534,0,0,0-1.164.929c-1.314,1.313,2.912,10.905,4.225,13.782s3.761,3.931,5.979,3.168c.684-.234.882-1.268.863-2.66a4.45,4.45,0,0,0-1.167-.53,5.927,5.927,0,0,0-3.515.121" transform="translate(-10.21 -58.649)" fill="#1e374a"/>
        <path id="Path_74" data-name="Path 74" d="M61.987,294.415a1.948,1.948,0,0,0-2.4-.4.145.145,0,0,0,.064.241c.356.058.707-.064,1.072-.006.393.063.716.331,1.1.386a.156.156,0,0,0,.173-.226" transform="translate(-12.253 -60.453)" fill="#d1d3d4"/>
        <path id="Path_75" data-name="Path 75" d="M62.721,297.321c-.446-.734-2-.9-2.744-.663a.182.182,0,0,0,.048.357l.1.01s.008,0,.012,0a6.072,6.072,0,0,1,1.313.148,6.006,6.006,0,0,0,1.131.4.164.164,0,0,0,.141-.245" transform="translate(-12.316 -61.028)" fill="#d1d3d4"/>
        <path id="Path_76" data-name="Path 76" d="M117.248,217.97c0,2.341-1.02,4.055-1.789,3.93s-1.893-3.263-1.893-3.263Z" transform="translate(-23.37 -44.856)" fill="#ad6120"/>
        <path id="Path_77" data-name="Path 77" d="M132.353,257.065a1.028,1.028,0,0,1-.955-.647c-.122-.3-12.19-30.561-15-37.213a1.028,1.028,0,0,1,1.893-.8c2.818,6.671,14.893,36.947,15.015,37.252a1.028,1.028,0,0,1-.955,1.409" transform="translate(-23.937 -44.816)" fill="#420cc6"/>
        <path id="Path_78" data-name="Path 78" d="M102.9,178.429c0,4.606.35,10.442.35,10.442a35.9,35.9,0,0,1,5.317,10.246,94.184,94.184,0,0,0,4.42,10.6s-3.769,1.865-3.921,1.865-8.79-11.2-10.749-14.6-.937-17.377-.937-17.377Z" transform="translate(-19.985 -36.719)" fill="#ad6120"/>
        <path id="Path_79" data-name="Path 79" d="M103.53,191.36a5.1,5.1,0,0,0-2.5.655c-.646.321-1.533.77-1.795,1.481-.048.133.1.251.219.22a9.247,9.247,0,0,0,1.783-1.076,25.008,25.008,0,0,1,2.342-.906.191.191,0,0,0-.051-.374" transform="translate(-20.42 -39.379)" fill="#94531b"/>
        <path id="Path_80" data-name="Path 80" d="M70.866,161.237c4.492-2.208,12.333-3.35,16.749-2.36s7.689,2.056,8.222,4.492,1.827,12.637.533,13.018a8.36,8.36,0,0,1-2.132.381s-.666,18.1-6.6,22.077-22.02-.38-23.543-1.9,6.775-35.705,6.775-35.705" transform="translate(-13.151 -32.621)" fill="#ceddf1"/>
        <path id="Path_81" data-name="Path 81" d="M77.077,199.135c-1.2-1.086-2.642-1.9-3.873-2.962s-2.249-2.378-3.481-3.431a.11.11,0,0,0-.172.133,15.822,15.822,0,0,0,3.478,3.787,14.552,14.552,0,0,0,3.9,2.73c.145.058.259-.159.15-.257" transform="translate(-14.31 -39.659)" fill="#94b0d4"/>
        <path id="Path_82" data-name="Path 82" d="M78.777,195.829a39.941,39.941,0,0,0-3.534-2.114c-1.287-.8-2.526-1.665-3.766-2.535-.128-.089-.287.115-.168.217a35.98,35.98,0,0,0,3.486,2.61,16.477,16.477,0,0,0,3.795,2.144c.174.056.342-.2.187-.322" transform="translate(-14.666 -39.338)" fill="#94b0d4"/>
        <path id="Path_83" data-name="Path 83" d="M76.767,159.77c6.111,9.326,3.852,22.737,3.852,22.737a24.518,24.518,0,0,0,3.433.708,36.771,36.771,0,0,0-.184-14.8c-1.8-7.851-4.12-9.45-4.12-9.45Z" transform="translate(-15.798 -32.714)" fill="#ed1651"/>
        <path id="Path_84" data-name="Path 84" d="M64.016,200.247c9.938,1.318,14.105-12.1,14.105-12.1a60.552,60.552,0,0,0,9.163,1.053,22.337,22.337,0,0,0,6.992-1.376l-1.959,17.453s4.633,25.941,4.633,32.489-3.09,37.76-4.309,37.76-8.126-.26-8.942-.731-.194-57.584-.194-57.584Z" transform="translate(-13.174 -38.652)" fill="#ed1651"/>
        <path id="Path_85" data-name="Path 85" d="M62.117,203.466s-1.522,7.941,1.143,19.7c2.711,11.97,4.72,14.807,4.72,14.807s-4.946,8.971-8.752,16.964-4.951,9.187-4.418,11.394,3.311,7,7.232,7c1.142,0,21.164-31.975,21.164-33.117s-1.37-26.113-1.37-26.113Z" transform="translate(-11.254 -41.871)" fill="#ed1651"/>
        <path id="Path_86" data-name="Path 86" d="M95.975,159.5c2.085,4,3.3,12.258,3.3,17.244s-.3,5.957-.3,5.957l1.9-.7a65.29,65.29,0,0,0,0-13.513,46.957,46.957,0,0,0-1.557-7.91Z" transform="translate(-19.751 -32.823)" fill="#ed1651"/>
        <path id="Path_87" data-name="Path 87" d="M88.017,227.336a1.6,1.6,0,0,1-.3-.029L81.2,226.051a1.6,1.6,0,1,1,.606-3.14l6.509,1.256a1.6,1.6,0,0,1-.3,3.169" transform="translate(-16.444 -45.867)" fill="#420cc6"/>
        <path id="Path_88" data-name="Path 88" d="M115.564,219.9a1.6,1.6,0,0,1-.3-.029l-6.509-1.256a1.6,1.6,0,0,1,.606-3.14l6.509,1.256a1.6,1.6,0,0,1-.3,3.169" transform="translate(-22.113 -44.336)" fill="#420cc6"/>
        <path id="Path_89" data-name="Path 89" d="M75.62,220.277c-.9,2.4-.562,3.726-.037,4.251a27.351,27.351,0,0,0,5.094,2.8c.844.3,2.373-1.533,2.373-1.723s-1.206-1.921-.1-2.756c.936-.7,1.591-.439,1.807-.655s-.616-1.964-1.321-2.669A32.258,32.258,0,0,0,78.849,217Z" transform="translate(-15.447 -44.657)" fill="#ad6120"/>
        <path id="Path_90" data-name="Path 90" d="M105.539,260.913l40.2-13.488s10.037,28.172,10.024,27.988-39.783,13.428-39.637,13.409-10.587-27.909-10.587-27.909" transform="translate(-21.719 -50.917)" fill="#ebaf6a"/>
        <path id="Path_91" data-name="Path 91" d="M149.92,269.83l4.533-1.3a5.429,5.429,0,0,0,3.335,2.854l-4.323,1.08a6.608,6.608,0,0,1-3.545-2.637" transform="translate(-30.852 -55.261)" fill="#ceddf1"/>
        <path id="Path_92" data-name="Path 92" d="M154.294,256.433c-2.912.737-5.772,1.842-8.628,2.772s-5.772,1.816-8.6,2.868a.087.087,0,0,0,.047.168c2.906-.811,5.768-1.8,8.639-2.734s5.822-1.715,8.612-2.831a.126.126,0,0,0-.067-.242" transform="translate(-28.194 -52.77)" fill="#d1954f"/>
        <path id="Path_93" data-name="Path 93" d="M154.451,258.328c-5.487,1.735-11.108,3.319-16.47,5.411a.083.083,0,0,0,.044.16c5.579-1.4,11.073-3.373,16.545-5.142.272-.087.156-.516-.118-.43" transform="translate(-28.383 -53.159)" fill="#d1954f"/>
        <path id="Path_94" data-name="Path 94" d="M127.159,255.274l-21.62,7.254s10.732,27.89,10.587,27.909c-.075.01,10.663-3.673,20.98-7.182-2.433-6.8-7.789-21.9-9.947-27.981" transform="translate(-21.719 -52.533)" fill="#d1954f"/>
        <path id="Path_95" data-name="Path 95" d="M116.013,260.529l1.523,3.433,4.008-1.1-1.347-3.742Z" transform="translate(-23.874 -53.325)" fill="#ebaf6a"/>
        <path id="Path_96" data-name="Path 96" d="M141.839,251.7l1.471,3.337,5.442-1.715-.891-3.642Z" transform="translate(-29.189 -51.382)" fill="#d1954f"/>
        <path id="Path_97" data-name="Path 97" d="M94.277,231.68l35.145-12.2s9.06,24.624,9.047,24.462-34.779,12.141-34.651,12.123-9.54-24.388-9.54-24.388" transform="translate(-19.401 -45.167)" fill="#ebaf6a"/>
        <path id="Path_98" data-name="Path 98" d="M124.333,225.144a21.786,21.786,0,0,0-3.9,5.693.028.028,0,0,0,.048.029c1.266-1.908,2.751-3.706,3.958-5.643a.065.065,0,0,0-.1-.079" transform="translate(-24.782 -46.329)" fill="#d1954f"/>
        <path id="Path_99" data-name="Path 99" d="M127.105,224.474a57.031,57.031,0,0,0-5.548,8.564.059.059,0,0,0,.1.06c1.835-2.811,4-5.565,5.56-8.535.037-.07-.058-.154-.114-.088" transform="translate(-25.013 -46.189)" fill="#d1954f"/>
        <path id="Path_100" data-name="Path 100" d="M131.041,223.623a64.943,64.943,0,0,0-3.755,6.256c-1.232,2.1-2.454,4.2-3.625,6.332a.049.049,0,0,0,.084.048c1.3-2.056,2.549-4.141,3.792-6.234a64.842,64.842,0,0,0,3.661-6.311.091.091,0,0,0-.157-.092" transform="translate(-25.447 -46.011)" fill="#d1954f"/>
        <path id="Path_101" data-name="Path 101" d="M134.353,223.963a46.047,46.047,0,0,0-5.066,7.662,68.968,68.968,0,0,0-4.222,8.147c-.017.038.047.064.067.028,1.457-2.685,2.832-5.408,4.393-8.036s3.487-5.046,4.953-7.7c.042-.076-.062-.165-.124-.1" transform="translate(-25.736 -46.084)" fill="#d1954f"/>
        <path id="Path_102" data-name="Path 102" d="M136.273,223.885a59.451,59.451,0,0,0-4.97,8.391c-1.606,3.086-3.322,6.148-4.73,9.33-.027.064.058.118.1.056,3.482-5.78,6.036-12.041,9.864-17.625.111-.162-.145-.3-.259-.152" transform="translate(-26.046 -46.06)" fill="#d1954f"/>
        <path id="Path_103" data-name="Path 103" d="M138.089,227.678c-2.24,2.248-3.482,5.6-4.855,8.4-1.553,3.174-3.264,6.327-4.611,9.593-.025.06.072.1.1.044,1.748-3.061,3.181-6.342,4.727-9.508a80.782,80.782,0,0,1,4.737-8.454c.041-.063-.05-.13-.1-.079" transform="translate(-26.468 -46.85)" fill="#d1954f"/>
        <path id="Path_104" data-name="Path 104" d="M138.677,232.74c-1.671,2.825-2.9,5.994-4.293,8.964-1.341,2.85-2.745,5.684-3.962,8.59-.033.076.1.129.133.056,1.535-2.931,2.883-5.97,4.291-8.965,1.33-2.828,2.9-5.649,3.96-8.591.028-.077-.09-.122-.129-.055" transform="translate(-26.838 -47.889)" fill="#d1954f"/>
        <path id="Path_105" data-name="Path 105" d="M141.232,236.741a70.862,70.862,0,0,0-3.36,6.991c-1.1,2.346-2.225,4.679-3.234,7.064-.022.051.049.1.077.044,1.229-2.371,2.338-4.8,3.481-7.219a68.75,68.75,0,0,0,3.14-6.838c.021-.062-.071-.1-.1-.044" transform="translate(-27.706 -48.713)" fill="#d1954f"/>
        <path id="Path_106" data-name="Path 106" d="M144.115,241.176a35.436,35.436,0,0,0-2.752,4.718c-.967,1.73-2.021,3.44-2.841,5.245a.065.065,0,0,0,.112.065c1.115-1.637,2.028-3.427,3-5.15a35.322,35.322,0,0,0,2.6-4.806c.025-.068-.079-.132-.126-.073" transform="translate(-28.505 -49.627)" fill="#d1954f"/>
        <path id="Path_107" data-name="Path 107" d="M146.57,246.7a14.5,14.5,0,0,0-2.232,4.116c-.035.084.108.145.148.063.681-1.376,1.607-2.679,2.2-4.086.031-.073-.056-.164-.121-.093" transform="translate(-29.702 -50.762)" fill="#d1954f"/>
        <path id="Path_108" data-name="Path 108" d="M113.178,226.581l-18.9,6.559s9.668,24.37,9.541,24.389c-.066.009,9.321-3.32,18.34-6.491-2.2-5.946-7.031-19.14-8.979-24.457" transform="translate(-19.401 -46.628)" fill="#d1954f"/>
        <path id="Path_109" data-name="Path 109" d="M133.192,227.986l-5.042,1.726a1.294,1.294,0,0,1-.838-2.449l5.042-1.726a1.294,1.294,0,0,1,.838,2.449" transform="translate(-26.019 -46.399)" fill="#420cc6"/>
        <path id="Path_110" data-name="Path 110" d="M109.159,235.469l-5.042,1.726a1.294,1.294,0,0,1-.839-2.449l5.042-1.725a1.294,1.294,0,1,1,.838,2.449" transform="translate(-21.074 -47.939)" fill="#420cc6"/>
        <path id="Path_111" data-name="Path 111" d="M112.786,285.536a1.029,1.029,0,0,1-.959-.658l-22.464-58.3a1.028,1.028,0,0,1,1.918-.739l22.115,57.389,19.729-6.382.014-.006,22.344-7.229a1.028,1.028,0,0,1,.633,1.956L113.1,285.486a1.018,1.018,0,0,1-.316.05" transform="translate(-18.376 -46.34)" fill="#420cc6"/>
        <path id="Path_112" data-name="Path 112" d="M116.782,214.789c0,2.55-.23,3.972-1.924,3.972s-3.367-.508-2.644-1.231,2.055-.816,2.055-1.341-.091-2.835.716-3.108,1.8,1.708,1.8,1.708" transform="translate(-23.057 -43.845)" fill="#ad6120"/>
        <path id="Path_113" data-name="Path 113" d="M110.13,214.708a3.22,3.22,0,0,0-1.485,3.367c.228,1.029.975,2.542,1.631,2.542a2.275,2.275,0,0,0,1.113-.286,1.039,1.039,0,0,0,1.142.6c.771-.2.689-.253.689-.253a1.094,1.094,0,0,0,1.742-.016c.214-.279-1.853-1.723-1.036-3.529.326-.719.778-1.264.485-1.77s-1.512.086-1.512-.143-.782-.951-1.343-.514c0,0,.163-.476-.342-.476a2.153,2.153,0,0,0-1.084.476" transform="translate(-22.343 -44.087)" fill="#ad6120"/>
        <path id="Path_114" data-name="Path 114" d="M77.457,249.155q-1.662-1.214-3.325-2.426a9.928,9.928,0,0,1-2.906-2.706c-.06-.1-.239-.066-.229.062.09,1.058,1.056,1.7,1.843,2.293q1.856,1.391,3.724,2.769a6.92,6.92,0,0,1-3.263-1.117.226.226,0,0,0-.272.353,5.208,5.208,0,0,0,4.294,1.265.267.267,0,0,0,.133-.492" transform="translate(-14.61 -50.205)" fill="#274082"/>
        <path id="Path_115" data-name="Path 115" d="M88.85,242.3c-.01-3.946.252-8.022-.156-11.949a.144.144,0,0,0-.288,0c-.365,3.485-.149,7.095-.161,10.6-.006,1.681.015,3.363-.011,5.044-.023,1.472-.173,2.943-1.329,3.981-.291.261.127.648.419.42,2.213-1.724,1.532-5.684,1.526-8.092" transform="translate(-17.864 -47.375)" fill="#274082"/>
        <path id="Path_116" data-name="Path 116" d="M84.76,212.292a57.371,57.371,0,0,1-7.351-1.715,36.542,36.542,0,0,1-6.492-3.159.094.094,0,0,0-.048-.044l-.525-.3c-.183-.133-.36.172-.178.3a28.808,28.808,0,0,0,6.922,3.613,24.006,24.006,0,0,0,7.609,1.765.238.238,0,0,0,.063-.465" transform="translate(-14.424 -42.607)" fill="#274082"/>
        <path id="Path_117" data-name="Path 117" d="M85.322,210.578c-1.393-.682-2.9-1.133-4.307-1.8-1.339-.631-3.382-1.364-4.215-2.635-.083-.126-.326-.047-.261.11.546,1.306,2.3,1.952,3.473,2.561a22.133,22.133,0,0,0,5.144,2.154c.226.049.4-.28.166-.393" transform="translate(-15.749 -42.41)" fill="#274082"/>
        <path id="Path_118" data-name="Path 118" d="M97.14,208.385c-.777.585-1.424,1.307-2.236,1.862a14.369,14.369,0,0,1-2.161,1.181.144.144,0,0,0-.258-.038l-.218.289c-.095.125.062.307.2.262a9.84,9.84,0,0,0,4.926-3.3c.1-.148-.1-.367-.254-.254" transform="translate(-18.982 -42.877)" fill="#274082"/>
        <path id="Path_119" data-name="Path 119" d="M86.312,153.246c-.252,4.174-1.332,5.649-1.332,5.649s3.022,4.067,5.4,3.707,1.962-1.619,1.962-1.619l1.314-4.427Z" transform="translate(-17.488 -31.536)" fill="#ad6120"/>
        <path id="Path_120" data-name="Path 120" d="M90.954,162.7c2.107-.406,1.721-1.578,1.721-1.578L93.99,156.7l-4.865-2.194-2.472-.562c1.921,4.695,2.912,7.556,4.3,8.761" transform="translate(-17.832 -31.68)" fill="#94531b"/>
        <path id="Path_121" data-name="Path 121" d="M97.78,143.837c0,5.525-.393,13.66-4.7,12.568s-7.076-4.185-7.547-5.629-2.417-12.4,3.171-12.244,9.073,3.61,9.073,5.305" transform="translate(-17.456 -28.508)" fill="#ad6120"/>
        <path id="Path_122" data-name="Path 122" d="M91.762,144.828c-.691.55-1.162.643-1.522.55s.063,1.161-1,1.161-1.291-.729-1.291-.913a14.166,14.166,0,0,1,1.384-2.241c.079,0,2.433,1.444,2.433,1.444" transform="translate(-18.098 -29.507)" fill="#1e374a"/>
        <path id="Path_123" data-name="Path 123" d="M88.707,138.532c-3.383-.1-4,3.881-3.864,7.356,1.649-1.018,3.667-2.738,4.094-2.31.469.469,8.32,2.009,8.834,1.079.006-.278.009-.552.009-.82,0-1.695-3.485-5.148-9.073-5.305" transform="translate(-17.456 -28.508)" fill="#1e374a"/>
        <path id="Path_124" data-name="Path 124" d="M88.7,138.581c-1.248-.847-2.378-.9-2.684-.181s-.141.959-.141.959a2.214,2.214,0,0,0-1.743.777c-.682.848.7,2.265.7,2.265Z" transform="translate(-17.275 -28.378)" fill="#1e374a"/>
        <path id="Path_125" data-name="Path 125" d="M95.615,151.55a.549.549,0,1,1-.491-.718.627.627,0,0,1,.491.718" transform="translate(-19.458 -31.039)" fill="#1e374a"/>
        <path id="Path_126" data-name="Path 126" d="M100.039,151.873c-.066.375-.353.637-.643.586a.625.625,0,0,1-.4-.77c.066-.375.353-.637.642-.586a.626.626,0,0,1,.4.77" transform="translate(-20.369 -31.094)" fill="#1e374a"/>
        <path id="Path_127" data-name="Path 127" d="M93.554,142.519a.97.97,0,0,0-.864,1.163c.04.255.4.168.423-.057a.53.53,0,0,1,.685-.5c.246.092.322.351.533.483a.261.261,0,0,0,.389-.224c0-.527-.7-.909-1.166-.863" transform="translate(-19.072 -29.328)" fill="#2c516e"/>
        <path id="Path_128" data-name="Path 128" d="M98.421,143.033a1.629,1.629,0,0,0-1.267.439.214.214,0,0,0,.215.369,1.731,1.731,0,0,1,.882-.224c.273.032.369.236.577.372a.264.264,0,0,0,.394-.226c.029-.414-.447-.671-.8-.729" transform="translate(-19.973 -29.431)" fill="#2c516e"/>
        <path id="Path_129" data-name="Path 129" d="M93.964,149.179c0-.532,2.132-.534,2.132-.11s-.137.652-.4.652-1.736-.173-1.736-.542" transform="translate(-19.337 -30.614)" fill="#1e374a"/>
        <path id="Path_130" data-name="Path 130" d="M100.9,149.179c0-.532-1.808-.534-1.808-.11s.116.652.336.652,1.472-.173,1.472-.542" transform="translate(-20.392 -30.614)" fill="#1e374a"/>
        <path id="Path_131" data-name="Path 131" d="M97.58,152.716s1.376.831,1.055,1.532-1.517.245-1.517.245Z" transform="translate(-19.986 -31.427)" fill="#94531b"/>
        <path id="Path_132" data-name="Path 132" d="M97.582,157.68a2.2,2.2,0,0,0-.8-.241,7.937,7.937,0,0,0-.816-.167.237.237,0,0,0-.119.439,6.782,6.782,0,0,0,.789.259,2.138,2.138,0,0,0,.817.173.251.251,0,0,0,.125-.463" transform="translate(-19.701 -32.365)" fill="#1e374a"/>
        <path id="Path_133" data-name="Path 133" d="M93.777,160.277c.235-.9,3.377-.677,3.668-.384s-1.243,2.692-2.02,2.386-1.648-2-1.648-2" transform="translate(-19.298 -32.852)" fill="#1e374a"/>
        <path id="Path_134" data-name="Path 134" d="M100.11,143.817a1.441,1.441,0,0,0-.5-2.361l-.871-.179s-.57-1.719-1.318-1.719a1.824,1.824,0,0,0-1.272.66Z" transform="translate(-19.786 -28.719)" fill="#1e374a"/>
        <path id="Path_135" data-name="Path 135" d="M95.17,140.046c.342-.962-.847-2.532-1.67-2.2l-.824.335s-1.43-1.111-2.052-.695a1.824,1.824,0,0,0-.689,1.255Z" transform="translate(-18.508 -28.275)" fill="#1e374a"/>
        <path id="Path_136" data-name="Path 136" d="M85.135,143.367c-2.071-.515-2.333,2.283-1.812,2.8s.141,1.787.542,3.066.728,2.861,1.314,2.522,5.767-7.566,5.767-7.566Z" transform="translate(-17.099 -29.49)" fill="#1e374a"/>
        <path id="Path_137" data-name="Path 137" d="M89.44,149.775a1.827,1.827,0,1,1-1.827-1.827,1.827,1.827,0,0,1,1.827,1.827" transform="translate(-17.654 -30.446)" fill="#ad6120"/>
        <path id="Path_138" data-name="Path 138" d="M88.437,299.051c.326,3.33-.221,5.683.148,6.051s18.641.11,19.828.1c2.022-.02,1.894-3.334.465-3.55a32.967,32.967,0,0,1-6.656-2.522c-2.642-1.213-2.451-4.036-3.975-3.425s-2.063,2.781-4.771,2.9c-2.39.106-5.264-1.843-5.039.447" transform="translate(-18.197 -60.835)" fill="#94b0d4"/>
        <path id="Path_139" data-name="Path 139" d="M108.42,306.6c2.022-.02,1.894-3.334.465-3.55a12.4,12.4,0,0,1-2.207-.636,10.326,10.326,0,0,1-1.623,2.132c-.414.239-12.124.087-16.553.024-.05,1.061-.1,1.748.089,1.933.368.368,18.641.109,19.828.1" transform="translate(-18.204 -62.233)" fill="#1e374a"/>
        <path id="Path_140" data-name="Path 140" d="M103.62,298.872c-.195.141-.38.3-.568.448a1.761,1.761,0,0,0-.495.5.289.289,0,0,0,.323.419,1.732,1.732,0,0,0,.6-.36c.191-.146.388-.288.572-.442.307-.258-.1-.8-.433-.561" transform="translate(-21.098 -61.492)" fill="#d1d3d4"/>
        <path id="Path_141" data-name="Path 141" d="M107.123,300.708a.371.371,0,0,0-.52,0,9.481,9.481,0,0,0-.691.9.339.339,0,0,0,.531.409,8.544,8.544,0,0,0,.681-.793.378.378,0,0,0,0-.52" transform="translate(-21.785 -61.86)" fill="#d1d3d4"/>
        <path id="Path_142" data-name="Path 142" d="M116.81,304.477a8.146,8.146,0,1,1,8.145-8.146,8.155,8.155,0,0,1-8.145,8.146m0-13.094a4.948,4.948,0,1,0,4.949,4.948,4.954,4.954,0,0,0-4.949-4.948" transform="translate(-22.362 -59.305)" fill="#420cc6"/>
        <path id="Path_143" data-name="Path 143" d="M121.043,297.7a2.865,2.865,0,1,1-2.865-2.865,2.865,2.865,0,0,1,2.865,2.865" transform="translate(-23.73 -60.674)" fill="#420cc6"/>
        <path id="Path_144" data-name="Path 144" d="M85.315,192.185c4.454,1.313,10.306.514,10.306.514s-.986,5.714-1.438,6.166-11.669.334-11.3-.6l2.426-6.08" transform="translate(-17.056 -39.55)" fill="#274082"/>
        <path id="Path_145" data-name="Path 145" d="M53.286,196.57c.416,3.078,8.848,14.136,18.231,19.352L74.5,212.27s-4.987-12.481-8.307-15.8c-2.821-2.821-2.941-3.805-2.941-3.805Z" transform="translate(-10.966 -39.648)" fill="#ad6120"/>
        <path id="Path_146" data-name="Path 146" d="M76.393,174.721l-.164.2a.142.142,0,0,0-.025.058,15.134,15.134,0,0,1-1.6,1.98c-.361.365-.851.689-1.257,1.055.015-.036.032-.071.047-.106a21.264,21.264,0,0,0,2.159-6.385.2.2,0,0,0-.362-.1c-.452.979-.668,2.068-1.022,3.089q-.625,1.8-1.424,3.541-.717,1.559-1.553,3.058a23.448,23.448,0,0,0-1.58,2.813c-.04.1.1.166.172.1a16.95,16.95,0,0,0,3.263-5.344,5.6,5.6,0,0,0,1.982-1.467,10.855,10.855,0,0,0,1.769-2.188c.145-.242-.215-.541-.4-.31" transform="translate(-14.323 -35.259)" fill="#94b0d4"/>
        <path id="Path_147" data-name="Path 147" d="M92.62,164.736c-1.9,2.109-4.949-.179-6.548-1.617a.071.071,0,0,0-.1.1c1.138,1.4,5.76,4.691,6.91,1.668.056-.146-.16-.264-.261-.152" transform="translate(-17.688 -33.564)" fill="#94b0d4"/>
        <path id="Path_148" data-name="Path 148" d="M56.849,179.388c-3.579,4.8-4.2,14.325-3.427,14.769s9.953-3.419,9.689-3.682,2.264-6.682,2.264-6.682Z" transform="translate(-10.934 -36.916)" fill="#ad6120"/>
        <path id="Path_149" data-name="Path 149" d="M55.8,177c5.558,4.363,9.669,5.278,9.669,5.278s8.7-17.459,6.68-19.477-5.957-3.476-9.688.939S55.8,177,55.8,177" transform="translate(-11.483 -33.101)" fill="#ceddf1"/>
        <path id="Path_150" data-name="Path 150" d="M64.184,192.838a4.9,4.9,0,0,0-2.425.451A22.026,22.026,0,0,0,59.514,195c-.144.091-.054.353.122.289a8.789,8.789,0,0,0,1.762-1.175,4.531,4.531,0,0,1,2.684-.684.156.156,0,0,0,.037.007l.066,0a.3.3,0,0,0,0-.6" transform="translate(-12.233 -39.682)" fill="#94531b"/>
        <path id="Path_151" data-name="Path 151" d="M179.515,208.514c-.221,0-4.71,4.232-4.71,4.674a2.514,2.514,0,0,0,1.214,1.73c.552.147,5.557-2.061,5.557-2.061Z" transform="translate(-35.973 -42.91)" fill="#b88542"/>
        <path id="Path_152" data-name="Path 152" d="M167.268,189.3c-.221,0-4.71,4.232-4.71,4.674a2.512,2.512,0,0,0,1.214,1.73c.552.147,5.557-2.061,5.557-2.061Z" transform="translate(-33.453 -38.956)" fill="#b88542"/>
        <path id="Path_153" data-name="Path 153" d="M179.4,179.286a2.2,2.2,0,1,1-2.2-2.2,2.2,2.2,0,0,1,2.2,2.2" transform="translate(-36.013 -36.442)" fill="#b88542"/>
        <path id="Path_154" data-name="Path 154" d="M196.9,169.285a2.2,2.2,0,1,1-2.2-2.2,2.2,2.2,0,0,1,2.2,2.2" transform="translate(-39.614 -34.384)" fill="#b88542"/>
        <path id="Path_155" data-name="Path 155" d="M166.8,184.043l12.437,20.612,46.077-26.01-9.278-15.629a.925.925,0,0,0-.859-.45l-17.906,1.248-30.236,19.23a.735.735,0,0,0-.234,1" transform="translate(-34.303 -33.454)" fill="#ebaf6a"/>
        <path id="Path_156" data-name="Path 156" d="M202.011,162.792l14.979,24.376,2.142-1.21-15.571-24.694-1.324.7a.588.588,0,0,0-.226.827" transform="translate(-41.554 -33.187)" fill="#b88542"/>
        <path id="Path_157" data-name="Path 157" d="M203.984,161.264l18.842.963a1.1,1.1,0,0,1,.891.538l2.82,4.75-19.084-.751Z" transform="translate(-41.978 -33.186)" fill="#ebaf6a"/>
        <path id="Path_158" data-name="Path 158" d="M199.233,198.572a.22.22,0,0,1-.191-.109L186,176.239a.221.221,0,0,1,.38-.223l13.041,22.224a.221.221,0,0,1-.079.3.217.217,0,0,1-.111.03" transform="translate(-38.271 -36.2)" fill="#b88542"/>
        <path id="Path_159" data-name="Path 159" d="M176.445,192.809a16.268,16.268,0,0,0-2.794-4.239c-.064-.075-.188.023-.136.1.9,1.391,1.725,2.9,2.738,4.215.064.084.241.041.192-.081" transform="translate(-35.705 -38.8)" fill="#b88542"/>
        <path id="Path_160" data-name="Path 160" d="M182.783,196.451a25.841,25.841,0,0,0-1.829-2.243c-.079-.094-.21.041-.134.134a25.515,25.515,0,0,0,1.86,2.188c.052.05.146-.016.1-.079" transform="translate(-37.206 -39.959)" fill="#b88542"/>
        <path id="Path_161" data-name="Path 161" d="M198.985,182.794a31.779,31.779,0,0,0-3.832-5.559c-.041-.046-.106.012-.081.063a31.966,31.966,0,0,0,3.788,5.592c.058.071.168-.02.125-.1" transform="translate(-40.142 -36.47)" fill="#b88542"/>
        <path id="Path_162" data-name="Path 162" d="M205.571,185.347a19.76,19.76,0,0,0-2.2-2.9c-.071-.09-.229.03-.16.123a19.814,19.814,0,0,0,2.252,2.864.069.069,0,0,0,.108-.083" transform="translate(-41.815 -37.538)" fill="#b88542"/>
        <path id="Path_163" data-name="Path 163" d="M221.4,165.265a32.838,32.838,0,0,0-8.445-.878.071.071,0,0,0,0,.141,47.52,47.52,0,0,1,8.373,1c.168.033.241-.217.071-.26" transform="translate(-43.81 -33.828)" fill="#b88542"/>
        <path id="Path_164" data-name="Path 164" d="M224.855,171.911a42.962,42.962,0,0,0-4.49-.129.093.093,0,0,0,0,.186,42.777,42.777,0,0,0,4.49.061.059.059,0,0,0,0-.118" transform="translate(-45.33 -35.351)" fill="#b88542"/>
        <path id="Path_165" data-name="Path 165" d="M218.859,301.182v3.737l7.875-1.464-.131-2.725Z" transform="translate(-45.039 -61.887)" fill="#faaf70"/>
        <path id="Path_166" data-name="Path 166" d="M184.337,215.621c-2.734,1.874-6.6,3.523-7.757,2.854s-4.836-7.306-4.423-8.022,1.571-.429,2.859.859a7.085,7.085,0,0,1,1.84,2.355c.21.533,4.085-3.864,5.52-3.312s1.961,5.266,1.961,5.266" transform="translate(-35.421 -43.23)" fill="#faaf70"/>
        <path id="Path_167" data-name="Path 167" d="M192.1,204.018c1.712-7.287,23.572-23.351,29.313-22.854s13.977,3.147,15.015,9.164c.526,3.047-8.056,13.625-9.658,14.541s-28.376,4.118-28.376,4.118Z" transform="translate(-39.532 -37.279)" fill="#ceddf1"/>
        <path id="Path_168" data-name="Path 168" d="M181.446,292.533c-1.1,2.539,1.688,11.959-.457,12.7s-4.511-.283-5.78-3.063-5.355-12.055-4.085-13.324a24.831,24.831,0,0,1,4.748-2.981Z" transform="translate(-35.165 -58.827)" fill="#94b0d4"/>
        <path id="Path_169" data-name="Path 169" d="M177.295,302.8c-.451.26-4.9-9.921-5.047-14.319a8.229,8.229,0,0,0-1.125.9c-1.27,1.269,2.815,10.543,4.085,13.324s3.636,3.8,5.781,3.063c.661-.226.852-1.225.834-2.572a4.274,4.274,0,0,0-1.129-.512,5.737,5.737,0,0,0-3.4.117" transform="translate(-35.165 -59.366)" fill="#d1d3d4"/>
        <path id="Path_170" data-name="Path 170" d="M182.843,297.59a1.882,1.882,0,0,0-2.325-.382.14.14,0,0,0,.061.233c.344.056.683-.062,1.036-.006.38.06.692.32,1.059.372a.15.15,0,0,0,.168-.218" transform="translate(-37.141 -61.111)" fill="#d1d3d4"/>
        <path id="Path_171" data-name="Path 171" d="M183.553,300.4c-.43-.709-1.934-.869-2.653-.642a.177.177,0,0,0,.047.345l.1.01.011,0a5.783,5.783,0,0,1,1.27.143,5.818,5.818,0,0,0,1.093.382.158.158,0,0,0,.136-.237" transform="translate(-37.202 -61.667)" fill="#d1d3d4"/>
        <path id="Path_172" data-name="Path 172" d="M177.168,288.618c-.11-.112-.277.057-.172.172,2.008,2.16-2.015,5.129-.011,7.3.151.164.359-.044.284-.219-.761-1.776.28-3.027.595-4.737a2.684,2.684,0,0,0-.7-2.514" transform="translate(-36.303 -59.387)" fill="#d1d3d4"/>
        <path id="Path_173" data-name="Path 173" d="M187.658,208.113c-3.239,9.716,2.179,35.959,3.091,37.538,0,0-17.353,23.271-16.34,25.026s4.417,7.361,7.508,7.361,21.935-27.087,21.935-28.411V209.438a30.7,30.7,0,0,1-16.193-1.325" transform="translate(-35.883 -42.827)" fill="#ed1651"/>
        <path id="Path_174" data-name="Path 174" d="M210.924,208.389a34.721,34.721,0,0,0,12.145-5.373,16.065,16.065,0,0,0,4.49,4.048,5.762,5.762,0,0,0,4.869.662s-12.885,12.447-12.082,13.838a2.737,2.737,0,0,1-.221,2.8s9.017,23.075,9.017,25.173-2.329,30.813-4.416,32.018-8.446.939-9.385,0,1.712-31.189,1.215-31.687-6.624-17.665-7.618-21.309,1.987-20.167,1.987-20.167" transform="translate(-42.955 -41.778)" fill="#ed1651"/>
        <path id="Path_175" data-name="Path 175" d="M231.709,181.688c1.428,1.387,1.956,3.432,1.956,7.517s-6.882,9.422-6.882,9.422l1.141,1.913a20.27,20.27,0,0,0,6.5-7.368c2.76-5.116-.116-10.782-.116-10.782Z" transform="translate(-46.669 -37.389)" fill="#ed1651"/>
        <path id="Path_176" data-name="Path 176" d="M237.832,175.36c.749,6.257-.572,4.5-.572,6.928s3,6.421,4.265,5.692a2,2,0,0,0,.933-2.136l1.5-3.123Z" transform="translate(-48.825 -36.087)" fill="#faaf70"/>
        <path id="Path_177" data-name="Path 177" d="M243.841,185.737l1.009-2.108-3.2-3.852c-.235,2.964.953,5.127,2.2,5.96" transform="translate(-49.722 -36.996)" fill="#e08b43"/>
        <path id="Path_178" data-name="Path 178" d="M242.983,180.271c2.061.478,5.442.932,6.257-.478s1.435-11.376-1.878-14.466-9.223-1.691-10.805-.44-2.039,6.476.206,9.531a31.755,31.755,0,0,0,6.219,5.853" transform="translate(-48.406 -33.638)" fill="#faaf70"/>
        <path id="Path_179" data-name="Path 179" d="M248.156,167.814a11.007,11.007,0,0,0,4.071.1,4,4,0,0,1-1.322-1Z" transform="translate(-51.068 -34.35)" fill="#1e374a"/>
        <path id="Path_180" data-name="Path 180" d="M250.3,169.735a8.675,8.675,0,0,0-1.218.8.358.358,0,0,0,.361.619,7.258,7.258,0,0,0,1.36-.86c.376-.354-.218-.8-.5-.555" transform="translate(-51.224 -34.915)" fill="#1e374a"/>
        <path id="Path_181" data-name="Path 181" d="M252.6,170.39s2.931,3.819,2.374,4.14a13.113,13.113,0,0,1-1.732.718Z" transform="translate(-51.983 -35.064)" fill="#faaf70"/>
        <path id="Path_182" data-name="Path 182" d="M251.321,172.774a.673.673,0,1,1-.861-.622.763.763,0,0,1,.861.622" transform="translate(-51.452 -35.423)" fill="#56262f"/>
        <path id="Path_183" data-name="Path 183" d="M243.639,169.035c-.313,2.668-.538,3.414.069,4.775s-2.908.837-3.209-.562-1.708,5.236-2.516,4.652a9.6,9.6,0,0,1-2.256-4.845c0-1.241,7.913-4.02,7.913-4.02" transform="translate(-48.51 -34.786)" fill="#1e374a"/>
        <path id="Path_184" data-name="Path 184" d="M243.395,174.34c0,1.712,1.457,7.994,2.337,8.5s5.359.527,5.78-.583.97-5.03.419-5.195-2.171,1.694-3.348,1.694-3.607-4.418-3.607-4.418Z" transform="translate(-50.088 -35.877)" fill="#1e374a"/>
        <path id="Path_185" data-name="Path 185" d="M247.586,180.348c-.174-.225-.389-.405-.568-.625a3.8,3.8,0,0,1-.482-.8c-.044-.095-.2-.045-.193.052a1.506,1.506,0,0,0,1.168,1.5.086.086,0,0,0,.075-.129" transform="translate(-50.695 -36.81)" fill="#2c516e"/>
        <path id="Path_186" data-name="Path 186" d="M249.586,181.492c-.088-.125-.207-.232-.288-.362a.935.935,0,0,1-.089-.473.126.126,0,0,0-.212-.088c-.315.348.013,1.206.535,1.055a.09.09,0,0,0,.053-.132" transform="translate(-51.216 -37.151)" fill="#2c516e"/>
        <path id="Path_187" data-name="Path 187" d="M248.421,183.328a1.029,1.029,0,0,1-.586-.408,1.186,1.186,0,0,1-.05-.673.1.1,0,0,0-.156-.09.815.815,0,0,0,.792,1.358.1.1,0,0,0,0-.187" transform="translate(-50.91 -37.483)" fill="#2c516e"/>
        <path id="Path_188" data-name="Path 188" d="M251.3,183.221a1.941,1.941,0,0,1-.11-.356,1.882,1.882,0,0,1,.01-.366.122.122,0,0,0-.206-.086.759.759,0,0,0,.022.973.163.163,0,0,0,.165.044.19.19,0,0,0,.075-.044.168.168,0,0,0,.044-.165" transform="translate(-51.619 -37.531)" fill="#2c516e"/>
        <path id="Path_189" data-name="Path 189" d="M253.192,182.186a1.384,1.384,0,0,0-.121-.554.087.087,0,0,0-.157.021,1.554,1.554,0,0,0-.048.618,1.223,1.223,0,0,0,.1.568.117.117,0,0,0,.211-.028,1.36,1.36,0,0,0,.016-.625" transform="translate(-52.035 -37.369)" fill="#2c516e"/>
        <path id="Path_190" data-name="Path 190" d="M243.474,175.059a1.891,1.891,0,1,1-1.891-1.891,1.891,1.891,0,0,1,1.891,1.891" transform="translate(-49.326 -35.636)" fill="#faaf70"/>
        <path id="Path_191" data-name="Path 191" d="M199.982,218.226c-.954,1.121-1.9,2.242-2.913,3.315a27.734,27.734,0,0,0-2.785,2.92c-.048.07.045.154.114.114a15.4,15.4,0,0,0,2.943-2.761c1.011-1.067,2-2.165,2.914-3.316.152-.191-.11-.465-.273-.272" transform="translate(-39.979 -44.895)" fill="#274082"/>
        <path id="Path_192" data-name="Path 192" d="M210.94,229.094a.1.1,0,0,0-.042-.06c-.443-1.555-1.7-3.137-3.058-3.421a.036.036,0,0,0-.036.06,11.907,11.907,0,0,1,2.071,2.225,9.259,9.259,0,0,1,.813,2.689c.011,1.021.091,2.051.065,3.063a43.805,43.805,0,0,1-.359,4.538.154.154,0,0,0-.036.1c-.006.1-.01.209-.016.312-.017.35.489.329.531,0a43.306,43.306,0,0,0,.363-4.947,17.092,17.092,0,0,0-.3-4.557" transform="translate(-42.762 -46.428)" fill="#274082"/>
        <path id="Path_193" data-name="Path 193" d="M216.148,227.793c-.019-.152-.226-.248-.315-.085a25.559,25.559,0,0,1-1.341,2.971c-.641.9-1.654,1.4-2.287,2.253a.047.047,0,0,0,.04.07c1.861-.137,4.128-3.443,3.9-5.209" transform="translate(-43.668 -46.842)" fill="#274082"/>
        <path id="Path_194" data-name="Path 194" d="M220.258,223.241a25.163,25.163,0,0,1-4.629-2.557,44.788,44.788,0,0,1-4.042-3.846.085.085,0,0,0-.133.1,13.673,13.673,0,0,0,3.889,4.114,17.224,17.224,0,0,0,4.722,2.646c.266.092.455-.342.194-.461" transform="translate(-43.513 -44.618)" fill="#274082"/>
        <path id="Path_195" data-name="Path 195" d="M219.614,220.427a22.112,22.112,0,0,1-2.206-1.936,23.761,23.761,0,0,1-3.425-4.759c-.044-.077-.181-.026-.149.063a15.1,15.1,0,0,0,2.752,4.5,17.012,17.012,0,0,0,2.052,2.014c.6.5,1.171,1.1,1.795,1.561.114.083.226-.055.21-.162-.083-.6-.569-.918-1.03-1.281" transform="translate(-44.004 -43.976)" fill="#274082"/>
        <path id="Path_196" data-name="Path 196" d="M242.864,187.076c1.285,2.225.021,8.519-3.18,13.232-2.727,4.015-3.666,4.386-3.958,4.707l2.152-.39a26.578,26.578,0,0,0,5.458-8.582c1.779-4.71,1.032-7.406,1.032-7.406Z" transform="translate(-48.51 -38.498)" fill="#ed1651"/>
        <path id="Path_197" data-name="Path 197" d="M199.4,258.025c-.68-.407-1.478-.577-2.171-.989a22.786,22.786,0,0,1-2-1.391.244.244,0,0,0-.365.21,4.934,4.934,0,0,0,2.09,3.906.078.078,0,0,0,.025.068c.14.137.151.141.344.094a.181.181,0,0,0,.079-.3,4.933,4.933,0,0,1-2-3.221c1.1.9,2.556,2.078,3.909,1.967a.186.186,0,0,0,.093-.344" transform="translate(-40.1 -52.601)" fill="#274082"/>
        <path id="Path_198" data-name="Path 198" d="M223.281,258.967a7.964,7.964,0,0,0-3.8,1.371.185.185,0,0,0,.044.333l.286.114c.071.043.137-.052.086-.111-.183-.21,1.376-.786,1.512-.832a9.367,9.367,0,0,1,1.872-.4c.295-.036.3-.5,0-.469" transform="translate(-45.149 -53.292)" fill="#274082"/>
        <path id="Path_199" data-name="Path 199" d="M225.4,261.407a9.625,9.625,0,0,0-5.112.878.171.171,0,0,0,.091.33c.833-.186,1.658-.4,2.5-.531a18.906,18.906,0,0,0,2.52-.324.184.184,0,0,0,0-.353" transform="translate(-45.308 -53.774)" fill="#274082"/>
        <path id="Path_200" data-name="Path 200" d="M222.622,291.557a60.892,60.892,0,0,1-1.956-10.125c-.326-3.345-.116-6.626-.149-9.969,0-.148-.239-.192-.268-.037a37.739,37.739,0,0,0-.09,10.212A50.589,50.589,0,0,0,222.11,291.7a.266.266,0,0,0,.512-.141" transform="translate(-45.244 -55.836)" fill="#274082"/>
        <path id="Path_201" data-name="Path 201" d="M232.4,210.262a12.02,12.02,0,0,1-3.189-1.631c-.982-.729-1.634-1.753-2.557-2.511a.059.059,0,0,0-.1.057,6.637,6.637,0,0,0,2.375,2.816,10.245,10.245,0,0,0,3.336,1.75c.307.1.433-.375.133-.482" transform="translate(-46.621 -42.414)" fill="#274082"/>
        <path id="Path_202" data-name="Path 202" d="M211.236,196.909c-2.761,2.282-10.53,3.215-10.82,3.717s-12.326,11.383-14.832,9.936-1.14-3.621-.4-4.895,9.083-10.785,10.673-11.7,13.629-9.107,14.856-8.215.528,11.159.528,11.159" transform="translate(-37.894 -38.211)" fill="#faaf70"/>
        <path id="Path_203" data-name="Path 203" d="M210.829,186.267a38,38,0,0,0-10.133,5.252,41.59,41.59,0,0,0-4.252,3.448,18.346,18.346,0,0,0-3.77,4.17.061.061,0,0,0,.1.073c1.387-1.121,2.509-2.619,3.83-3.832a42.964,42.964,0,0,1,4.47-3.58,48.8,48.8,0,0,1,9.876-5.108c.254-.1.158-.511-.116-.423" transform="translate(-39.648 -38.329)" fill="#e08b43"/>
        <path id="Path_204" data-name="Path 204" d="M225.206,180.4c1.238.133,3.135.329,3.289,4.487s-11.182,15.162-13.684,11.225S214,185,214.81,184.19s8.051-4.039,10.4-3.788" transform="translate(-43.935 -37.122)" fill="#ceddf1"/>
        <path id="Path_205" data-name="Path 205" d="M228.867,188.723c.135-.229-.149-.554-.384-.384a1.565,1.565,0,0,0-.391.349.179.179,0,0,0,0,.215,25.029,25.029,0,0,1-11.464,9.438c-.23.1-.067.481.17.4a20.536,20.536,0,0,0,6.482-3.564,3.741,3.741,0,0,0,1.951.32,10.9,10.9,0,0,0,2.314-.25c.331-.071.189-.57-.14-.505a13.314,13.314,0,0,1-2.325.272,10.928,10.928,0,0,0-1.588-.01,24.071,24.071,0,0,0,5.379-6.283" transform="translate(-44.556 -38.748)" fill="#94b0d4"/>
        <path id="Path_206" data-name="Path 206" d="M235.463,172.257c4.269-1.84,12.3-5.628,12.666-5.995s-2.738-4.052-7.535-3.4c-4.137.562-5.334,2.218-5.7,4.463a11.867,11.867,0,0,0,.571,4.931" transform="translate(-48.32 -33.499)" fill="#ed1651"/>
        <path id="Path_207" data-name="Path 207" d="M249.552,167.279a.442.442,0,0,1-.11-.865c.292-.107,3.663-1.592,5.875-2.572a.442.442,0,0,1,.357.808c-5.83,2.581-5.961,2.609-6.018,2.62a.464.464,0,0,1-.1.009" transform="translate(-51.267 -33.709)" fill="#d61350"/>
        <path id="Path_208" data-name="Path 208" d="M252.862,180.122a2.169,2.169,0,0,1-.582-.039,2.121,2.121,0,0,0-.5-.123c-.168,0-.168.164-.1.25l0,0c.235.3.837.332,1.187.321.264-.008.264-.423,0-.411" transform="translate(-51.784 -37.034)" fill="#faaf70"/>
        <path id="Path_209" data-name="Path 209" d="M217.15,303.5c.327,3.336-.221,5.694.148,6.063s18.678.11,19.868.1c2.026-.019,1.9-3.34.466-3.557a33.018,33.018,0,0,1-6.67-2.526c-2.646-1.215-2.456-4.044-3.982-3.432s-2.068,2.785-4.78,2.907c-2.395.106-5.274-1.847-5.05.448" transform="translate(-44.685 -61.749)" fill="#94b0d4"/>
        <path id="Path_210" data-name="Path 210" d="M237.172,311.06c2.026-.02,1.9-3.34.466-3.557a12.454,12.454,0,0,1-2.211-.637A10.378,10.378,0,0,1,233.8,309c-.415.239-12.148.087-16.586.024-.05,1.063-.1,1.751.089,1.937.368.369,18.678.109,19.868.1" transform="translate(-44.691 -63.15)" fill="#d1d3d4"/>
        <path id="Path_211" data-name="Path 211" d="M232.364,303.318c-.2.142-.38.3-.569.449a1.763,1.763,0,0,0-.495.5.29.29,0,0,0,.323.421,1.744,1.744,0,0,0,.6-.361c.192-.147.388-.288.573-.444.307-.258-.1-.8-.434-.561" transform="translate(-47.591 -62.407)" fill="#d1d3d4"/>
        <path id="Path_212" data-name="Path 212" d="M235.874,305.158a.371.371,0,0,0-.521,0,9.492,9.492,0,0,0-.693.905.34.34,0,0,0,.531.41,8.564,8.564,0,0,0,.682-.794.379.379,0,0,0,0-.521" transform="translate(-48.28 -62.776)" fill="#d1d3d4"/>
        <path id="Path_213" data-name="Path 213" d="M224.476,305.154a3.356,3.356,0,0,1-1.488.663,3.182,3.182,0,0,1-1.678-.563c-.9-.5-1.924-1.094-2.97-.7a.333.333,0,0,0,.177.642c1.455-.241,2.452,1.059,3.788,1.362a2.422,2.422,0,0,0,2.626-.95.335.335,0,0,0-.455-.455" transform="translate(-44.884 -62.648)" fill="#d1d3d4"/>
        <path id="Path_214" data-name="Path 214" d="M246.387,166.757c-.4-1.937-3.2-3.466-5.025-3.5a.139.139,0,0,0-.037.27h0a8.56,8.56,0,0,1,2.755,1.19,18.106,18.106,0,0,1,2.014,2.2.176.176,0,0,0,.292-.169" transform="translate(-49.642 -33.597)" fill="#d61350"/>
        <path id="Path_215" data-name="Path 215" d="M238.963,164.082c-1.645,1-1.31,4.027-.612,5.5.11.234.416.053.384-.162-.258-1.743-.935-3.658.366-5.162.08-.094-.022-.249-.138-.179" transform="translate(-48.932 -33.763)" fill="#d61350"/>
        <path id="Path_216" data-name="Path 216" d="M202.8,200.624c-.712.407-.539,1.558-.007,2.038.118.106.23-.024.213-.125h0l0-.012v0c-.1-.48-.589-1.037-.115-1.49.585-.558.854.549,1.117.828a.127.127,0,0,0,.21-.056c.107-.695-.712-1.584-1.416-1.18" transform="translate(-41.637 -41.265)" fill="#e08b43"/>
        <path id="Path_217" data-name="Path 217" d="M242.26,175.734a.6.6,0,0,1-.92-.4c-.084-.446.247-.667.561-.891a.127.127,0,0,0-.064-.235,1.053,1.053,0,0,0-.859,1.338.988.988,0,0,0,1.5.562c.219-.16.029-.512-.218-.372" transform="translate(-49.583 -35.85)" fill="#e08b43"/>
        <path id="Path_218" data-name="Path 218" d="M559.918,133.741s15.681-1.125,27.716,5.822,21.892,26.318,21.892,26.318H563.412Z" transform="translate(-115.225 -27.508)" fill="#ceddf1"/>
        <path id="Path_219" data-name="Path 219" d="M603.919,173.361c-2.548-9.175-9.512-16.207-17.051-21.614a116.11,116.11,0,0,0-13.124-8.181,37.879,37.879,0,0,0-13.738-4.614c-.186-.02-.231.3-.044.33,9.5,1.415,18.16,7.105,25.868,12.543,7.753,5.471,14.659,12.416,17.419,21.722a.348.348,0,0,0,.67-.185" transform="translate(-115.209 -28.594)" fill="#94b0d4"/>
        <path id="Path_220" data-name="Path 220" d="M562.557,174.226h47.512a178.26,178.26,0,0,1,17.817,21.66c9.782,13.741,12.344,17.933,12.344,17.933s24.338,11.063,32.839,26.9c6.889,12.832,7.277,23.863,7.177,27.587a1.382,1.382,0,0,1-1.384,1.343H567.1Z" transform="translate(-115.768 -35.854)" fill="#ebaf6a"/>
        <path id="Path_221" data-name="Path 221" d="M635.113,268.6a21.059,21.059,0,1,1-24.6,16.779,21.059,21.059,0,0,1,24.6-16.779" transform="translate(-125.56 -55.199)" fill="#1e374a"/>
        <path id="Path_222" data-name="Path 222" d="M635.57,276.336a14.83,14.83,0,1,1-17.327,11.817,14.831,14.831,0,0,1,17.327-11.817" transform="translate(-127.174 -56.813)" fill="#94b0d4"/>
        <path id="Path_223" data-name="Path 223" d="M628.6,294.2l-3.445-.651a.761.761,0,0,1-.39-.2l-3.2-3.153a.756.756,0,0,1,.671-1.281l4.716,1.472a.754.754,0,0,1,.574.5l1.928,2.333a.756.756,0,0,1-.855.986" transform="translate(-127.864 -59.453)" fill="#1e374a"/>
        <path id="Path_224" data-name="Path 224" d="M632.224,300.2l-2.287,2.658a.754.754,0,0,1-.372.235l-4.33,1.194a.756.756,0,0,1-.774-1.221l3.631-3.348a.755.755,0,0,1,.72-.249l2.985-.5a.756.756,0,0,1,.427,1.234" transform="translate(-128.47 -61.523)" fill="#1e374a"/>
        <path id="Path_225" data-name="Path 225" d="M639.81,299.561l1.158,3.309a.749.749,0,0,1,.018.44l-1.131,4.347a.755.755,0,0,1-1.444.06l-1.084-4.82a.754.754,0,0,1,.144-.747l1.056-2.837a.756.756,0,0,1,1.283.248" transform="translate(-131.146 -61.542)" fill="#1e374a"/>
        <path id="Path_226" data-name="Path 226" d="M642.607,293.922l3.445.651a.761.761,0,0,1,.39.2l3.2,3.153a.756.756,0,0,1-.671,1.281l-4.716-1.472a.754.754,0,0,1-.574-.5l-1.928-2.333a.756.756,0,0,1,.855-.986" transform="translate(-132.057 -60.483)" fill="#1e374a"/>
        <path id="Path_227" data-name="Path 227" d="M638.985,287.92l2.286-2.657a.749.749,0,0,1,.372-.236l4.33-1.194a.756.756,0,0,1,.774,1.221l-3.631,3.348a.755.755,0,0,1-.72.249l-2.985.5a.756.756,0,0,1-.427-1.234" transform="translate(-131.458 -58.404)" fill="#1e374a"/>
        <path id="Path_228" data-name="Path 228" d="M632.541,287.568l-1.158-3.31a.749.749,0,0,1-.018-.44l1.131-4.347a.755.755,0,0,1,1.444-.059l1.084,4.819a.755.755,0,0,1-.144.747l-1.056,2.837a.756.756,0,0,1-1.283-.248" transform="translate(-129.923 -57.396)" fill="#1e374a"/>
        <path id="Path_229" data-name="Path 229" d="M613.64,280.408c-5.023,6.93-4.435,17.284.865,23.87a.347.347,0,0,0,.573-.39,21.715,21.715,0,0,1-3.961-11.019c-.232-4.405,1.175-8.188,3.22-12,.222-.413-.412-.852-.7-.461" transform="translate(-125.569 -57.674)" fill="#43585c"/>
        <path id="Path_230" data-name="Path 230" d="M654.443,292.393a5.939,5.939,0,0,1-5.939-5.939,20.146,20.146,0,1,0-40.292,0,5.939,5.939,0,1,1-11.878,0,32.024,32.024,0,0,1,64.048,0,5.939,5.939,0,0,1-5.939,5.939" transform="translate(-122.719 -52.359)" fill="#420cc6"/>
        <path id="Path_231" data-name="Path 231" d="M573.115,187.037v31.5a.785.785,0,0,0,.786.786h54.728a.789.789,0,0,0,.67-1.208,242.085,242.085,0,0,0-24.336-31.555.792.792,0,0,0-.588-.263l-30.473-.045a.786.786,0,0,0-.786.786" transform="translate(-117.941 -38.328)" fill="#5f19e1"/>
        <path id="Path_232" data-name="Path 232" d="M697.557,254.509c-2.661-4.957-6.874-9.446-11.406-13.275-2.989,1.244-5.4,3.1-4.344,7.395,1.31,5.328,7.249,14.05,7.948,14.05l11.473,0a63.312,63.312,0,0,0-3.671-8.171" transform="translate(-140.256 -49.643)" fill="#ceddf1"/>
        <path id="Path_233" data-name="Path 233" d="M591.122,246.476h-8.384a1.485,1.485,0,1,1,0-2.97h8.384a1.485,1.485,0,0,1,0,2.97" transform="translate(-119.615 -50.111)" fill="#2c516e"/>
        <rect id="Rectangle_16" data-name="Rectangle 16" width="2.562" height="33.071" transform="translate(481.608 147.923)" fill="#ebaf6a"/>
        <path id="Path_234" data-name="Path 234" d="M518.127,259.607H324.586V129.142a3.716,3.716,0,0,1,3.716-3.717H514.41a3.717,3.717,0,0,1,3.717,3.717Z" transform="translate(-66.796 -25.811)" fill="#ed1651"/>
        <rect id="Rectangle_17" data-name="Rectangle 17" width="193.541" height="15.538" transform="translate(257.79 218.258)" fill="#d61350"/>
        <rect id="Rectangle_18" data-name="Rectangle 18" width="2.812" height="121.357" transform="translate(313.682 108.794)" fill="#d61350"/>
        <rect id="Rectangle_19" data-name="Rectangle 19" width="2.812" height="121.357" transform="translate(388.78 108.794)" fill="#d61350"/>
        <path id="Path_235" data-name="Path 235" d="M401.208,289.3a21.059,21.059,0,1,1-21.059-21.058A21.058,21.058,0,0,1,401.208,289.3" transform="translate(-73.897 -55.2)" fill="#1e374a"/>
        <path id="Path_236" data-name="Path 236" d="M396.593,290.91a14.831,14.831,0,1,1-14.831-14.83,14.831,14.831,0,0,1,14.831,14.83" transform="translate(-75.511 -56.814)" fill="#94b0d4"/>
        <path id="Path_237" data-name="Path 237" d="M383.646,286.763v-3.506a.758.758,0,0,1,.128-.421l2.5-3.729a.755.755,0,0,1,1.383.421l-.57,4.907a.755.755,0,0,1-.383.657l-1.934,2.329a.756.756,0,0,1-1.128-.658" transform="translate(-78.95 -57.368)" fill="#1e374a"/>
        <path id="Path_238" data-name="Path 238" d="M378.1,291.625l-3.036-1.753a.764.764,0,0,1-.3-.322l-1.978-4.033a.756.756,0,0,1,1.056-.987l3.966,2.947a.755.755,0,0,1,.377.66l1.049,2.839a.755.755,0,0,1-1.133.649" transform="translate(-76.7 -58.532)" fill="#1e374a"/>
        <path id="Path_239" data-name="Path 239" d="M379.216,298.912l-3.036,1.753a.759.759,0,0,1-.429.1l-4.481-.3a.755.755,0,0,1-.327-1.408l4.534-1.961a.758.758,0,0,1,.761,0l2.983.511a.755.755,0,0,1,0,1.306" transform="translate(-76.258 -61.117)" fill="#1e374a"/>
        <path id="Path_240" data-name="Path 240" d="M386.525,300.477v3.506a.758.758,0,0,1-.128.421l-2.5,3.729a.755.755,0,0,1-1.383-.421l.569-4.907a.755.755,0,0,1,.383-.657l1.934-2.329a.756.756,0,0,1,1.129.658" transform="translate(-78.716 -61.679)" fill="#1e374a"/>
        <path id="Path_241" data-name="Path 241" d="M391.418,295.989l3.036,1.753a.764.764,0,0,1,.3.322l1.978,4.033a.756.756,0,0,1-1.056.987l-3.966-2.947a.757.757,0,0,1-.377-.661l-1.049-2.839a.755.755,0,0,1,1.133-.649" transform="translate(-80.316 -60.89)" fill="#1e374a"/>
        <path id="Path_242" data-name="Path 242" d="M389.654,289.616l3.036-1.753a.758.758,0,0,1,.429-.1l4.481.3a.756.756,0,0,1,.327,1.408l-4.534,1.96a.756.756,0,0,1-.761,0l-2.983-.511a.755.755,0,0,1,0-1.306" transform="translate(-80.109 -59.218)" fill="#1e374a"/>
        <path id="Path_243" data-name="Path 243" d="M389.493,269.922c-7.743-3.649-17.807-1.147-23.294,5.285-.286.335.167.806.49.49a21.713,21.713,0,0,1,10.091-5.94c4.285-1.046,8.264-.366,12.388.935.447.141.762-.564.325-.77" transform="translate(-75.341 -55.2)" fill="#43585c"/>
        <path id="Path_244" data-name="Path 244" d="M403.392,292.393a5.939,5.939,0,0,1-5.939-5.939,20.146,20.146,0,1,0-40.292,0,5.939,5.939,0,0,1-11.878,0,32.024,32.024,0,0,1,64.048,0,5.939,5.939,0,0,1-5.939,5.939" transform="translate(-71.055 -52.359)" fill="#420cc6"/>
        <path id="Path_245" data-name="Path 245" d="M644.878,242.174c0-2.521,0-5.041-.015-7.562-.013-2.256.249-4.757-.26-6.964a.121.121,0,0,0-.231,0c-.51,2.209-.248,4.706-.26,6.964-.014,2.521-.011,5.041-.015,7.562-.009,5.022-.25,10.108,0,15.123-.029.5.747.5.773,0,.255-5.015.013-10.1,0-15.123" transform="translate(-132.525 -46.83)" fill="#b88542"/>
        <path id="Path_246" data-name="Path 246" d="M624.941,230.767c-4.055-.542-8.373-.15-12.462-.15H600.017c-8.311,0-16.616.014-24.924.17a.163.163,0,0,0,0,.326c8.307.156,16.613.17,24.924.17H612.16c4.191,0,8.624.405,12.781-.15a.183.183,0,0,0,0-.365" transform="translate(-118.316 -47.43)" fill="#b88542"/>
        <path id="Path_247" data-name="Path 247" d="M693.99,251.586a14.534,14.534,0,0,0-3.1.18c-.9.082-1.8.152-2.692.318-.157.029-.113.265.037.27,1.033.033,2.068-.057,3.1-.122a12.375,12.375,0,0,0,2.707-.274.191.191,0,0,0-.051-.373" transform="translate(-141.603 -51.765)" fill="#94b0d4"/>
        <path id="Path_248" data-name="Path 248" d="M698.4,259.509a34.765,34.765,0,0,0-5.077.778.158.158,0,0,0,.042.31,34.831,34.831,0,0,0,5.116-.488c.337-.048.261-.637-.081-.6" transform="translate(-142.655 -53.404)" fill="#94b0d4"/>
        <path id="Path_249" data-name="Path 249" d="M355.418,160.2c-.412.535-.836,1.048-1.221,1.6-.064.093.073.183.15.116.027-.025.052-.05.078-.075-2.5,4.1-5.126,8.122-7.969,12-3.332,4.547-7.008,8.774-10.595,13.112-.1.122.061.293.177.177a111.475,111.475,0,0,0,10.489-12.576,149.208,149.208,0,0,0,9.323-14.106c.166-.288-.241-.5-.432-.253" transform="translate(-69.11 -32.946)" fill="#d61350"/>
        <path id="Path_250" data-name="Path 250" d="M353.083,181.613c-3.8,3.537-6.753,8.532-8.949,13.182-.044.095.091.177.143.083,1.29-2.324,2.655-4.606,4.17-6.79s3.3-4.158,4.865-6.3c.1-.137-.112-.284-.228-.176" transform="translate(-70.817 -37.366)" fill="#d61350"/>
        <path id="Path_251" data-name="Path 251" d="M452.649,168.027c-2.883,3.9-5.45,8.074-8.144,12.109l-7.927,11.869c-5.339,8-10.812,15.922-15.945,24.051-.056.089.079.164.138.081,5.551-7.856,10.784-15.949,16.131-23.943l7.936-11.864c2.7-4.031,5.569-8,8.07-12.152.1-.17-.147-.3-.259-.152" transform="translate(-86.559 -34.564)" fill="#d61350"/>
        <path id="Path_252" data-name="Path 252" d="M444.321,210.747c-5.188,5.39-10.1,11.041-15.129,16.581-.059.064.036.16.1.1,5.07-5.5,10.262-10.9,15.168-16.543.079-.091-.048-.223-.134-.134" transform="translate(-88.319 -43.363)" fill="#d61350"/>
        <path id="Path_253" data-name="Path 253" d="M525.5,165.7c-2.688,3.675-5,7.682-7.35,11.577q-3.543,5.868-6.89,11.852c-4.458,7.958-8.841,16.041-12.556,24.378-.023.052.049.1.077.046,4.241-8.1,8.32-16.263,12.805-24.234q3.286-5.841,6.741-11.585c2.4-4,5.03-7.887,7.319-11.948a.085.085,0,0,0-.147-.086" transform="translate(-102.626 -34.091)" fill="#d61350"/>
        <path id="Path_254" data-name="Path 254" d="M522.775,201.884a248.309,248.309,0,0,0-14.212,25.875c-.021.044.043.082.065.038,4.416-8.8,9.3-17.34,14.3-25.821a.09.09,0,0,0-.156-.091" transform="translate(-104.656 -41.537)" fill="#d61350"/>
        <path id="Path_255" data-name="Path 255" d="M592.243,196.3q-5.453,5.328-10.492,11.048c-.269.306.179.757.449.45q5.038-5.721,10.492-11.048c.293-.287-.157-.735-.45-.45" transform="translate(-119.701 -40.377)" fill="#ceddf1"/>
        <path id="Path_256" data-name="Path 256" d="M590.973,205.019l-3.522,3.363c-.3.283.153.731.449.449l3.522-3.362c.3-.283-.153-.732-.449-.45" transform="translate(-120.871 -42.172)" fill="#ceddf1"/>
        <path id="Path_257" data-name="Path 257" d="M621.611,206.051a54.919,54.919,0,0,0-4.82,5.267c-.253.316.193.769.449.45a54.927,54.927,0,0,1,4.821-5.267c.3-.284-.154-.733-.45-.45" transform="translate(-126.913 -42.384)" fill="#ceddf1"/>
        <path id="Path_258" data-name="Path 258" d="M623.285,210.875l-2.162,1.921c-.306.272.144.72.449.45l2.162-1.921c.306-.272-.145-.72-.449-.45" transform="translate(-127.799 -43.379)" fill="#ceddf1"/>
        <rect id="Rectangle_20" data-name="Rectangle 20" width="33.61" height="33.232" transform="translate(313.093 221.874)" fill="#ebaf6a"/>
        <rect id="Rectangle_21" data-name="Rectangle 21" width="33.61" height="33.232" transform="translate(333.897 221.874)" fill="#d1954f"/>
        <rect id="Rectangle_22" data-name="Rectangle 22" width="40.405" height="53.758" transform="translate(351.393 201.348)" fill="#d1954f"/>
        <rect id="Rectangle_23" data-name="Rectangle 23" width="40.405" height="53.758" transform="translate(338.526 201.348)" fill="#ebaf6a"/>
        <rect id="Rectangle_24" data-name="Rectangle 24" width="3.607" height="53.758" transform="translate(356.926 201.348)" fill="#d1d3d4"/>
        <rect id="Rectangle_25" data-name="Rectangle 25" width="55.677" height="32.505" transform="translate(343.998 168.843)" fill="#ebaf6a"/>
        <path id="Path_259" data-name="Path 259" d="M464.108,244.1a23.4,23.4,0,0,0-4.306-.075l-4.643.016a.132.132,0,0,0,0,.264l4.643.016a23.468,23.468,0,0,0,4.306-.075.077.077,0,0,0,0-.147" transform="translate(-93.64 -50.205)" fill="#2c516e"/>
        <path id="Path_260" data-name="Path 260" d="M463.7,245.959c-1.732-.1-3.5-.019-5.231-.018a.08.08,0,0,0,0,.16c1.735,0,3.5.086,5.231-.018a.062.062,0,0,0,0-.124" transform="translate(-94.331 -50.605)" fill="#2c516e"/>
        <path id="Path_261" data-name="Path 261" d="M463.33,248.017a17.1,17.1,0,0,0-3.24-.051c-1.187.014-2.372.072-3.56.081a.1.1,0,0,0,0,.2c1.187.009,2.372.068,3.56.082a17.168,17.168,0,0,0,3.24-.051.136.136,0,0,0,0-.261" transform="translate(-93.929 -51.018)" fill="#2c516e"/>
        <rect id="Rectangle_26" data-name="Rectangle 26" width="26.095" height="32.505" transform="translate(373.58 168.843)" fill="#d1954f"/>
        <rect id="Rectangle_27" data-name="Rectangle 27" width="4.329" height="4.961" transform="translate(356.204 168.842)" fill="#d1d3d4"/>
        <rect id="Rectangle_28" data-name="Rectangle 28" width="6.674" height="4.51" transform="translate(384.073 168.842)" fill="#d1d3d4"/>
        <rect id="Rectangle_29" data-name="Rectangle 29" width="38.412" height="18.879" transform="translate(393.25 236.279)" fill="#d1954f"/>
        <rect id="Rectangle_30" data-name="Rectangle 30" width="20.734" height="18.879" transform="translate(389.102 236.279)" fill="#ebaf6a"/>
        <rect id="Rectangle_31" data-name="Rectangle 31" width="5.712" height="3.508" transform="translate(396.728 236.278)" fill="#d1d3d4"/>
        <rect id="Rectangle_32" data-name="Rectangle 32" width="21.945" height="0.601" transform="translate(409.717 237.742)" fill="#ebaf6a"/>
        <rect id="Rectangle_33" data-name="Rectangle 33" width="21.945" height="0.601" transform="translate(409.717 240.146)" fill="#ebaf6a"/>
        <rect id="Rectangle_34" data-name="Rectangle 34" width="21.945" height="0.601" transform="translate(409.717 242.552)" fill="#ebaf6a"/>
        <rect id="Rectangle_35" data-name="Rectangle 35" width="21.945" height="0.601" transform="translate(409.717 244.957)" fill="#ebaf6a"/>
        <rect id="Rectangle_36" data-name="Rectangle 36" width="21.945" height="0.601" transform="translate(409.717 247.362)" fill="#ebaf6a"/>
        <rect id="Rectangle_37" data-name="Rectangle 37" width="21.945" height="0.601" transform="translate(409.717 249.767)" fill="#ebaf6a"/>
        <rect id="Rectangle_38" data-name="Rectangle 38" width="21.945" height="0.601" transform="translate(409.717 252.172)" fill="#ebaf6a"/>
        <rect id="Rectangle_39" data-name="Rectangle 39" width="47.73" height="13.598" transform="translate(383.51 222.681)" fill="#ebaf6a"/>
        <rect id="Rectangle_40" data-name="Rectangle 40" width="27.688" height="13.598" transform="translate(403.553 222.681)" fill="#d1954f"/>
        <path id="Path_262" data-name="Path 262" d="M538.489,283.307a23.4,23.4,0,0,0-4.306-.075l-4.643.016a.132.132,0,0,0,0,.264l4.643.016a23.469,23.469,0,0,0,4.306-.075.077.077,0,0,0,0-.147" transform="translate(-108.947 -58.273)" fill="#2c516e"/>
        <path id="Path_263" data-name="Path 263" d="M538.077,285.161c-1.733-.1-3.5-.019-5.231-.018a.08.08,0,0,0,0,.16c1.736,0,3.5.086,5.231-.018a.062.062,0,0,0,0-.124" transform="translate(-109.638 -58.672)" fill="#2c516e"/>
        <path id="Path_264" data-name="Path 264" d="M537.711,287.218a17.038,17.038,0,0,0-3.24-.051c-1.187.014-2.372.072-3.56.081a.1.1,0,0,0,0,.2c1.187.009,2.372.068,3.56.082a17.173,17.173,0,0,0,3.24-.051.136.136,0,0,0,0-.261" transform="translate(-109.236 -59.085)" fill="#2c516e"/>
        <rect id="Rectangle_41" data-name="Rectangle 41" width="1.864" height="13.598" transform="translate(391.708 222.681)" fill="#d1954f"/>
        <path id="Path_265" data-name="Path 265" d="M412.873,279.364l-8.057,10.011H383.772l8.3-10.011Z" transform="translate(-78.976 -57.49)" fill="#d1954f"/>
      </g>
    </g>
    <g id="Group_7" data-name="Group 7" transform="translate(480.49 521.706)">
      <g id="Group_1" data-name="Group 1" transform="translate(0 0)" clip-path="url(#clip-path-2)">
        <path id="Path_1" data-name="Path 1" d="M3.113,2.151a1.276,1.276,0,0,1,.538.427,1.136,1.136,0,0,1,.218.5,6.212,6.212,0,0,1,.04.839V6.47H2.749V3.825a1.171,1.171,0,0,0-.119-.566.594.594,0,0,0-.585-.3.8.8,0,0,0-.678.3,1.385,1.385,0,0,0-.231.859V6.47H0V0H1.136V2.689a1.387,1.387,0,0,1,.569-.528,1.6,1.6,0,0,1,.68-.15,1.838,1.838,0,0,1,.728.14" transform="translate(0 0)" fill="#fff"/>
        <path id="Path_2" data-name="Path 2" d="M19.48,10.531a2.021,2.021,0,0,1-1.669.679,2.022,2.022,0,0,1-1.67-.679,2.515,2.515,0,0,1-.55-1.634,2.532,2.532,0,0,1,.55-1.628,2.008,2.008,0,0,1,1.67-.689,2.007,2.007,0,0,1,1.669.689A2.532,2.532,0,0,1,20.03,8.9a2.515,2.515,0,0,1-.55,1.634M18.571,9.9A1.646,1.646,0,0,0,18.838,8.9a1.637,1.637,0,0,0-.267-1,1.009,1.009,0,0,0-1.532,0,1.629,1.629,0,0,0-.269,1A1.638,1.638,0,0,0,17.039,9.9a1.006,1.006,0,0,0,1.532,0" transform="translate(-10.882 -4.592)" fill="#fff"/>
        <path id="Path_3" data-name="Path 3" d="M34.036,7.042V9.66a1.379,1.379,0,0,0,.087.558.6.6,0,0,0,.607.331.792.792,0,0,0,.793-.47,1.708,1.708,0,0,0,.111-.673V7.042h1.151v4.343h-1.1v-.614c-.011.014-.037.053-.079.12a.81.81,0,0,1-.151.175,1.578,1.578,0,0,1-.515.327,1.746,1.746,0,0,1-.582.088,1.3,1.3,0,0,1-1.3-.693,2.66,2.66,0,0,1-.187-1.128V7.042Z" transform="translate(-22.943 -4.915)" fill="#fff"/>
        <path id="Path_4" data-name="Path 4" d="M49.733,9.713a.757.757,0,0,0,.156.43,1.059,1.059,0,0,0,.785.227,1.2,1.2,0,0,0,.535-.1.319.319,0,0,0,.2-.3.323.323,0,0,0-.16-.291,6.512,6.512,0,0,0-1.188-.343,2.468,2.468,0,0,1-1.043-.458.994.994,0,0,1-.3-.781,1.354,1.354,0,0,1,.473-1.034,1.9,1.9,0,0,1,1.332-.432,2.445,2.445,0,0,1,1.327.325,1.39,1.39,0,0,1,.589,1.122H51.3a.67.67,0,0,0-.124-.347.781.781,0,0,0-.639-.231.921.921,0,0,0-.529.116.332.332,0,0,0-.158.271.3.3,0,0,0,.168.283,7.246,7.246,0,0,0,1.185.315,2.172,2.172,0,0,1,1.017.482,1.094,1.094,0,0,1,.335.817,1.319,1.319,0,0,1-.481,1.054,2.892,2.892,0,0,1-3-.024,1.406,1.406,0,0,1-.489-1.1Z" transform="translate(-33.908 -4.629)" fill="#fff"/>
        <path id="Path_5" data-name="Path 5" d="M66.543,6.864a1.765,1.765,0,0,1,.751.642,2.134,2.134,0,0,1,.346.9,5.5,5.5,0,0,1,.037.862H64.514a1.042,1.042,0,0,0,.454.917,1.157,1.157,0,0,0,.626.163.88.88,0,0,0,.864-.5h1.16a1.42,1.42,0,0,1-.421.785,2.111,2.111,0,0,1-1.634.633,2.367,2.367,0,0,1-1.53-.534,2.1,2.1,0,0,1-.663-1.739,2.351,2.351,0,0,1,.6-1.731,2.094,2.094,0,0,1,1.553-.6,2.474,2.474,0,0,1,1.022.2m-1.7.981a1.18,1.18,0,0,0-.3.672H66.5a.947.947,0,0,0-.3-.686,1,1,0,0,0-.674-.234.9.9,0,0,0-.678.248" transform="translate(-44.229 -4.648)" fill="#fff"/>
        <path id="Path_6" data-name="Path 6" d="M81.7,1.807,84.149,4.26,81.7,6.713V8.52l4.26-4.26L81.7,0Z" transform="translate(-57.02 0)" fill="#fff"/>
        <rect id="Rectangle_1" data-name="Rectangle 1" width="1.29" height="1.384" transform="translate(24.677 3.568)" fill="#fff"/>
        <path id="Path_7" data-name="Path 7" d="M31.43,35.927h.287L30.708,38.39h-.288l.33-.807-.675-1.656h.309l.526,1.357Z" transform="translate(-20.991 -25.075)" fill="#fff"/>
        <path id="Path_8" data-name="Path 8" d="M36.914,37.566a.865.865,0,1,1,.859-.868.83.83,0,0,1-.859.868m0-.244a.568.568,0,0,0,.575-.623.563.563,0,0,0-.566-.62.626.626,0,0,0-.009,1.244" transform="translate(-25.182 -25.012)" fill="#fff"/>
        <path id="Path_9" data-name="Path 9" d="M44.342,37.6h-.278v-.247a.616.616,0,0,1-.535.272.653.653,0,0,1-.687-.718v-.981h.275v.944a.449.449,0,0,0,.468.513c.287,0,.479-.177.479-.538v-.92h.278Z" transform="translate(-29.901 -25.075)" fill="#fff"/>
        <path id="Path_10" data-name="Path 10" d="M49.638,37.531H49.36V35.857h.278v.272a.565.565,0,0,1,.541-.3v.287h-.073c-.266,0-.468.119-.468.507Z" transform="translate(-34.451 -25.005)" fill="#fff"/>
        <path id="Path_11" data-name="Path 11" d="M58.115,36.567a.379.379,0,1,0-.755,0V37.5h-.428v-.935a.38.38,0,1,0-.758,0V37.5h-.428V35.809h.428v.2a.616.616,0,0,1,.5-.229.648.648,0,0,1,.6.324.67.67,0,0,1,.581-.324.658.658,0,0,1,.694.724V37.5h-.428Z" transform="translate(-38.908 -24.976)" fill="#fff"/>
        <path id="Path_12" data-name="Path 12" d="M66.844,37.523a.874.874,0,1,1,.883-.874.846.846,0,0,1-.883.874m0-.373a.451.451,0,0,0,.443-.5.438.438,0,1,0-.868,0c0,.336.2.5.425.5" transform="translate(-46.054 -24.969)" fill="#fff"/>
        <path id="Path_13" data-name="Path 13" d="M72.649,35.866l.428,1.3.428-1.3h.455l-.626,1.693h-.52l-.623-1.693Z" transform="translate(-50.385 -25.033)" fill="#fff"/>
        <path id="Path_14" data-name="Path 14" d="M79.327,37.523a.874.874,0,0,1,0-1.748.8.8,0,0,1,.834.838,1.012,1.012,0,0,1-.012.165H78.911a.4.4,0,0,0,.407.391.349.349,0,0,0,.339-.2h.462a.787.787,0,0,1-.791.559m-.413-1.033h.8a.376.376,0,0,0-.4-.364.393.393,0,0,0-.4.364" transform="translate(-54.773 -24.969)" fill="#fff"/>
        <path id="Path_15" data-name="Path 15" d="M84.583,40.2h.306l-.342.822H84.36Z" transform="translate(-58.879 -28.055)" fill="#fff"/>
        <path id="Path_16" data-name="Path 16" d="M90.348,37.566a.865.865,0,1,1,.859-.868.83.83,0,0,1-.859.868m0-.244a.568.568,0,0,0,.575-.623.562.562,0,0,0-.565-.62.626.626,0,0,0-.009,1.244" transform="translate(-62.476 -25.012)" fill="#fff"/>
        <path id="Path_17" data-name="Path 17" d="M97.777,37.6H97.5v-.247a.616.616,0,0,1-.535.272.653.653,0,0,1-.687-.718v-.981h.275v.944a.449.449,0,0,0,.468.513c.287,0,.479-.177.479-.538v-.92h.278Z" transform="translate(-67.196 -25.075)" fill="#fff"/>
        <path id="Path_18" data-name="Path 18" d="M103.073,37.531h-.278V35.857h.278v.272a.564.564,0,0,1,.541-.3v.287h-.073c-.266,0-.468.119-.468.507Z" transform="translate(-71.745 -25.005)" fill="#fff"/>
        <path id="Path_19" data-name="Path 19" d="M109.668,37.523a.874.874,0,0,1,0-1.748.8.8,0,0,1,.834.838,1.012,1.012,0,0,1-.012.165h-1.238a.4.4,0,0,0,.407.391.349.349,0,0,0,.339-.2h.462a.787.787,0,0,1-.791.559m-.413-1.033h.8a.376.376,0,0,0-.4-.364.393.393,0,0,0-.4.364" transform="translate(-75.95 -24.969)" fill="#fff"/>
        <path id="Path_20" data-name="Path 20" d="M115.574,37.034l-.308.526h-.459l.553-.849-.559-.843h.482l.346.522.312-.522h.458l-.556.843.562.849h-.483Z" transform="translate(-80.125 -25.033)" fill="#fff"/>
        <path id="Path_21" data-name="Path 21" d="M121.862,35.776a.791.791,0,0,1,.773.868.8.8,0,0,1-.773.88.692.692,0,0,1-.559-.269V38.3h-.428V35.8h.428v.244a.676.676,0,0,1,.559-.272m-.113.376a.5.5,0,0,0,0,1,.463.463,0,0,0,.449-.5.452.452,0,0,0-.449-.492" transform="translate(-84.364 -24.97)" fill="#fff"/>
        <path id="Path_22" data-name="Path 22" d="M128.213,37.523a.874.874,0,0,1,0-1.748.8.8,0,0,1,.834.838,1.013,1.013,0,0,1-.012.165H127.8a.4.4,0,0,0,.407.391.349.349,0,0,0,.339-.2H129a.787.787,0,0,1-.791.559M127.8,36.49h.8a.376.376,0,0,0-.4-.364.393.393,0,0,0-.4.364" transform="translate(-88.893 -24.969)" fill="#fff"/>
        <path id="Path_23" data-name="Path 23" d="M134.392,37.5h-.428V35.809h.428v.263a.587.587,0,0,1,.52-.288v.449H134.8c-.254,0-.406.1-.406.425Z" transform="translate(-93.5 -24.976)" fill="#fff"/>
        <path id="Path_24" data-name="Path 24" d="M137.8,35.251h-.2V34.9h.2v-.419h.431V34.9h.379v.351h-.379v.819c0,.113.046.162.18.162h.2v.361h-.269c-.324,0-.541-.138-.541-.526Z" transform="translate(-96.039 -24.066)" fill="#fff"/>
        <path id="Path_25" data-name="Path 25" d="M141.816,33.79a.263.263,0,1,1,.263.25.251.251,0,0,1-.263-.25m.046.452h.428v1.693h-.428Z" transform="translate(-98.98 -23.409)" fill="#fff"/>
        <path id="Path_26" data-name="Path 26" d="M145.214,37.524a.668.668,0,0,1-.74-.562h.431a.28.28,0,0,0,.305.226c.168,0,.26-.076.26-.174,0-.3-.956-.11-.956-.73,0-.281.25-.507.669-.507a.607.607,0,0,1,.682.559h-.41a.252.252,0,0,0-.284-.22c-.159,0-.242.064-.242.162,0,.309.938.116.951.737,0,.29-.254.51-.666.51" transform="translate(-100.835 -24.97)" fill="#fff"/>
        <path id="Path_27" data-name="Path 27" d="M150.772,37.523a.874.874,0,0,1,0-1.748.8.8,0,0,1,.834.838,1.011,1.011,0,0,1-.012.165h-1.238a.4.4,0,0,0,.407.391.349.349,0,0,0,.339-.2h.462a.787.787,0,0,1-.791.559m-.413-1.033h.8a.376.376,0,0,0-.4-.364.393.393,0,0,0-.4.364" transform="translate(-104.638 -24.969)" fill="#fff"/>
        <path id="Path_28" data-name="Path 28" d="M117.125,6.783a1.765,1.765,0,0,1,.751.642,2.134,2.134,0,0,1,.346.9,5.5,5.5,0,0,1,.037.862H115.1a1.042,1.042,0,0,0,.454.917,1.157,1.157,0,0,0,.626.163.88.88,0,0,0,.864-.5h1.16a1.42,1.42,0,0,1-.421.785,2.111,2.111,0,0,1-1.634.633,2.367,2.367,0,0,1-1.53-.534,2.1,2.1,0,0,1-.663-1.739,2.351,2.351,0,0,1,.6-1.731,2.094,2.094,0,0,1,1.553-.6,2.475,2.475,0,0,1,1.022.2m-1.7.981a1.18,1.18,0,0,0-.3.672h1.956a.947.947,0,0,0-.3-.686,1,1,0,0,0-.674-.234.9.9,0,0,0-.678.248" transform="translate(-79.532 -4.592)" fill="#fff"/>
        <path id="Path_29" data-name="Path 29" d="M128.68,11.323l1.482-2.2-1.418-2.136h1.39l.726,1.258.709-1.258h1.351L131.493,9.1l1.482,2.219h-1.414l-.748-1.306-.755,1.306Z" transform="translate(-89.812 -4.877)" fill="#fff"/>
        <path id="Path_30" data-name="Path 30" d="M148.262,7.207a2.314,2.314,0,0,1,.531,1.65,2.606,2.606,0,0,1-.519,1.749,1.687,1.687,0,0,1-1.337.6,1.4,1.4,0,0,1-.866-.259,1.668,1.668,0,0,1-.369-.418V13.2h-1.124V6.741h1.088v.641a1.838,1.838,0,0,1,.393-.446,1.45,1.45,0,0,1,.906-.291,1.717,1.717,0,0,1,1.3.562m-.871.817a.808.808,0,0,0-.751-.387.854.854,0,0,0-.858.586,2.2,2.2,0,0,0-.121.789,1.251,1.251,0,0,0,.406,1.064.932.932,0,0,0,.572.179.831.831,0,0,0,.731-.367,1.7,1.7,0,0,0,.252-.976,1.7,1.7,0,0,0-.231-.888" transform="translate(-100.908 -4.638)" fill="#fff"/>
        <path id="Path_31" data-name="Path 31" d="M163.3,6.783a1.765,1.765,0,0,1,.751.642,2.134,2.134,0,0,1,.346.9,5.5,5.5,0,0,1,.037.862h-3.163a1.042,1.042,0,0,0,.454.917,1.157,1.157,0,0,0,.626.163.88.88,0,0,0,.864-.5h1.16a1.42,1.42,0,0,1-.421.785,2.111,2.111,0,0,1-1.634.633,2.367,2.367,0,0,1-1.53-.534,2.1,2.1,0,0,1-.663-1.739,2.351,2.351,0,0,1,.6-1.731,2.094,2.094,0,0,1,1.553-.6,2.473,2.473,0,0,1,1.022.2m-1.7.981a1.18,1.18,0,0,0-.3.672h1.956a.947.947,0,0,0-.3-.686,1,1,0,0,0-.674-.234.9.9,0,0,0-.678.248" transform="translate(-111.761 -4.592)" fill="#fff"/>
        <path id="Path_32" data-name="Path 32" d="M178.264,6.62l.1.006V7.789c-.072-.008-.135-.013-.191-.016s-.1,0-.135,0a.941.941,0,0,0-.92.446,1.733,1.733,0,0,0-.132.773v2.076h-1.144V6.625h1.084v.854a2.415,2.415,0,0,1,.458-.594,1.249,1.249,0,0,1,.829-.267l.054,0" transform="translate(-122.726 -4.619)" fill="#fff"/>
        <path id="Path_33" data-name="Path 33" d="M186.047,5.1V4.159h.606V3.084h1.123V4.159h.705V5.1h-.705V7.4a.519.519,0,0,0,.068.333.748.748,0,0,0,.415.066l.109,0,.114-.006v.849l-.538.02a1.444,1.444,0,0,1-1.1-.279.829.829,0,0,1-.191-.6V5.1Z" transform="translate(-129.851 -2.152)" fill="#fff"/>
        <path id="Path_34" data-name="Path 34" d="M100.06,6.713,97.607,4.26l2.453-2.453V0L95.8,4.26l4.26,4.26Z" transform="translate(-66.863 0)" fill="#fff"/>
        <rect id="Rectangle_2" data-name="Rectangle 2" width="1.29" height="1.384" transform="translate(31.907 3.568)" fill="#fff"/>
        <rect id="Rectangle_3" data-name="Rectangle 3" width="1.29" height="1.384" transform="translate(59.498 5.123)" fill="#fff"/>
        <rect id="Rectangle_4" data-name="Rectangle 4" width="0.764" height="2.451" transform="translate(61.53 4.132)" fill="#fff"/>
        <path id="Path_35" data-name="Path 35" d="M209.555,13.685a.75.75,0,0,1,.283.66v1.65h-.772V14.5a.592.592,0,0,0-.06-.3.444.444,0,0,0-.42-.189.534.534,0,0,0-.523.277.835.835,0,0,0-.073.373v1.327h-.754V13.549h.73v.357a1.158,1.158,0,0,1,.274-.272,1.069,1.069,0,0,1,.587-.148,1.237,1.237,0,0,1,.728.2" transform="translate(-144.64 -9.412)" fill="#fff"/>
        <path id="Path_36" data-name="Path 36" d="M204.471,10.8a.382.382,0,1,1-.382-.382.382.382,0,0,1,.382.382" transform="translate(-142.176 -7.274)" fill="#fff"/>
      </g>
    </g>
  </g>
</svg>
