<svg id="Group_50" data-name="Group 50" xmlns="http://www.w3.org/2000/svg" xmlns:xlink="http://www.w3.org/1999/xlink" width="428.695" height="267.772" viewBox="0 0 428.695 267.772">
  <defs>
    <clipPath id="clip-path">
      <rect id="Rectangle_5" data-name="Rectangle 5" width="84.873" height="17.357" fill="#fff"/>
    </clipPath>
  </defs>
  <ellipse id="Ellipse_12" data-name="Ellipse 12" cx="150" cy="12.5" rx="150" ry="12.5" transform="translate(79.252 193.329)" opacity="0.5"/>
  <line id="Line_3" data-name="Line 3" x2="323.121" transform="translate(56.175 202.885)" fill="none" stroke="#fff" stroke-width="2"/>
  <g id="Group_32" data-name="Group 32" transform="translate(0)">
    <g id="Group_30" data-name="Group 30">
      <path id="Path_218" data-name="Path 218" d="M624.5,133.761s-20.413-1.465-36.079,7.579-28.5,34.26-28.5,34.26h60.03Z" transform="translate(-468.548 -125.146)" fill="#ceddf1"/>
      <path id="Path_219" data-name="Path 219" d="M559.861,183.745c3.317-11.943,12.383-21.1,22.2-28.137a151.145,151.145,0,0,1,17.084-10.65c5.608-2.98,11.529-5.338,17.884-6.007.242-.026.3.392.058.429-12.364,1.841-23.641,9.249-33.674,16.328-10.093,7.121-19.083,16.163-22.675,28.277a.453.453,0,0,1-.873-.241" transform="translate(-461.213 -124.967)" fill="#94b0d4"/>
      <path id="Path_220" data-name="Path 220" d="M715.776,174.226H653.927s-10.46,10.308-23.193,28.2-16.07,23.345-16.07,23.345-31.682,14.4-42.749,35.018c-8.968,16.7-9.473,31.064-9.343,35.912a1.8,1.8,0,0,0,1.8,1.748h145.49Z" transform="translate(-562.557 -123.772)" fill="#ebaf6a"/>
      <path id="Path_221" data-name="Path 221" d="M632.463,268.715a27.413,27.413,0,1,0,32.029,21.843,27.413,27.413,0,0,0-32.029-21.843" transform="translate(-560.948 -120.587)" fill="#1e374a"/>
      <path id="Path_222" data-name="Path 222" d="M633.7,276.415A19.306,19.306,0,1,0,656.26,291.8,19.306,19.306,0,0,0,633.7,276.415" transform="translate(-560.683 -120.322)" fill="#94b0d4"/>
      <path id="Path_223" data-name="Path 223" d="M622.5,295.8l4.485-.848a.991.991,0,0,0,.508-.266l4.164-4.1a.984.984,0,0,0-.874-1.668l-6.139,1.916a.981.981,0,0,0-.747.648l-2.51,3.038A.984.984,0,0,0,622.5,295.8" transform="translate(-539.506 -119.887)" fill="#1e374a"/>
      <path id="Path_224" data-name="Path 224" d="M624.518,300.571l2.977,3.46a.981.981,0,0,0,.484.306l5.637,1.555a.984.984,0,0,0,1.007-1.59l-4.727-4.359a.983.983,0,0,0-.937-.324l-3.885-.655a.984.984,0,0,0-.555,1.607" transform="translate(-545.455 -119.546)" fill="#1e374a"/>
      <path id="Path_225" data-name="Path 225" d="M638.847,299.714l-1.507,4.308a.976.976,0,0,0-.024.573l1.472,5.658a.983.983,0,0,0,1.88.078l1.411-6.275a.982.982,0,0,0-.187-.972l-1.375-3.693a.984.984,0,0,0-1.67.323" transform="translate(-566.174 -119.543)" fill="#1e374a"/>
      <path id="Path_226" data-name="Path 226" d="M651.16,293.927l-4.485.848a.991.991,0,0,0-.508.266l-4.164,4.1a.984.984,0,0,0,.874,1.668l6.139-1.916a.981.981,0,0,0,.748-.648l2.51-3.037a.983.983,0,0,0-1.113-1.284" transform="translate(-580.942 -119.718)" fill="#1e374a"/>
      <path id="Path_227" data-name="Path 227" d="M649.144,289.161l-2.977-3.459a.975.975,0,0,0-.484-.307l-5.637-1.555a.984.984,0,0,0-1.007,1.59l4.727,4.359a.983.983,0,0,0,.937.324l3.885.655a.984.984,0,0,0,.555-1.607" transform="translate(-574.992 -120.06)" fill="#1e374a"/>
      <path id="Path_228" data-name="Path 228" d="M634.628,290.181l1.507-4.308a.975.975,0,0,0,.024-.573l-1.472-5.658a.983.983,0,0,0-1.88-.077l-1.411,6.273a.982.982,0,0,0,.187.972l1.375,3.693a.984.984,0,0,0,1.67-.322" transform="translate(-554.085 -120.226)" fill="#1e374a"/>
      <path id="Path_229" data-name="Path 229" d="M612.137,280.454c6.539,9.022,5.773,22.5-1.126,31.073a.451.451,0,0,1-.745-.508,28.268,28.268,0,0,0,5.157-14.344c.3-5.735-1.53-10.659-4.191-15.621-.289-.538.537-1.109.906-.6" transform="translate(-512.657 -120.18)" fill="#43585c"/>
      <path id="Path_230" data-name="Path 230" d="M604.065,303.849a7.731,7.731,0,0,0,7.732-7.731,26.225,26.225,0,1,1,52.45,0,7.731,7.731,0,1,0,15.463,0,41.688,41.688,0,0,0-83.376,0,7.731,7.731,0,0,0,7.731,7.731" transform="translate(-561.412 -121.055)" fill="#420cc6"/>
      <path id="Path_231" data-name="Path 231" d="M646.412,187.275v41a1.022,1.022,0,0,1-1.023,1.024H574.146a1.027,1.027,0,0,1-.872-1.573,315.134,315.134,0,0,1,31.68-41.077,1.031,1.031,0,0,1,.765-.342l39.669-.059a1.023,1.023,0,0,1,1.023,1.024" transform="translate(-504.108 -123.365)" fill="#5f19e1"/>
      <path id="Path_232" data-name="Path 232" d="M686.333,258.515c3.464-6.453,8.948-12.3,14.849-17.281,3.89,1.619,7.03,4.031,5.654,9.626-1.7,6.935-9.436,18.289-10.346,18.289l-14.935,0a82.417,82.417,0,0,1,4.779-10.637" transform="translate(-676.975 -121.502)" fill="#ceddf1"/>
      <path id="Path_233" data-name="Path 233" d="M583.184,247.372H594.1a1.933,1.933,0,1,0,0-3.866H583.184a1.933,1.933,0,0,0,0,3.866" transform="translate(-462.141 -121.425)" fill="#2c516e"/>
      <rect id="Rectangle_16" data-name="Rectangle 16" width="3.335" height="43.051" transform="translate(104.558 62.886)" fill="#ebaf6a"/>
      <path id="Path_234" data-name="Path 234" d="M324.586,300.1H576.531V130.264a4.838,4.838,0,0,0-4.837-4.839H329.425a4.838,4.838,0,0,0-4.839,4.839Z" transform="translate(-177.28 -125.425)" fill="#ed1651"/>
      <rect id="Rectangle_17" data-name="Rectangle 17" width="251.945" height="20.227" transform="translate(147.306 154.446)" fill="#d61350"/>
      <rect id="Rectangle_18" data-name="Rectangle 18" width="3.66" height="157.978" transform="translate(322.832 11.95)" fill="#d61350"/>
      <rect id="Rectangle_19" data-name="Rectangle 19" width="3.66" height="157.978" transform="translate(225.073 11.95)" fill="#d61350"/>
      <path id="Path_235" data-name="Path 235" d="M359.091,295.651a27.413,27.413,0,1,0,27.414-27.413,27.413,27.413,0,0,0-27.414,27.413" transform="translate(-50.34 -120.587)" fill="#1e374a"/>
      <path id="Path_236" data-name="Path 236" d="M366.932,295.386a19.306,19.306,0,1,0,19.307-19.306,19.306,19.306,0,0,0-19.307,19.306" transform="translate(-50.073 -120.322)" fill="#94b0d4"/>
      <path id="Path_237" data-name="Path 237" d="M388.872,289.174v-4.565a.987.987,0,0,0-.166-.548l-3.26-4.854a.983.983,0,0,0-1.8.548l.742,6.388a.983.983,0,0,0,.5.855l2.517,3.031a.984.984,0,0,0,1.468-.856" transform="translate(-50.681 -120.23)" fill="#1e374a"/>
      <path id="Path_238" data-name="Path 238" d="M374.185,293.8l3.952-2.282a.994.994,0,0,0,.392-.419l2.574-5.25a.984.984,0,0,0-1.375-1.285l-5.162,3.836a.983.983,0,0,0-.491.859l-1.366,3.7a.983.983,0,0,0,1.475.845" transform="translate(-31.707 -120.039)" fill="#1e374a"/>
      <path id="Path_239" data-name="Path 239" d="M371.057,299.492l3.953,2.282a.988.988,0,0,0,.558.13l5.833-.4a.983.983,0,0,0,.426-1.833l-5.9-2.553a.986.986,0,0,0-.99,0l-3.883.666a.983.983,0,0,0,.006,1.7" transform="translate(-30.604 -119.613)" fill="#1e374a"/>
      <path id="Path_240" data-name="Path 240" d="M382.51,300.705v4.565a.987.987,0,0,0,.167.548l3.26,4.854a.983.983,0,0,0,1.8-.548l-.741-6.388a.983.983,0,0,0-.5-.855l-2.518-3.031a.984.984,0,0,0-1.469.856" transform="translate(-48.371 -119.521)" fill="#1e374a"/>
      <path id="Path_241" data-name="Path 241" d="M397.3,296.02l-3.953,2.282a.994.994,0,0,0-.392.419l-2.574,5.25a.984.984,0,0,0,1.375,1.285l5.162-3.836a.985.985,0,0,0,.491-.86l1.366-3.7a.983.983,0,0,0-1.475-.845" transform="translate(-67.452 -119.651)" fill="#1e374a"/>
      <path id="Path_242" data-name="Path 242" d="M400.538,290.175l-3.953-2.282a.987.987,0,0,0-.558-.13l-5.833.4a.983.983,0,0,0-.426,1.833l5.9,2.552a.984.984,0,0,0,.99,0l3.883-.666a.983.983,0,0,0-.006-1.7" transform="translate(-68.66 -119.926)" fill="#1e374a"/>
      <path id="Path_243" data-name="Path 243" d="M366.38,270.431c10.079-4.75,23.18-1.493,30.324,6.879.372.436-.217,1.049-.638.638a28.265,28.265,0,0,0-13.136-7.732c-5.578-1.362-10.757-.477-16.126,1.217-.582.183-.991-.734-.423-1" transform="translate(-40.499 -120.587)" fill="#43585c"/>
      <path id="Path_244" data-name="Path 244" d="M353.014,303.849a7.731,7.731,0,0,0,7.731-7.731,26.225,26.225,0,1,1,52.451,0,7.731,7.731,0,1,0,15.463,0,41.688,41.688,0,0,0-83.376,0,7.731,7.731,0,0,0,7.731,7.731" transform="translate(-50.806 -121.055)" fill="#420cc6"/>
      <path id="Path_245" data-name="Path 245" d="M644.13,246.583c.005-3.282,0-6.562.02-9.844.016-2.937-.324-6.192.339-9.065a.157.157,0,0,1,.3,0c.664,2.875.323,6.126.339,9.065.019,3.282.015,6.562.02,9.844.011,6.537.326,13.158-.006,19.687.037.645-.973.645-1.006,0-.332-6.529-.017-13.149-.006-19.687" transform="translate(-576.26 -121.965)" fill="#b88542"/>
      <path id="Path_246" data-name="Path 246" d="M575.165,230.853c5.279-.705,10.9-.2,16.223-.2h16.223c10.818,0,21.631.018,32.445.221a.212.212,0,0,1,0,.424c-10.814.2-21.627.221-32.445.221H591.8c-5.456,0-11.226.527-16.638-.2a.238.238,0,0,1,0-.476" transform="translate(-499.84 -121.866)" fill="#b88542"/>
      <path id="Path_247" data-name="Path 247" d="M688.343,251.6a18.921,18.921,0,0,1,4.034.235c1.171.106,2.347.2,3.5.415.2.038.147.345-.048.352-1.345.043-2.692-.074-4.034-.158a16.109,16.109,0,0,1-3.523-.357.249.249,0,0,1,.066-.486" transform="translate(-672.587 -121.153)" fill="#94b0d4"/>
      <path id="Path_248" data-name="Path 248" d="M693.6,259.509a45.263,45.263,0,0,1,6.61,1.013.206.206,0,0,1-.055.4,45.344,45.344,0,0,1-6.66-.636c-.438-.062-.34-.829.105-.781" transform="translate(-682.215 -120.883)" fill="#94b0d4"/>
      <path id="Path_249" data-name="Path 249" d="M336.442,160.237c.537.7,1.088,1.365,1.59,2.083.084.121-.1.239-.2.151-.035-.032-.067-.065-.1-.1,3.258,5.342,6.673,10.572,10.374,15.625,4.337,5.919,9.123,11.421,13.792,17.069.131.159-.08.381-.231.231a145.115,145.115,0,0,1-13.654-16.37,194.24,194.24,0,0,1-12.137-18.363c-.216-.375.314-.65.562-.329" transform="translate(25.685 -124.251)" fill="#d61350"/>
      <path id="Path_250" data-name="Path 250" d="M344.456,181.625c4.942,4.6,8.791,11.107,11.65,17.159.058.123-.118.231-.186.109-1.679-3.025-3.456-6-5.428-8.84s-4.29-5.413-6.333-8.2c-.131-.179.146-.369.3-.228" transform="translate(22.933 -123.523)" fill="#d61350"/>
      <path id="Path_251" data-name="Path 251" d="M420.988,168.047c3.753,5.08,7.094,10.51,10.6,15.764l10.319,15.451c6.95,10.408,14.075,20.726,20.757,31.309.072.116-.1.214-.18.105-7.226-10.227-14.038-20.761-21-31.168l-10.33-15.444c-3.51-5.248-7.25-10.41-10.505-15.819-.133-.221.191-.395.337-.2" transform="translate(-162.718 -123.984)" fill="#d61350"/>
      <path id="Path_252" data-name="Path 252" d="M429.381,210.756c6.753,7.016,13.153,14.373,19.694,21.584.077.084-.047.208-.124.125-6.6-7.156-13.359-14.185-19.745-21.535-.1-.119.063-.291.175-.175" transform="translate(-157.978 -122.536)" fill="#d61350"/>
      <path id="Path_253" data-name="Path 253" d="M498.9,165.712c3.5,4.784,6.506,10,9.567,15.071q4.612,7.639,8.969,15.428c5.8,10.359,11.509,20.882,16.345,31.734.03.068-.064.128-.1.06-5.521-10.541-10.831-21.171-16.669-31.547q-4.277-7.6-8.776-15.081c-3.125-5.2-6.547-10.266-9.527-15.554a.111.111,0,0,1,.191-.112" transform="translate(-314.548 -124.062)" fill="#d61350"/>
      <path id="Path_254" data-name="Path 254" d="M508.779,201.9a323.226,323.226,0,0,1,18.5,33.683c.027.057-.056.106-.085.05-5.748-11.459-12.111-22.573-18.618-33.613a.118.118,0,0,1,.2-.119" transform="translate(-318.238 -122.836)" fill="#d61350"/>
      <path id="Path_255" data-name="Path 255" d="M582.377,196.326q7.1,6.935,13.659,14.382c.351.4-.233.985-.585.585q-6.559-7.447-13.659-14.382c-.382-.373.2-.957.585-.585" transform="translate(-462.682 -123.027)" fill="#ceddf1"/>
      <path id="Path_256" data-name="Path 256" d="M588.065,205.046q2.292,2.188,4.585,4.377c.386.368-.2.952-.585.584l-4.585-4.376c-.386-.368.2-.953.585-.585" transform="translate(-465.194 -122.732)" fill="#ceddf1"/>
      <path id="Path_257" data-name="Path 257" d="M617.426,206.078a71.491,71.491,0,0,1,6.275,6.857c.33.411-.251,1-.584.585a71.5,71.5,0,0,0-6.276-6.857c-.385-.369.2-.954.585-.585" transform="translate(-526.573 -122.697)" fill="#ceddf1"/>
      <path id="Path_258" data-name="Path 258" d="M621.739,210.9l2.814,2.5c.4.355-.188.938-.585.585l-2.814-2.5c-.4-.355.188-.938.585-.585" transform="translate(-531.913 -122.533)" fill="#ceddf1"/>
      <rect id="Rectangle_20" data-name="Rectangle 20" width="43.753" height="43.26" transform="translate(283.507 159.154)" fill="#ebaf6a"/>
      <rect id="Rectangle_21" data-name="Rectangle 21" width="43.753" height="43.26" transform="translate(256.425 159.154)" fill="#d1954f"/>
      <rect id="Rectangle_22" data-name="Rectangle 22" width="52.597" height="69.98" transform="translate(224.805 132.434)" fill="#d1954f"/>
      <rect id="Rectangle_23" data-name="Rectangle 23" width="52.597" height="69.98" transform="translate(241.554 132.434)" fill="#ebaf6a"/>
      <rect id="Rectangle_24" data-name="Rectangle 24" width="4.696" height="69.98" transform="translate(265.504 132.434)" fill="#d1d3d4"/>
      <rect id="Rectangle_25" data-name="Rectangle 25" width="72.478" height="42.314" transform="translate(214.55 90.12)" fill="#ebaf6a"/>
      <path id="Path_259" data-name="Path 259" d="M455.1,244.147a30.46,30.46,0,0,1,5.606-.1l6.044.021a.172.172,0,0,1,0,.344l-6.044.021a30.55,30.55,0,0,1-5.606-.1.1.1,0,0,1,0-.191" transform="translate(-202.53 -121.41)" fill="#2c516e"/>
      <path id="Path_260" data-name="Path 260" d="M458.466,245.974c2.255-.135,4.55-.025,6.809-.024a.1.1,0,0,1,0,.209c-2.259,0-4.554.112-6.809-.024a.081.081,0,0,1,0-.161" transform="translate(-204.46 -121.344)" fill="#2c516e"/>
      <path id="Path_261" data-name="Path 261" d="M456.56,248.048a22.264,22.264,0,0,1,4.218-.066c1.546.019,3.088.094,4.634.105a.13.13,0,0,1,0,.261c-1.546.011-3.088.088-4.634.106a22.351,22.351,0,0,1-4.218-.066.178.178,0,0,1,0-.34" transform="translate(-202.6 -121.276)" fill="#2c516e"/>
      <rect id="Rectangle_26" data-name="Rectangle 26" width="33.969" height="42.314" transform="translate(214.551 90.12)" fill="#d1954f"/>
      <rect id="Rectangle_27" data-name="Rectangle 27" width="5.636" height="6.458" transform="translate(265.504 90.119)" fill="#d1d3d4"/>
      <rect id="Rectangle_28" data-name="Rectangle 28" width="8.688" height="5.87" transform="translate(226.173 90.119)" fill="#d1d3d4"/>
      <rect id="Rectangle_29" data-name="Rectangle 29" width="50.003" height="24.576" transform="translate(172.911 177.905)" fill="#d1954f"/>
      <rect id="Rectangle_30" data-name="Rectangle 30" width="26.991" height="24.576" transform="translate(201.322 177.905)" fill="#ebaf6a"/>
      <rect id="Rectangle_31" data-name="Rectangle 31" width="7.436" height="4.567" transform="translate(210.951 177.904)" fill="#d1d3d4"/>
      <rect id="Rectangle_32" data-name="Rectangle 32" width="28.567" height="0.783" transform="translate(172.911 179.809)" fill="#ebaf6a"/>
      <rect id="Rectangle_33" data-name="Rectangle 33" width="28.567" height="0.783" transform="translate(172.911 182.94)" fill="#ebaf6a"/>
      <rect id="Rectangle_34" data-name="Rectangle 34" width="28.567" height="0.783" transform="translate(172.911 186.072)" fill="#ebaf6a"/>
      <rect id="Rectangle_35" data-name="Rectangle 35" width="28.567" height="0.783" transform="translate(172.911 189.202)" fill="#ebaf6a"/>
      <rect id="Rectangle_36" data-name="Rectangle 36" width="28.567" height="0.783" transform="translate(172.911 192.333)" fill="#ebaf6a"/>
      <rect id="Rectangle_37" data-name="Rectangle 37" width="28.567" height="0.783" transform="translate(172.911 195.463)" fill="#ebaf6a"/>
      <rect id="Rectangle_38" data-name="Rectangle 38" width="28.567" height="0.783" transform="translate(172.911 198.594)" fill="#ebaf6a"/>
      <rect id="Rectangle_39" data-name="Rectangle 39" width="62.134" height="17.701" transform="translate(173.459 160.204)" fill="#ebaf6a"/>
      <rect id="Rectangle_40" data-name="Rectangle 40" width="36.043" height="17.701" transform="translate(173.459 160.204)" fill="#d1954f"/>
      <path id="Path_262" data-name="Path 262" d="M529.483,283.349a30.462,30.462,0,0,1,5.606-.1l6.044.021a.172.172,0,0,1,0,.344l-6.044.021a30.555,30.555,0,0,1-5.606-.1.1.1,0,0,1,0-.191" transform="translate(-353.812 -120.082)" fill="#2c516e"/>
      <path id="Path_263" data-name="Path 263" d="M532.846,285.176c2.256-.135,4.55-.025,6.81-.024a.1.1,0,0,1,0,.209c-2.26,0-4.554.112-6.81-.024a.081.081,0,0,1,0-.161" transform="translate(-355.74 -120.016)" fill="#2c516e"/>
      <path id="Path_264" data-name="Path 264" d="M530.94,287.249a22.18,22.18,0,0,1,4.218-.066c1.546.019,3.088.094,4.634.106a.13.13,0,0,1,0,.26c-1.546.011-3.088.088-4.634.107a22.352,22.352,0,0,1-4.218-.066.178.178,0,0,1,0-.34" transform="translate(-353.881 -119.948)" fill="#2c516e"/>
      <rect id="Rectangle_41" data-name="Rectangle 41" width="2.426" height="17.701" transform="translate(222.495 160.204)" fill="#d1954f"/>
      <path id="Path_265" data-name="Path 265" d="M383.772,279.364,394.261,292.4h27.393l-10.8-13.032Z" transform="translate(-83.595 -120.21)" fill="#d1954f"/>
    </g>
    <g id="Group_7" data-name="Group 7" transform="translate(232.626 49.793)">
      <g id="Group_1" data-name="Group 1" transform="translate(0 0)" clip-path="url(#clip-path)">
        <path id="Path_1" data-name="Path 1" d="M4.053,2.8a1.661,1.661,0,0,1,.7.556,1.479,1.479,0,0,1,.284.652A8.086,8.086,0,0,1,5.088,5.1V8.422H3.579V4.98a1.524,1.524,0,0,0-.155-.737.773.773,0,0,0-.761-.395,1.045,1.045,0,0,0-.883.392,1.8,1.8,0,0,0-.3,1.119V8.422H0V0H1.478V3.5a1.805,1.805,0,0,1,.741-.687,2.084,2.084,0,0,1,.885-.195,2.392,2.392,0,0,1,.948.182" transform="translate(0 0)" fill="#fff"/>
        <path id="Path_2" data-name="Path 2" d="M20.653,11.723a2.631,2.631,0,0,1-2.173.884,2.632,2.632,0,0,1-2.174-.884A3.274,3.274,0,0,1,15.591,9.6a3.3,3.3,0,0,1,.716-2.12,2.614,2.614,0,0,1,2.174-.9,2.613,2.613,0,0,1,2.173.9,3.3,3.3,0,0,1,.716,2.12,3.274,3.274,0,0,1-.716,2.127m-1.183-.817a2.143,2.143,0,0,0,.348-1.31,2.131,2.131,0,0,0-.348-1.308,1.314,1.314,0,0,0-1.994,0,2.12,2.12,0,0,0-.35,1.308,2.132,2.132,0,0,0,.35,1.31,1.309,1.309,0,0,0,1.994,0" transform="translate(-9.461 -3.993)" fill="#fff"/>
        <path id="Path_3" data-name="Path 3" d="M34.387,7.042v3.407a1.8,1.8,0,0,0,.114.726.785.785,0,0,0,.79.431,1.031,1.031,0,0,0,1.032-.612,2.224,2.224,0,0,0,.145-.876V7.042h1.5V12.7H36.529v-.8c-.014.018-.048.069-.1.156a1.055,1.055,0,0,1-.2.228,2.055,2.055,0,0,1-.67.425,2.272,2.272,0,0,1-.758.114,1.688,1.688,0,0,1-1.686-.9,3.462,3.462,0,0,1-.243-1.468V7.042Z" transform="translate(-19.947 -4.273)" fill="#fff"/>
        <path id="Path_4" data-name="Path 4" d="M50.081,10.642a.985.985,0,0,0,.2.56,1.379,1.379,0,0,0,1.022.3,1.565,1.565,0,0,0,.7-.13.415.415,0,0,0,.258-.389.42.42,0,0,0-.208-.379,8.477,8.477,0,0,0-1.546-.446,3.213,3.213,0,0,1-1.358-.6,1.294,1.294,0,0,1-.394-1.017A1.763,1.763,0,0,1,49.369,7.2,2.479,2.479,0,0,1,51.1,6.633a3.183,3.183,0,0,1,1.728.423,1.81,1.81,0,0,1,.767,1.46H52.119a.872.872,0,0,0-.161-.451,1.016,1.016,0,0,0-.832-.3,1.2,1.2,0,0,0-.689.151.433.433,0,0,0-.205.353.385.385,0,0,0,.219.368,9.432,9.432,0,0,0,1.543.41,2.828,2.828,0,0,1,1.324.628,1.424,1.424,0,0,1,.436,1.063,1.717,1.717,0,0,1-.626,1.372,3.764,3.764,0,0,1-3.908-.031,1.83,1.83,0,0,1-.637-1.434Z" transform="translate(-29.479 -4.025)" fill="#fff"/>
        <path id="Path_5" data-name="Path 5" d="M67.5,6.925a2.3,2.3,0,0,1,.977.836,2.778,2.778,0,0,1,.45,1.169,7.164,7.164,0,0,1,.049,1.122H64.859a1.357,1.357,0,0,0,.591,1.193,1.506,1.506,0,0,0,.816.212,1.146,1.146,0,0,0,1.125-.648H68.9a1.848,1.848,0,0,1-.548,1.022,2.747,2.747,0,0,1-2.127.825,3.081,3.081,0,0,1-1.992-.7A2.74,2.74,0,0,1,63.37,9.7a3.06,3.06,0,0,1,.779-2.253A2.726,2.726,0,0,1,66.17,6.66a3.221,3.221,0,0,1,1.33.265M65.289,8.2a1.536,1.536,0,0,0-.394.875h2.547a1.233,1.233,0,0,0-.394-.893,1.3,1.3,0,0,0-.877-.305,1.172,1.172,0,0,0-.882.323" transform="translate(-38.453 -4.041)" fill="#fff"/>
        <path id="Path_6" data-name="Path 6" d="M81.7,2.352l3.193,3.193L81.7,8.739v2.352l5.545-5.546L81.7,0Z" transform="translate(-49.573 0)" fill="#fff"/>
        <rect id="Rectangle_1" data-name="Rectangle 1" width="1.679" height="1.802" transform="translate(32.123 4.645)" fill="#fff"/>
        <path id="Path_7" data-name="Path 7" d="M31.838,35.927h.374L30.9,39.134h-.374l.43-1.05-.879-2.156h.4l.684,1.766Z" transform="translate(-18.25 -21.801)" fill="#fff"/>
        <path id="Path_8" data-name="Path 8" d="M37.166,38.087a1.126,1.126,0,1,1,1.118-1.13,1.081,1.081,0,0,1-1.118,1.13m0-.318a.74.74,0,0,0,.748-.812.732.732,0,0,0-.736-.807.815.815,0,0,0-.012,1.619" transform="translate(-21.893 -21.745)" fill="#fff"/>
        <path id="Path_9" data-name="Path 9" d="M44.8,38.107h-.362v-.322a.8.8,0,0,1-.7.354.85.85,0,0,1-.895-.935V35.927H43.2v1.229a.585.585,0,0,0,.609.668c.374,0,.624-.23.624-.7v-1.2H44.8Z" transform="translate(-25.996 -21.8)" fill="#fff"/>
        <path id="Path_10" data-name="Path 10" d="M49.722,38.046H49.36v-2.18h.362v.354a.735.735,0,0,1,.7-.394V36.2h-.1c-.346,0-.609.155-.609.66Z" transform="translate(-29.952 -21.739)" fill="#fff"/>
        <path id="Path_11" data-name="Path 11" d="M58.83,36.8a.493.493,0,1,0-.983,0v1.217h-.557V36.8a.495.495,0,1,0-.986,0v1.217h-.558v-2.2H56.3v.267a.8.8,0,0,1,.648-.3.843.843,0,0,1,.775.422.873.873,0,0,1,.756-.422.857.857,0,0,1,.9.943v1.293H58.83Z" transform="translate(-33.827 -21.714)" fill="#fff"/>
        <path id="Path_12" data-name="Path 12" d="M67.1,38.05a1.138,1.138,0,1,1,1.149-1.138A1.1,1.1,0,0,1,67.1,38.05m0-.485a.587.587,0,0,0,.576-.652.571.571,0,1,0-1.13,0c0,.437.255.652.553.652" transform="translate(-40.04 -21.708)" fill="#fff"/>
        <path id="Path_13" data-name="Path 13" d="M72.787,35.866l.557,1.691.557-1.691h.593l-.815,2.2H73l-.811-2.2Z" transform="translate(-43.805 -21.764)" fill="#fff"/>
        <path id="Path_14" data-name="Path 14" d="M79.584,38.05a1.138,1.138,0,0,1,0-2.275,1.034,1.034,0,0,1,1.086,1.09,1.319,1.319,0,0,1-.015.215H79.042a.516.516,0,0,0,.53.509.454.454,0,0,0,.441-.267h.6a1.024,1.024,0,0,1-1.03.728m-.537-1.344h1.046a.49.49,0,0,0-.525-.473.512.512,0,0,0-.521.473" transform="translate(-47.62 -21.708)" fill="#fff"/>
        <path id="Path_15" data-name="Path 15" d="M84.65,40.2h.4l-.446,1.07H84.36Z" transform="translate(-51.189 -24.391)" fill="#fff"/>
        <path id="Path_16" data-name="Path 16" d="M90.6,38.087a1.126,1.126,0,1,1,1.118-1.13,1.081,1.081,0,0,1-1.118,1.13m0-.318a.74.74,0,0,0,.748-.812.732.732,0,0,0-.736-.807.815.815,0,0,0-.012,1.619" transform="translate(-54.317 -21.745)" fill="#fff"/>
        <path id="Path_17" data-name="Path 17" d="M98.23,38.107h-.362v-.322a.8.8,0,0,1-.7.354.85.85,0,0,1-.895-.935V35.927h.358v1.229a.585.585,0,0,0,.609.668c.374,0,.624-.23.624-.7v-1.2h.362Z" transform="translate(-58.421 -21.8)" fill="#fff"/>
        <path id="Path_18" data-name="Path 18" d="M103.157,38.046h-.362v-2.18h.362v.354a.735.735,0,0,1,.7-.394V36.2h-.1c-.346,0-.609.155-.609.66Z" transform="translate(-62.376 -21.739)" fill="#fff"/>
        <path id="Path_19" data-name="Path 19" d="M109.925,38.05a1.138,1.138,0,0,1,0-2.275,1.035,1.035,0,0,1,1.086,1.09,1.316,1.316,0,0,1-.016.215h-1.612a.516.516,0,0,0,.53.509.454.454,0,0,0,.441-.267h.6a1.024,1.024,0,0,1-1.03.728m-.537-1.344h1.046a.49.49,0,0,0-.525-.473.512.512,0,0,0-.521.473" transform="translate(-66.031 -21.708)" fill="#fff"/>
        <path id="Path_20" data-name="Path 20" d="M115.808,37.386l-.4.684h-.6l.72-1.106-.727-1.1h.628l.45.68.406-.68h.6l-.724,1.1.732,1.106h-.628Z" transform="translate(-69.661 -21.764)" fill="#fff"/>
        <path id="Path_21" data-name="Path 21" d="M122.16,35.776a1.029,1.029,0,0,1,1.006,1.13,1.044,1.044,0,0,1-1.006,1.145.9.9,0,0,1-.728-.35v1.364h-.557V35.812h.557v.318a.88.88,0,0,1,.728-.354m-.147.489a.652.652,0,0,0,0,1.3.6.6,0,0,0,.585-.656.588.588,0,0,0-.585-.641" transform="translate(-73.347 -21.709)" fill="#fff"/>
        <path id="Path_22" data-name="Path 22" d="M128.47,38.05a1.138,1.138,0,0,1,0-2.275,1.035,1.035,0,0,1,1.086,1.09,1.317,1.317,0,0,1-.016.215h-1.612a.516.516,0,0,0,.53.509.454.454,0,0,0,.441-.267h.6a1.024,1.024,0,0,1-1.03.728m-.537-1.344h1.046a.49.49,0,0,0-.525-.473.512.512,0,0,0-.521.473" transform="translate(-77.284 -21.708)" fill="#fff"/>
        <path id="Path_23" data-name="Path 23" d="M134.521,38.021h-.557v-2.2h.557v.342a.764.764,0,0,1,.676-.374v.585h-.147c-.33,0-.529.127-.529.553Z" transform="translate(-81.289 -21.714)" fill="#fff"/>
        <path id="Path_24" data-name="Path 24" d="M137.865,35.483H137.6v-.457h.263v-.545h.561v.545h.493v.457h-.493V36.55c0,.147.059.211.234.211h.259v.469h-.35c-.422,0-.7-.179-.7-.685Z" transform="translate(-83.497 -20.923)" fill="#fff"/>
        <path id="Path_25" data-name="Path 25" d="M141.816,33.866a.342.342,0,1,1,.342.326.326.326,0,0,1-.342-.326m.06.589h.557v2.2h-.557Z" transform="translate(-86.054 -20.352)" fill="#fff"/>
        <path id="Path_26" data-name="Path 26" d="M145.437,38.051a.869.869,0,0,1-.963-.732h.561a.365.365,0,0,0,.4.294c.219,0,.339-.1.339-.226,0-.394-1.245-.144-1.245-.951,0-.366.326-.66.871-.66a.79.79,0,0,1,.887.727h-.533a.328.328,0,0,0-.37-.286c-.207,0-.315.083-.315.21,0,.4,1.221.151,1.237.959,0,.378-.33.664-.867.664" transform="translate(-87.667 -21.709)" fill="#fff"/>
        <path id="Path_27" data-name="Path 27" d="M151.029,38.05a1.138,1.138,0,0,1,0-2.275,1.035,1.035,0,0,1,1.086,1.09,1.314,1.314,0,0,1-.016.215h-1.612a.516.516,0,0,0,.53.509.454.454,0,0,0,.441-.267h.6a1.024,1.024,0,0,1-1.03.728m-.537-1.344h1.046a.49.49,0,0,0-.525-.473.512.512,0,0,0-.521.473" transform="translate(-90.973 -21.708)" fill="#fff"/>
        <path id="Path_28" data-name="Path 28" d="M118.082,6.844a2.3,2.3,0,0,1,.977.836,2.778,2.778,0,0,1,.45,1.169,7.165,7.165,0,0,1,.049,1.122h-4.118a1.357,1.357,0,0,0,.591,1.193,1.506,1.506,0,0,0,.816.212,1.146,1.146,0,0,0,1.125-.648h1.51a1.848,1.848,0,0,1-.548,1.022,2.748,2.748,0,0,1-2.127.825,3.081,3.081,0,0,1-1.992-.7,2.74,2.74,0,0,1-.863-2.263,3.06,3.06,0,0,1,.779-2.253,2.726,2.726,0,0,1,2.021-.784,3.221,3.221,0,0,1,1.33.265m-2.211,1.277a1.536,1.536,0,0,0-.394.875h2.547a1.233,1.233,0,0,0-.394-.893,1.3,1.3,0,0,0-.877-.305,1.172,1.172,0,0,0-.882.323" transform="translate(-69.146 -3.992)" fill="#fff"/>
        <path id="Path_29" data-name="Path 29" d="M128.68,12.631l1.929-2.863-1.846-2.78h1.81l.944,1.638.923-1.638H134.2l-1.857,2.754,1.929,2.889H132.43l-.973-1.7-.982,1.7Z" transform="translate(-78.083 -4.24)" fill="#fff"/>
        <path id="Path_30" data-name="Path 30" d="M149.374,7.376a3.012,3.012,0,0,1,.692,2.147,3.392,3.392,0,0,1-.676,2.277,2.2,2.2,0,0,1-1.741.783,1.824,1.824,0,0,1-1.127-.337,2.172,2.172,0,0,1-.481-.545v3.472h-1.463V6.77h1.416V7.6a2.393,2.393,0,0,1,.512-.581,1.888,1.888,0,0,1,1.18-.379,2.235,2.235,0,0,1,1.688.731M148.239,8.44a1.052,1.052,0,0,0-.977-.5,1.111,1.111,0,0,0-1.116.763,2.858,2.858,0,0,0-.157,1.027,1.629,1.629,0,0,0,.528,1.385,1.213,1.213,0,0,0,.744.234,1.081,1.081,0,0,0,.951-.477,2.208,2.208,0,0,0,.328-1.271,2.207,2.207,0,0,0-.3-1.156" transform="translate(-87.73 -4.032)" fill="#fff"/>
        <path id="Path_31" data-name="Path 31" d="M164.258,6.844a2.3,2.3,0,0,1,.977.836,2.778,2.778,0,0,1,.45,1.169,7.167,7.167,0,0,1,.049,1.122h-4.118a1.357,1.357,0,0,0,.591,1.193,1.506,1.506,0,0,0,.815.212,1.146,1.146,0,0,0,1.125-.648h1.51a1.849,1.849,0,0,1-.548,1.022,2.748,2.748,0,0,1-2.127.825,3.081,3.081,0,0,1-1.992-.7,2.74,2.74,0,0,1-.863-2.263,3.06,3.06,0,0,1,.779-2.253,2.726,2.726,0,0,1,2.021-.784,3.22,3.22,0,0,1,1.33.265m-2.211,1.277a1.536,1.536,0,0,0-.394.875H164.2a1.233,1.233,0,0,0-.394-.893,1.3,1.3,0,0,0-.877-.305,1.172,1.172,0,0,0-.882.323" transform="translate(-97.165 -3.992)" fill="#fff"/>
        <path id="Path_32" data-name="Path 32" d="M179,6.621l.127.007V8.143c-.094-.01-.176-.017-.249-.021s-.131-.005-.176-.005a1.225,1.225,0,0,0-1.2.581,2.256,2.256,0,0,0-.171,1.006v2.7h-1.489V6.627h1.411V7.738a3.144,3.144,0,0,1,.6-.773,1.626,1.626,0,0,1,1.079-.348c.028,0,.051,0,.07,0" transform="translate(-106.699 -4.016)" fill="#fff"/>
        <path id="Path_33" data-name="Path 33" d="M186.047,5.713V4.483h.788v-1.4H188.3v1.4h.918v1.23H188.3V8.7a.675.675,0,0,0,.088.433.974.974,0,0,0,.54.085l.142,0,.148-.008v1.1l-.7.026a1.88,1.88,0,0,1-1.431-.363,1.079,1.079,0,0,1-.249-.783V5.713Z" transform="translate(-112.893 -1.871)" fill="#fff"/>
        <path id="Path_34" data-name="Path 34" d="M101.345,8.739,98.153,5.546l3.193-3.194V0L95.8,5.546l5.545,5.546Z" transform="translate(-58.131 0)" fill="#fff"/>
        <rect id="Rectangle_2" data-name="Rectangle 2" width="1.679" height="1.802" transform="translate(41.535 4.645)" fill="#fff"/>
        <rect id="Rectangle_3" data-name="Rectangle 3" width="1.679" height="1.802" transform="translate(77.453 6.669)" fill="#fff"/>
        <rect id="Rectangle_4" data-name="Rectangle 4" width="0.995" height="3.19" transform="translate(80.098 5.379)" fill="#fff"/>
        <path id="Path_35" data-name="Path 35" d="M210.255,13.745a.976.976,0,0,1,.369.859v2.148h-1.005v-1.94a.771.771,0,0,0-.079-.386.578.578,0,0,0-.547-.246.7.7,0,0,0-.68.36,1.088,1.088,0,0,0-.1.486v1.727h-.981V13.568h.95v.465a1.507,1.507,0,0,1,.357-.354,1.392,1.392,0,0,1,.764-.193,1.611,1.611,0,0,1,.948.259" transform="translate(-125.75 -8.183)" fill="#fff"/>
        <path id="Path_36" data-name="Path 36" d="M204.7,10.919a.5.5,0,1,1-.5-.5.5.5,0,0,1,.5.5" transform="translate(-123.608 -6.324)" fill="#fff"/>
      </g>
    </g>
  </g>
</svg>
