<svg id="Group_4" data-name="Group 4" xmlns="http://www.w3.org/2000/svg" xmlns:xlink="http://www.w3.org/1999/xlink" width="432.029" height="88.351" viewBox="0 0 432.029 88.351">
  <defs>
    <clipPath id="clip-path">
      <rect id="Rectangle_5" data-name="Rectangle 5" width="432.029" height="88.351" fill="none"/>
    </clipPath>
  </defs>
  <g id="Group_1" data-name="Group 1" clip-path="url(#clip-path)">
    <path id="Path_1" data-name="Path 1" d="M20.63,14.253a8.457,8.457,0,0,1,3.563,2.828A7.527,7.527,0,0,1,25.637,20.4,41.161,41.161,0,0,1,25.9,25.96V42.872H18.216V25.347a7.76,7.76,0,0,0-.787-3.753q-1.021-2.009-3.875-2.01a5.318,5.318,0,0,0-4.5,2,9.175,9.175,0,0,0-1.533,5.694v15.6H0V0H7.526V17.815a9.19,9.19,0,0,1,3.773-3.5,10.609,10.609,0,0,1,4.507-.991,12.178,12.178,0,0,1,4.824.925" transform="translate(0 0)" fill="#5f19e1"/>
    <path id="Path_2" data-name="Path 2" d="M41.36,32.762q-3.645,4.5-11.062,4.5t-11.064-4.5a16.666,16.666,0,0,1-3.643-10.828,16.776,16.776,0,0,1,3.643-10.79Q22.879,6.58,30.3,6.58T41.36,11.143A16.776,16.776,0,0,1,45,21.934,16.666,16.666,0,0,1,41.36,32.762M35.34,28.6a10.906,10.906,0,0,0,1.769-6.669,10.847,10.847,0,0,0-1.769-6.657,5.985,5.985,0,0,0-5.07-2.334,6.015,6.015,0,0,0-5.082,2.334A10.793,10.793,0,0,0,23.4,21.934,10.851,10.851,0,0,0,25.188,28.6a6,6,0,0,0,5.082,2.346A5.968,5.968,0,0,0,35.34,28.6" transform="translate(15.615 6.59)" fill="#5f19e1"/>
    <path id="Path_3" data-name="Path 3" d="M40.582,7.042V24.387a9.137,9.137,0,0,0,.578,3.7q1.024,2.192,4.019,2.192a5.249,5.249,0,0,0,5.254-3.116A11.321,11.321,0,0,0,51.17,22.7V7.042H58.8V35.82H51.486V31.753c-.07.09-.246.352-.526.793a5.372,5.372,0,0,1-1,1.163,10.459,10.459,0,0,1-3.411,2.164,11.567,11.567,0,0,1-3.857.58q-6.374,0-8.584-4.593a17.623,17.623,0,0,1-1.237-7.472V7.042Z" transform="translate(32.922 7.053)" fill="#5f19e1"/>
    <path id="Path_4" data-name="Path 4" d="M56.212,27.04a5.015,5.015,0,0,0,1.035,2.852q1.405,1.5,5.2,1.505a7.964,7.964,0,0,0,3.543-.66A2.113,2.113,0,0,0,67.3,28.758a2.137,2.137,0,0,0-1.059-1.927q-1.057-.661-7.872-2.272-4.906-1.213-6.911-3.034a6.587,6.587,0,0,1-2.008-5.176A8.974,8.974,0,0,1,52.587,9.5q3.137-2.864,8.827-2.864a16.2,16.2,0,0,1,8.795,2.152q3.4,2.153,3.9,7.432H66.588a4.44,4.44,0,0,0-.821-2.3q-1.246-1.531-4.235-1.531a6.106,6.106,0,0,0-3.509.767,2.2,2.2,0,0,0-1.045,1.8,1.96,1.96,0,0,0,1.113,1.873q1.111.609,7.854,2.088A14.4,14.4,0,0,1,72.686,22.1,7.249,7.249,0,0,1,74.9,27.517,8.739,8.739,0,0,1,71.718,34.5q-3.188,2.705-9.855,2.706-6.8,0-10.04-2.864a9.314,9.314,0,0,1-3.24-7.3Z" transform="translate(48.656 6.643)" fill="#5f19e1"/>
    <path id="Path_5" data-name="Path 5" d="M84.394,8.009a11.693,11.693,0,0,1,4.974,4.257,14.143,14.143,0,0,1,2.292,5.948,36.456,36.456,0,0,1,.248,5.71H70.948q.174,4.332,3.008,6.075a7.664,7.664,0,0,0,4.151,1.081,5.834,5.834,0,0,0,5.724-3.3h7.684a9.407,9.407,0,0,1-2.79,5.2q-3.867,4.2-10.826,4.2a15.682,15.682,0,0,1-10.138-3.541Q63.369,30.1,63.37,22.118q0-7.479,3.965-11.469A13.878,13.878,0,0,1,77.625,6.66a16.4,16.4,0,0,1,6.769,1.349m-11.257,6.5a7.817,7.817,0,0,0-2.006,4.453H84.1a6.277,6.277,0,0,0-2-4.545,6.6,6.6,0,0,0-4.463-1.553,5.964,5.964,0,0,0-4.491,1.645" transform="translate(63.466 6.67)" fill="#5f19e1"/>
    <path id="Path_6" data-name="Path 6" d="M81.7,11.975,97.948,28.229,81.7,44.485V56.459l28.227-28.229L81.7,0Z" transform="translate(81.82 0)" fill="#5f19e1"/>
    <rect id="Rectangle_1" data-name="Rectangle 1" width="8.546" height="9.173" transform="translate(163.516 23.644)" fill="#5f19e1"/>
    <path id="Path_7" data-name="Path 7" d="M39.046,35.927h1.9l-6.679,16.32H32.363L34.551,46.9,30.076,35.927h2.046L35.6,44.918Z" transform="translate(30.121 35.982)" fill="#a6a8ab"/>
    <path id="Path_8" data-name="Path 8" d="M41.606,47.3a5.386,5.386,0,0,1-5.526-5.75,5.609,5.609,0,1,1,11.216,0,5.5,5.5,0,0,1-5.69,5.75m0-1.619a3.767,3.767,0,0,0,3.809-4.131c0-2.794-1.843-4.109-3.749-4.109-1.943,0-3.7,1.315-3.7,4.109,0,2.816,1.721,4.131,3.645,4.131" transform="translate(36.135 35.89)" fill="#a6a8ab"/>
    <path id="Path_9" data-name="Path 9" d="M52.784,47.023H50.94V45.384a4.081,4.081,0,0,1-3.543,1.8c-2.55,0-4.555-1.579-4.555-4.758v-6.5h1.821v6.257c0,2.248,1.235,3.4,3.1,3.4,1.9,0,3.176-1.173,3.176-3.563V35.927h1.843Z" transform="translate(42.907 35.982)" fill="#a6a8ab"/>
    <path id="Path_10" data-name="Path 10" d="M51.2,47.125H49.36v-11.1H51.2v1.8a3.741,3.741,0,0,1,3.585-2v1.9H54.3c-1.761,0-3.1.791-3.1,3.361Z" transform="translate(49.435 35.88)" fill="#a6a8ab"/>
    <path id="Path_11" data-name="Path 11" d="M71.441,40.969a2.509,2.509,0,1,0-5,0v6.2H63.6v-6.2a2.517,2.517,0,1,0-5.02,0v6.2H55.747V35.947h2.838V37.3a4.084,4.084,0,0,1,3.3-1.519,4.294,4.294,0,0,1,3.947,2.148,4.442,4.442,0,0,1,3.847-2.148c2.694,0,4.6,1.7,4.6,4.8v6.581H71.441Z" transform="translate(55.831 35.839)" fill="#58595b"/>
    <path id="Path_12" data-name="Path 12" d="M71.677,47.358a5.492,5.492,0,0,1-5.692-5.79,5.771,5.771,0,1,1,11.543,0,5.608,5.608,0,0,1-5.85,5.79m0-2.47a2.987,2.987,0,0,0,2.934-3.321c0-2.248-1.4-3.321-2.894-3.321s-2.856,1.073-2.856,3.321c0,2.226,1.3,3.321,2.816,3.321" transform="translate(66.085 35.829)" fill="#58595b"/>
    <path id="Path_13" data-name="Path 13" d="M75.227,35.866l2.834,8.607L80.9,35.866h3.018L79.762,47.085H76.32L72.191,35.866Z" transform="translate(72.3 35.921)" fill="#58595b"/>
    <path id="Path_14" data-name="Path 14" d="M84.106,47.358a5.432,5.432,0,0,1-5.628-5.79c0-3.543,2.308-5.792,5.628-5.792a5.266,5.266,0,0,1,5.526,5.55,6.708,6.708,0,0,1-.078,1.093h-8.2a2.628,2.628,0,0,0,2.7,2.592,2.31,2.31,0,0,0,2.246-1.357H89.35a5.213,5.213,0,0,1-5.244,3.7m-2.734-6.843H86.7a2.493,2.493,0,0,0-2.674-2.41,2.605,2.605,0,0,0-2.652,2.41" transform="translate(78.597 35.829)" fill="#58595b"/>
    <path id="Path_15" data-name="Path 15" d="M85.837,40.2h2.026l-2.268,5.446H84.36Z" transform="translate(84.487 40.258)" fill="#58595b"/>
    <path id="Path_16" data-name="Path 16" d="M95.04,47.3a5.386,5.386,0,0,1-5.526-5.75,5.609,5.609,0,1,1,11.216,0,5.5,5.5,0,0,1-5.69,5.75m0-1.619a3.766,3.766,0,0,0,3.807-4.131c0-2.794-1.841-4.109-3.747-4.109-1.943,0-3.7,1.315-3.7,4.109,0,2.816,1.719,4.131,3.643,4.131" transform="translate(89.65 35.89)" fill="#a6a8ab"/>
    <path id="Path_17" data-name="Path 17" d="M106.219,47.023h-1.843V45.384a4.081,4.081,0,0,1-3.543,1.8c-2.55,0-4.555-1.579-4.555-4.758v-6.5H98.1v6.257c0,2.248,1.235,3.4,3.1,3.4,1.9,0,3.176-1.173,3.176-3.563V35.927h1.843Z" transform="translate(96.423 35.982)" fill="#a6a8ab"/>
    <path id="Path_18" data-name="Path 18" d="M104.636,47.125h-1.841v-11.1h1.841v1.8a3.741,3.741,0,0,1,3.585-2v1.9h-.484c-1.761,0-3.1.791-3.1,3.361Z" transform="translate(102.951 35.88)" fill="#a6a8ab"/>
    <path id="Path_19" data-name="Path 19" d="M114.447,47.358a5.432,5.432,0,0,1-5.628-5.79c0-3.543,2.308-5.792,5.628-5.792a5.267,5.267,0,0,1,5.528,5.55,6.708,6.708,0,0,1-.08,1.093h-8.2a2.628,2.628,0,0,0,2.7,2.592,2.31,2.31,0,0,0,2.246-1.357h3.058a5.213,5.213,0,0,1-5.244,3.7m-2.734-6.843h5.326a2.493,2.493,0,0,0-2.674-2.41,2.605,2.605,0,0,0-2.652,2.41" transform="translate(108.984 35.829)" fill="#6d6e70"/>
    <path id="Path_20" data-name="Path 20" d="M119.922,43.6l-2.044,3.483H114.84l3.665-5.628-3.7-5.588H118l2.29,3.461,2.066-3.461h3.036L121.7,41.455l3.725,5.628h-3.2Z" transform="translate(114.976 35.921)" fill="#6d6e70"/>
    <path id="Path_21" data-name="Path 21" d="M127.416,35.776c2.876,0,5.122,2.248,5.122,5.75s-2.246,5.83-5.122,5.83a4.583,4.583,0,0,1-3.7-1.781v6.945h-2.836V35.958h2.836v1.619a4.48,4.48,0,0,1,3.7-1.8m-.749,2.49a3.029,3.029,0,0,0-2.956,3.3,3.029,3.029,0,0,0,2.956,3.3,3.068,3.068,0,0,0,2.976-3.341,3,3,0,0,0-2.976-3.26" transform="translate(121.058 35.83)" fill="#6d6e70"/>
    <path id="Path_22" data-name="Path 22" d="M132.992,47.358a5.432,5.432,0,0,1-5.628-5.79c0-3.543,2.308-5.792,5.628-5.792a5.267,5.267,0,0,1,5.528,5.55,6.709,6.709,0,0,1-.08,1.093h-8.2a2.628,2.628,0,0,0,2.7,2.592,2.31,2.31,0,0,0,2.246-1.357h3.058a5.213,5.213,0,0,1-5.244,3.7m-2.734-6.843h5.326a2.493,2.493,0,0,0-2.674-2.41,2.605,2.605,0,0,0-2.652,2.41" transform="translate(127.557 35.829)" fill="#6d6e70"/>
    <path id="Path_23" data-name="Path 23" d="M136.8,47.166h-2.836V35.947H136.8V37.69a3.891,3.891,0,0,1,3.443-1.905v2.976h-.751c-1.681,0-2.692.648-2.692,2.816Z" transform="translate(134.167 35.839)" fill="#6d6e70"/>
    <path id="Path_24" data-name="Path 24" d="M138.941,39.583H137.6V37.255h1.339V34.481H141.8v2.774h2.51v2.328H141.8v5.428c0,.749.3,1.073,1.193,1.073h1.317v2.39h-1.783c-2.148,0-3.583-.913-3.583-3.485Z" transform="translate(137.81 34.533)" fill="#6d6e70"/>
    <path id="Path_25" data-name="Path 25" d="M141.816,35.2a1.743,1.743,0,1,1,1.741,1.659,1.662,1.662,0,0,1-1.741-1.659m.3,3h2.836V49.414H142.12Z" transform="translate(142.031 33.591)" fill="#6d6e70"/>
    <path id="Path_26" data-name="Path 26" d="M149.376,47.357c-2.816,0-4.78-1.639-4.9-3.725h2.856a1.858,1.858,0,0,0,2.022,1.5c1.115,0,1.723-.5,1.723-1.153,0-2.006-6.337-.731-6.337-4.84,0-1.863,1.659-3.361,4.433-3.361,2.712,0,4.353,1.477,4.517,3.7h-2.714a1.672,1.672,0,0,0-1.883-1.455c-1.053,0-1.6.424-1.6,1.071,0,2.046,6.217.771,6.3,4.882,0,1.923-1.681,3.381-4.413,3.381" transform="translate(144.693 35.83)" fill="#6d6e70"/>
    <path id="Path_27" data-name="Path 27" d="M155.551,47.358a5.432,5.432,0,0,1-5.628-5.79c0-3.543,2.308-5.792,5.628-5.792a5.267,5.267,0,0,1,5.528,5.55,6.713,6.713,0,0,1-.08,1.093h-8.2a2.628,2.628,0,0,0,2.7,2.592,2.31,2.31,0,0,0,2.246-1.357H160.8a5.213,5.213,0,0,1-5.244,3.7m-2.734-6.843h5.326a2.493,2.493,0,0,0-2.674-2.41,2.605,2.605,0,0,0-2.652,2.41" transform="translate(150.15 35.829)" fill="#6d6e70"/>
    <path id="Path_28" data-name="Path 28" d="M134.976,7.928a11.693,11.693,0,0,1,4.974,4.257,14.142,14.142,0,0,1,2.292,5.948,36.455,36.455,0,0,1,.248,5.71H121.53q.174,4.332,3.008,6.075A7.664,7.664,0,0,0,128.689,31a5.834,5.834,0,0,0,5.724-3.3H142.1a9.408,9.408,0,0,1-2.79,5.2q-3.867,4.2-10.826,4.2a15.682,15.682,0,0,1-10.138-3.541q-4.392-3.54-4.391-11.521,0-7.479,3.965-11.469a13.878,13.878,0,0,1,10.29-3.989,16.4,16.4,0,0,1,6.769,1.349m-11.257,6.5a7.817,7.817,0,0,0-2.006,4.453h12.964a6.277,6.277,0,0,0-2-4.545,6.6,6.6,0,0,0-4.463-1.553,5.964,5.964,0,0,0-4.491,1.645" transform="translate(114.125 6.589)" fill="#ed1651"/>
    <path id="Path_29" data-name="Path 29" d="M128.68,35.713,138.5,21.14,129.1,6.988h9.213l4.808,8.336,4.7-8.336h8.951l-9.453,14.021,9.821,14.705h-9.371l-4.954-8.653-5,8.653Z" transform="translate(128.875 6.998)" fill="#ed1651"/>
    <path id="Path_30" data-name="Path 30" d="M168.99,10.368q3.522,3.72,3.521,10.93,0,7.6-3.441,11.591a11.176,11.176,0,0,1-8.863,3.987,9.284,9.284,0,0,1-5.738-1.717,11.048,11.048,0,0,1-2.446-2.772V50.062h-7.446V7.279h7.207v4.249a12.177,12.177,0,0,1,2.6-2.956A9.611,9.611,0,0,1,160.4,6.645a11.377,11.377,0,0,1,8.594,3.723m-5.774,5.412a5.356,5.356,0,0,0-4.974-2.562A5.658,5.658,0,0,0,152.56,17.1a14.551,14.551,0,0,0-.8,5.226q0,5.017,2.69,7.049a6.176,6.176,0,0,0,3.789,1.189,5.505,5.505,0,0,0,4.842-2.43,11.238,11.238,0,0,0,1.667-6.469,11.234,11.234,0,0,0-1.533-5.886" transform="translate(144.797 6.655)" fill="#ed1651"/>
    <path id="Path_31" data-name="Path 31" d="M181.152,7.928a11.693,11.693,0,0,1,4.974,4.257,14.142,14.142,0,0,1,2.292,5.948,36.458,36.458,0,0,1,.248,5.71h-20.96q.174,4.332,3.008,6.075A7.664,7.664,0,0,0,174.865,31a5.834,5.834,0,0,0,5.724-3.3h7.684a9.408,9.408,0,0,1-2.79,5.2q-3.867,4.2-10.826,4.2a15.682,15.682,0,0,1-10.138-3.541q-4.392-3.54-4.391-11.521,0-7.479,3.965-11.469a13.878,13.878,0,0,1,10.29-3.989,16.39,16.39,0,0,1,6.769,1.349m-11.257,6.5a7.818,7.818,0,0,0-2.006,4.453h12.964a6.277,6.277,0,0,0-2-4.545,6.6,6.6,0,0,0-4.463-1.553,5.964,5.964,0,0,0-4.491,1.645" transform="translate(160.37 6.589)" fill="#ed1651"/>
    <path id="Path_32" data-name="Path 32" d="M191.905,6.632c.1.01.312.022.646.038v7.71c-.476-.052-.9-.088-1.269-.106s-.666-.026-.9-.026q-4.542,0-6.1,2.958a11.477,11.477,0,0,0-.873,5.122V36.082h-7.578V6.664h7.181V12.32a16.008,16.008,0,0,1,3.034-3.933,8.275,8.275,0,0,1,5.494-1.769c.14,0,.258,0,.356.014" transform="translate(176.105 6.628)" fill="#ed1651"/>
    <path id="Path_33" data-name="Path 33" d="M186.047,16.468V10.205h4.013V3.084H197.5v7.121h4.674v6.263H197.5V31.676a3.437,3.437,0,0,0,.448,2.206q.45.435,2.748.434c.228,0,.468,0,.725-.012s.508-.022.753-.04v5.624l-3.565.132q-5.329.183-7.285-1.849a5.491,5.491,0,0,1-1.267-3.985V16.468Z" transform="translate(186.329 3.089)" fill="#ed1651"/>
    <path id="Path_34" data-name="Path 34" d="M124.027,44.484,107.775,28.23l16.252-16.256V0L95.8,28.23l28.227,28.229Z" transform="translate(95.945 0)" fill="#ed1651"/>
    <rect id="Rectangle_2" data-name="Rectangle 2" width="8.546" height="9.173" transform="translate(211.426 23.644)" fill="#ed1651"/>
    <rect id="Rectangle_3" data-name="Rectangle 3" width="8.546" height="9.173" transform="translate(394.258 33.95)" fill="#ed1651"/>
    <rect id="Rectangle_4" data-name="Rectangle 4" width="5.066" height="16.24" transform="translate(407.72 27.379)" fill="#ed1651"/>
    <path id="Path_35" data-name="Path 35" d="M222.6,14.8a4.967,4.967,0,0,1,1.877,4.373V30.111h-5.118V20.233a3.927,3.927,0,0,0-.4-1.965,2.945,2.945,0,0,0-2.782-1.253,3.538,3.538,0,0,0-3.463,1.833,5.535,5.535,0,0,0-.486,2.472v8.791h-4.994V13.9h4.838V16.27a7.675,7.675,0,0,1,1.815-1.8,7.087,7.087,0,0,1,3.889-.981A8.2,8.2,0,0,1,222.6,14.8" transform="translate(207.55 13.507)" fill="#ed1651"/>
    <path id="Path_36" data-name="Path 36" d="M208.772,12.954a2.533,2.533,0,1,1-2.532-2.532,2.532,2.532,0,0,1,2.532,2.532" transform="translate(204.014 10.438)" fill="#ed1651"/>
  </g>
</svg>
