<svg xmlns="http://www.w3.org/2000/svg" width="26.624" height="23.296" viewBox="0 0 26.624 23.296">
  <path id="Icon_awesome-quote-left" data-name="Icon awesome-quote-left" d="M24.128,13.9h-4.16V10.57A3.331,3.331,0,0,1,23.3,7.242h.416A1.245,1.245,0,0,0,24.96,5.994V3.5A1.245,1.245,0,0,0,23.712,2.25H23.3a8.318,8.318,0,0,0-8.32,8.32V23.05a2.5,2.5,0,0,0,2.5,2.5h6.656a2.5,2.5,0,0,0,2.5-2.5V16.394A2.5,2.5,0,0,0,24.128,13.9Zm-14.976,0H4.992V10.57A3.331,3.331,0,0,1,8.32,7.242h.416A1.245,1.245,0,0,0,9.984,5.994V3.5A1.245,1.245,0,0,0,8.736,2.25H8.32A8.318,8.318,0,0,0,0,10.57V23.05a2.5,2.5,0,0,0,2.5,2.5H9.152a2.5,2.5,0,0,0,2.5-2.5V16.394A2.5,2.5,0,0,0,9.152,13.9Z" transform="translate(0 -2.25)" fill="#eb2c60"/>
</svg>
